<svg width="219" height="52" viewBox="0 0 219 52" fill="none" xmlns="http://www.w3.org/2000/svg">
<path d="M8.97679 47.4852C7.88638 47.4852 6.92425 47.1453 6.15455 46.4656C5.38485 45.7858 5 44.9021 5 43.8145V8.67072C5 7.65108 5.38485 6.76739 6.09041 6.08762C6.86011 5.33988 7.82224 5 8.97679 5C10.1313 5 11.0293 5.33988 11.799 6.08762C12.5046 6.83536 12.8894 7.71905 12.8894 8.80668V21.3143C13.6591 20.3627 14.6854 19.6149 16.0324 19.0711C17.3152 18.5273 18.7263 18.1874 20.2016 18.1874C23.537 18.1874 26.2309 19.2071 28.2834 21.3143C30.336 23.4216 31.3622 26.6845 31.3622 31.2389V44.0184C31.3622 45.0381 30.9774 45.8538 30.2718 46.5335C29.5021 47.2133 28.6042 47.5532 27.4496 47.5532C26.2951 47.5532 25.3971 47.2133 24.6274 46.5335C23.8577 45.8538 23.537 44.9701 23.537 43.8825V32.2585C23.537 29.9473 23.0238 28.2479 22.0617 27.2283C21.0996 26.2086 19.8809 25.7328 18.4698 25.7328C16.9945 25.7328 15.7758 26.2766 14.8137 27.2962C13.8516 28.3159 13.2101 29.4715 12.9536 30.763V43.6785C12.9536 44.7662 12.5687 45.6499 11.8632 46.3976C10.9652 47.1453 10.0672 47.4852 8.97679 47.4852Z" fill="white"/>
<path d="M64.3951 47.4852C60.3542 47.4852 57.0188 46.6015 54.389 44.8341C53.8759 44.4262 53.491 44.0184 53.2345 43.4746C52.9779 42.9308 52.8496 42.4549 52.8496 41.9111C52.8496 40.8235 53.1703 39.8718 53.8759 38.9881C54.5814 38.1045 55.4153 37.6966 56.4415 37.6966C56.8905 37.6966 57.4037 37.8325 57.8527 38.1045C58.9431 38.5803 60.1618 39.0561 61.5087 39.396C62.8557 39.7359 64.1386 39.9398 65.229 39.9398C67.4098 39.9398 68.5002 39.396 68.5002 38.3084C68.5002 37.6966 68.2436 37.1528 67.6663 36.6769C67.2174 36.1331 65.9987 35.7933 64.0103 35.5893C63.2406 35.5213 62.2143 35.3854 60.9956 35.1815C59.7769 34.9775 58.5582 34.6377 57.4037 34.0938C56.185 33.55 55.2229 32.7343 54.389 31.7147C53.6193 30.6271 53.1703 29.1995 53.1703 27.3642C53.1703 24.5092 54.1966 22.266 56.185 20.6345C58.1734 19.0031 60.9315 18.1874 64.2668 18.1874C66.2552 18.1874 68.0512 18.3913 69.8472 18.8671C71.579 19.275 72.926 19.9548 73.824 20.8385C74.6578 21.6542 75.0426 22.6058 75.0426 23.6935C75.0426 24.6451 74.7219 25.4608 74.0805 26.2766C73.4391 27.0243 72.6053 27.4322 71.579 27.4322C71.0659 27.4322 70.5527 27.2962 70.0396 27.0243C69.334 26.5485 68.436 26.1406 67.3456 25.8687C66.2552 25.5968 65.1007 25.4608 64.0103 25.4608C61.7653 25.4608 60.6108 25.9367 60.6108 26.9563C60.6108 27.3642 60.8032 27.772 61.2522 28.1119C61.7012 28.4518 62.7274 28.7917 64.331 28.9956C65.3572 29.1316 66.5118 29.2675 67.7946 29.5394C69.0775 29.7434 70.3603 30.1512 71.579 30.695C72.7977 31.2388 73.824 32.1225 74.6578 33.2781C75.4916 34.5017 75.8765 36.1331 75.8765 38.1724C75.8765 41.0274 74.7861 43.2707 72.6694 44.9021C70.681 46.6695 67.8588 47.4852 64.3951 47.4852Z" fill="white"/>
<path d="M95.6324 47.5531C91.5915 47.5531 88.192 46.2616 85.4339 43.7465C82.6758 41.1633 81.2646 37.6966 81.2646 33.2101C81.2646 28.5198 82.6116 24.917 85.3056 22.2659C87.9995 19.6149 91.399 18.3233 95.5041 18.3233C98.3905 18.3233 100.828 18.8671 102.752 20.0227C104.676 21.1783 106.087 22.6058 107.05 24.3732C108.012 26.1406 108.461 27.9759 108.461 29.9473C108.461 33.2101 107.114 34.8416 104.356 34.8416H89.5389C89.0899 34.8416 88.8334 35.1814 88.8334 35.7932C88.8334 37.2207 89.6031 38.3763 91.0783 39.26C92.6177 40.1437 94.2854 40.5516 96.2097 40.5516C97.4284 40.5516 98.5829 40.3476 99.8016 40.0078C101.02 39.6679 102.047 39.1241 102.945 38.4443C103.522 38.0364 104.163 37.7645 104.805 37.7645C105.703 37.7645 106.472 38.1044 107.05 38.7842C107.691 39.4639 108.012 40.2797 108.012 41.2313C108.012 42.3869 107.434 43.4066 106.344 44.4262C105.254 45.3779 103.714 46.1256 101.662 46.6694C99.6092 47.2812 97.5566 47.5531 95.6324 47.5531ZM100.251 29.3355C100.379 29.3355 100.507 29.3355 100.764 29.2675C100.956 29.1995 101.084 28.9956 101.084 28.5877C101.084 27.6361 100.507 26.7524 99.4167 26.0046C98.3263 25.1889 96.9152 24.849 95.1834 24.849C93.3233 24.849 91.848 25.2569 90.6935 26.1406C89.5389 27.0243 88.9616 27.84 88.9616 28.7237C88.9616 29.1315 89.2182 29.4034 89.6672 29.4034H100.251V29.3355Z" fill="white"/>
<path d="M136.106 47.4852C134.951 47.4852 134.053 47.1453 133.284 46.4656C132.514 45.7858 132.193 44.9021 132.193 43.8145V32.2585C132.193 29.9473 131.68 28.2479 130.718 27.2283C129.756 26.2086 128.537 25.7328 127.126 25.7328C125.651 25.7328 124.432 26.2086 123.406 27.2283C122.444 28.2479 121.802 29.4035 121.61 30.695V43.3386C121.61 44.4263 121.225 45.31 120.519 46.0577C119.75 46.8054 118.852 47.1453 117.825 47.1453C116.671 47.1453 115.773 46.8054 115.003 46.1257C114.233 45.4459 113.849 44.5622 113.849 43.4746V22.4019C113.849 21.3823 114.233 20.4986 114.939 19.8188C115.709 19.0711 116.671 18.7312 117.825 18.7312C118.788 18.7312 119.557 19.0031 120.263 19.5469C120.904 20.0907 121.353 20.7705 121.61 21.5862C123.213 19.411 125.651 18.2554 128.922 18.2554C132.257 18.2554 134.951 19.275 137.004 21.3823C139.056 23.4896 140.147 26.7524 140.147 31.3068V44.0864C140.147 45.106 139.762 45.9217 139.056 46.6015C138.222 47.1453 137.26 47.4852 136.106 47.4852Z" fill="white"/>
<path d="M156.887 47.4852C152.846 47.4852 149.511 46.6015 146.881 44.8341C146.368 44.4263 145.983 44.0184 145.727 43.4746C145.47 42.9308 145.342 42.455 145.342 41.9111C145.342 40.8235 145.663 39.8719 146.368 38.9882C147.074 38.1045 147.907 37.6966 148.934 37.6966C149.383 37.6966 149.896 37.8326 150.345 38.1045C151.435 38.5803 152.654 39.0561 154.001 39.396C155.348 39.7359 156.631 39.9398 157.721 39.9398C159.902 39.9398 160.992 39.396 160.992 38.3084C160.992 37.6966 160.736 37.1528 160.159 36.677C159.645 36.2011 158.363 35.8612 156.438 35.6573C155.669 35.5893 154.642 35.4534 153.424 35.2495C152.205 35.0455 150.986 34.7057 149.832 34.1618C148.613 33.618 147.651 32.8023 146.817 31.7827C145.983 30.695 145.598 29.2675 145.598 27.4322C145.598 24.5772 146.625 22.334 148.613 20.7025C150.601 19.0711 153.36 18.2554 156.695 18.2554C158.683 18.2554 160.479 18.4593 162.275 18.9351C164.007 19.343 165.354 20.0228 166.252 20.9064C167.086 21.7222 167.471 22.6738 167.471 23.7615C167.471 24.7131 167.15 25.5288 166.509 26.3446C165.867 27.0923 165.033 27.5002 164.007 27.5002C163.494 27.5002 162.981 27.3642 162.468 27.0923C161.762 26.6165 160.864 26.2086 159.774 25.9367C158.683 25.6648 157.529 25.5288 156.438 25.5288C154.193 25.5288 153.039 26.0047 153.039 27.0243C153.039 27.4322 153.231 27.84 153.68 28.1799C154.129 28.5198 155.155 28.8597 156.759 29.0636C157.785 29.1996 158.94 29.3355 160.223 29.6074C161.506 29.8114 162.788 30.2192 164.007 30.763C165.226 31.3068 166.252 32.1905 167.086 33.3461C167.92 34.5697 168.305 36.2011 168.305 38.2404C168.305 41.0954 167.214 43.3386 165.097 44.9701C163.173 46.6695 160.351 47.4852 156.887 47.4852Z" fill="white"/>
<path d="M195.309 46.0577C197.297 45.3099 198.772 44.4262 199.799 43.3386C200.825 42.251 201.338 41.0954 201.21 40.0078C201.146 39.0561 200.761 38.3084 200.055 37.6286C199.35 37.0168 198.58 36.7449 197.682 36.8129C197.041 36.8809 196.399 37.1528 195.886 37.6286C195.052 38.3764 194.09 38.9881 192.936 39.464C191.781 39.9398 190.626 40.2117 189.408 40.2797C187.484 40.4836 185.752 40.2117 184.212 39.464C182.609 38.7842 181.775 37.6966 181.647 36.2691C181.583 35.6573 181.775 35.3174 182.288 35.2494L197.041 33.8899C199.735 33.618 201.017 31.8506 200.697 28.5878C200.504 26.6164 199.927 24.8491 198.837 23.1497C197.746 21.4502 196.207 20.1587 194.218 19.207C192.23 18.2554 189.793 17.9155 186.906 18.1874C182.801 18.5952 179.53 20.2267 177.093 23.0817C174.591 25.9367 173.565 29.7434 173.95 34.3657C174.335 38.8522 176.002 42.183 178.953 44.4942C181.903 46.8054 185.431 47.7571 189.408 47.3492C191.332 47.2813 193.32 46.8054 195.309 46.0577ZM181.967 29.8793C181.518 29.9473 181.262 29.7434 181.198 29.2675C181.134 28.3838 181.647 27.5001 182.737 26.5485C183.827 25.5968 185.303 25.053 187.099 24.8491C188.831 24.7131 190.242 24.985 191.396 25.6648C192.551 26.3445 193.192 27.1603 193.256 28.1119C193.256 28.5198 193.192 28.7237 193 28.7917C192.807 28.8597 192.615 28.9276 192.551 28.9276L181.967 29.8793Z" fill="white"/>
<path d="M43.421 5.06799C44.5755 5.13596 45.4735 5.54382 46.1791 6.29156C46.8846 7.0393 47.2695 7.92299 47.2054 9.01061L46.0508 30.4232C45.9867 31.4428 45.6018 32.2585 44.768 32.9383C43.9983 33.6181 42.972 33.89 41.8175 33.822C40.6629 33.754 39.7008 33.3461 39.0594 32.5304C38.4179 31.7827 38.0972 30.831 38.1614 29.8114L39.3801 8.60276C39.4442 7.51513 39.8932 6.63144 40.6629 6.01965C41.4326 5.33989 42.3947 5.00001 43.421 5.06799Z" fill="white"/>
<path d="M41.5607 38.5803C42.7794 38.6482 43.8698 39.1241 44.7037 40.0757C45.5375 40.9594 45.9224 42.115 45.8582 43.4066C45.7941 44.6302 45.2809 45.5818 44.3188 46.4655C43.3567 47.2812 42.2663 47.6891 41.0476 47.5532C39.893 47.4852 38.8668 46.9414 38.0329 46.0577C37.1991 45.106 36.8784 44.0864 36.9425 42.8628C37.0067 41.5712 37.5198 40.4836 38.4178 39.6679C39.3158 38.8522 40.342 38.4443 41.5607 38.5803Z" fill="white"/>
<path d="M210.639 47.4852C209.484 47.4852 208.586 47.1453 207.817 46.4655C207.047 45.7858 206.662 44.9021 206.662 43.8145V22.4019C206.662 21.3823 207.047 20.4986 207.753 19.8188C208.522 19.0711 209.484 18.7312 210.639 18.7312C211.858 18.7312 212.756 19.0711 213.461 19.8188C214.167 20.5666 214.487 21.4503 214.487 22.5379V43.8145C214.487 44.9021 214.103 45.7858 213.397 46.5335C212.627 47.1453 211.729 47.4852 210.639 47.4852Z" fill="white"/>
<path d="M210.638 13.9729C209.419 13.9729 208.329 13.565 207.431 12.6813C206.533 11.7976 206.084 10.778 206.084 9.41846C206.084 8.19489 206.533 7.17524 207.431 6.29155C208.329 5.40786 209.419 5 210.638 5C211.857 5 212.819 5.40786 213.717 6.29155C214.551 7.17524 215 8.19489 215 9.41846C215 10.71 214.551 11.7976 213.717 12.6813C212.819 13.565 211.857 13.9729 210.638 13.9729Z" fill="white"/>
</svg>
