<svg width="135" height="135" viewBox="0 0 135 135" fill="none" xmlns="http://www.w3.org/2000/svg">
<g clip-path="url(#clip0_381_976)">
<path d="M52.8194 119.911C49.9579 119.145 47.5031 117.337 46.0192 114.767L15.2401 61.281C13.7563 58.711 13.418 55.6811 14.1848 52.8196C14.9515 49.958 16.7594 47.5032 19.3294 46.0194L72.815 15.2403C78.1063 12.1854 84.9025 14.0064 87.9574 19.2977L118.737 72.7833C120.22 75.3533 120.559 78.3832 119.792 81.2447C119.025 84.1063 117.249 86.4418 114.679 87.9257L61.3128 118.737C58.7428 120.221 55.681 120.678 52.8194 119.911ZM40.058 59.7523L59.7521 94.0381L94.0699 74.2247L74.2246 40.0262L40.058 59.7523Z" fill="#42C0FF"/>
</g>
<defs>
<clipPath id="clip0_381_976">
<rect width="109.489" height="109.489" fill="white" transform="translate(28.3379) rotate(15)"/>
</clipPath>
</defs>
</svg>
