<svg width="212" height="122" viewBox="0 0 212 122" fill="none" xmlns="http://www.w3.org/2000/svg">
<path d="M17.0686 87.2845C15.0688 87.8204 12.8535 87.5522 11.0227 86.3193C7.81503 83.9473 6.83013 79.4717 9.1836 76.2559L30.4801 45.3438C32.3413 42.6908 35.6872 41.5788 38.7717 42.6912L73.9168 55.4637L98.7671 26.6155C100.736 24.3645 103.936 23.5071 106.82 24.6731L135.758 35.8774L155.794 13.0588C157.763 10.8077 160.962 9.95034 163.847 11.1163L196.323 23.5269C200.115 24.8805 201.9 29.1418 200.562 32.9473C199.224 36.7527 194.986 38.5346 191.193 37.181L163.417 26.3118L143.382 49.1304C141.413 51.3814 138.213 52.2388 135.328 51.0728L106.445 40.0695L81.7405 68.6631C79.7715 70.9142 76.5718 71.7716 73.7411 70.8066L39.3036 58.2753L21.2374 84.444C20.1068 85.8241 18.6685 86.8558 17.0686 87.2845Z" fill="#6DD95D"/>
<path d="M25.6858 119.445C23.6859 119.981 21.4707 119.712 19.6399 118.479C16.4322 116.107 15.4473 111.632 17.8008 108.416L39.0972 77.504C40.9585 74.8509 44.3044 73.739 47.3889 74.8514L82.534 87.6239L107.184 58.8292C109.153 56.5782 112.353 55.7208 115.238 56.8868L144.175 68.0911L164.211 45.2725C166.18 43.0215 169.38 42.1641 172.264 43.3301L204.74 55.7406C208.532 57.0942 210.317 61.3555 208.979 65.161C207.641 68.9665 203.403 70.7484 199.611 69.3947L171.888 58.7265L151.853 81.5451C149.884 83.7962 146.684 84.6535 143.799 83.4875L114.862 72.2832L90.3576 100.823C88.3887 103.074 85.1889 103.932 82.3583 102.967L47.9208 90.4355L29.8546 116.604C28.7778 118.185 27.2857 119.016 25.6858 119.445Z" fill="#6DD95D"/>
</svg>
