<svg width="243" height="231" viewBox="0 0 243 231" fill="none" xmlns="http://www.w3.org/2000/svg">
<path d="M7.64111 227.22C31.6073 232.423 111.415 230.881 121.241 227.22C131.067 223.559 131.786 207.181 112.373 217.2C121.241 196.968 104.704 185.599 87.4484 194.848C100.39 175.579 104.944 141.088 80.9776 139.161C48.6232 136.463 46.706 168.257 51.4992 191.187C33.7642 172.304 7.40144 187.141 24.4174 209.107C0.690918 195.619 -7.45758 223.945 7.64111 227.22Z" fill="#51B57E"/>
<path d="M54.615 228.569C54.615 228.569 40.2353 217.585 33.2852 196.775" stroke="#328756" stroke-width="3" stroke-miterlimit="10" stroke-linecap="round" stroke-linejoin="round"/>
<path d="M78.8213 228.569C78.8213 228.569 83.1352 213.154 100.151 206.41" stroke="#328756" stroke-width="3" stroke-miterlimit="10" stroke-linecap="round" stroke-linejoin="round"/>
<path d="M61.3252 228.569C61.3252 228.569 62.5235 189.26 75.7049 158.237" stroke="#328756" stroke-width="3" stroke-miterlimit="10" stroke-linecap="round" stroke-linejoin="round"/>
<path d="M82.6556 168.064C82.6556 168.064 82.1763 182.324 65.6396 191.765" stroke="#328756" stroke-width="3" stroke-miterlimit="10" stroke-linecap="round" stroke-linejoin="round"/>
<path d="M61.3257 164.981C61.3257 164.981 56.5325 175.772 67.7966 182.709" stroke="#328756" stroke-width="3" stroke-miterlimit="10" stroke-linecap="round" stroke-linejoin="round"/>
<path d="M78.8208 198.509C78.8208 198.509 73.7879 210.841 62.2842 214.888" stroke="#328756" stroke-width="3" stroke-miterlimit="10" stroke-linecap="round" stroke-linejoin="round"/>
<path d="M181.969 70.7597C183.19 69.3919 211.124 46.5955 218.298 17.2641C219.061 14.3766 223.03 14.2246 223.946 16.9602C229.899 33.8295 237.989 66.8083 212.04 72.5834C176.779 80.4862 180.29 72.4314 181.969 70.7597Z" fill="#FBC221"/>
<path d="M146 131C146 131 130.213 161.203 142.993 185" stroke="#7C092F" stroke-width="3" stroke-miterlimit="10" stroke-linecap="round" stroke-linejoin="round"/>
<path d="M173.308 124C173.308 124 169.326 157.748 190 175" stroke="#7C092F" stroke-width="3" stroke-miterlimit="10" stroke-linecap="round" stroke-linejoin="round"/>
<path d="M134 192.807L143.319 185L145 197" stroke="#7C092F" stroke-width="3" stroke-miterlimit="10" stroke-linecap="round" stroke-linejoin="round"/>
<path d="M184 185.849L189.766 175L196 186" stroke="#7C092F" stroke-width="3" stroke-miterlimit="10" stroke-linecap="round" stroke-linejoin="round"/>
<path d="M130.937 70.8353C129.102 70.236 94.081 66.6406 74.5058 43.2701C72.9765 41.3225 72.8236 50.461 73.1294 53.0078C75.2705 70.0862 78.3291 92.4081 104.939 85.8164C139.96 76.9776 133.231 71.5843 130.937 70.8353Z" fill="#F29425"/>
<path d="M166.272 135.102L137.92 139.659C117.691 142.849 101.446 123.101 108.802 104.112L119.07 77.5281L129.338 50.9441C136.694 31.9555 161.981 28.0059 174.855 43.8044L192.938 65.8312L211.022 87.8579C223.896 103.656 214.854 127.354 194.624 130.544L166.272 135.102Z" fill="url(#paint0_linear_939_363)"/>
<path opacity="0.3" d="M193.145 66C193.145 66 205.644 86.9452 204.729 99.7534C203.815 112.411 199.242 126.123 184 132L196.041 130.041C196.041 130.041 206.254 128.384 212.96 118.438C212.96 118.438 218.752 109.548 216.466 98.6986C216.466 98.6986 216.008 93.8767 208.845 85.137C201.833 76.5479 193.145 66 193.145 66Z" fill="#F78100"/>
<path d="M147.206 46C147.206 46 131.396 -13.8684 169.991 2.99379C208.43 20.0106 149.686 -6.59752 147.206 46Z" fill="#02AFAF"/>
<path d="M149 43C149 43 154.514 7.00182 171.363 25.0769C188.364 43.3038 162.785 15.2039 149 43Z" fill="#087F7C"/>
<path d="M139.005 70C141.242 70 143 68 143 65.5C143 63 141.242 61 139.005 61C136.767 61 135.009 63 135.009 65.5C134.85 68 136.767 70 139.005 70Z" fill="#162947"/>
<path d="M164 70C166.24 70 168 68 168 65.5C168 63 166.24 61 164 61C161.76 61 160 63 160 65.5C160 68 161.76 70 164 70Z" fill="#162947"/>
<path d="M85.8296 121.695L38.8014 105.247C34.7053 103.863 33.6434 98.4828 36.9809 95.562L65.1979 70.6583L80.0648 27L101 34.3789L86.133 78.0372L93.2631 115.239C94.0216 119.543 89.9256 123.079 85.8296 121.695Z" fill="white"/>
<path d="M84.6014 116.847L42.2112 102.2C39.8146 101.304 39.2154 98.3145 41.1627 96.5211L66.0276 75C67.2259 76.644 67.3757 78.5868 70.0719 79.633C71.7196 80.2308 72.9179 79.9319 73.9664 79.3341C75.4643 78.7363 76.8124 77.8396 78.9094 78.5868C81.6056 79.4836 82.804 82.1737 83.1035 83.2199L88.9453 112.961C89.3947 115.501 86.998 117.594 84.6014 116.847Z" fill="#4ED3F2"/>
<path d="M103.961 32.3626L103.344 34.1968C103.189 34.8082 102.572 35.1139 101.955 34.9611L78.8108 27.013C78.1936 26.8601 77.885 26.2487 78.0393 25.6374L78.6565 23.8032C78.8108 23.1918 79.428 22.8861 80.0451 23.039L103.189 30.987C103.806 31.1399 104.115 31.7513 103.961 32.3626Z" fill="white"/>
<path d="M67 86C68.0909 86 69 85.0909 69 84C69 82.9091 68.0909 82 67 82C65.9091 82 65 82.9091 65 84C65 85.0909 65.9091 86 67 86Z" fill="#2BB3C9"/>
<path d="M73.9203 73.0165C73.6621 73.7912 72.7582 74.1786 71.9835 73.9203C71.2088 73.6621 70.8214 72.7582 71.0797 71.9835C71.3379 71.2088 72.2418 70.8214 73.0165 71.0797C73.7912 71.3379 74.1786 72.2418 73.9203 73.0165Z" fill="#4ED3F2"/>
<path d="M85.8097 66.9872C85.2022 68.506 83.5316 69.4172 82.0128 68.8097C80.494 68.2022 79.5828 66.5316 80.1903 65.0128C80.7978 63.494 82.4684 62.5828 83.9872 63.1903C85.506 63.7978 86.4172 65.4684 85.8097 66.9872Z" fill="#8DEFFF"/>
<path d="M78.9714 57.2857C78.7429 57.8571 78.1714 58.0857 77.7143 57.9714C77.1429 57.7429 76.9143 57.1714 77.0286 56.7143C77.2571 56.1429 77.8286 55.9143 78.2857 56.0286C78.8571 56.1429 79.0857 56.7143 78.9714 57.2857Z" fill="#2BB3C9"/>
<path d="M80.9302 89.3336C80.5236 90.6672 79.4392 91.3341 78.3549 90.8339C77.2706 90.3338 76.7284 89.0001 77.135 87.6664C77.5416 86.3328 78.626 85.6659 79.7103 86.1661C80.6591 86.6662 81.2013 87.9999 80.9302 89.3336Z" fill="#8DEFFF"/>
<path d="M72.9584 94.3195C72.7987 94.7987 72.3195 95.1182 71.6805 94.9584C71.2013 94.7987 70.8818 94.3195 71.0416 93.6805C71.2013 93.2013 71.6805 92.8818 72.3195 93.0416C72.7987 93.2013 73.1182 93.8403 72.9584 94.3195Z" fill="#8DEFFF"/>
<path d="M88.5 19C91.5556 19 94 16.5556 94 13.5C94 10.4444 91.4028 8 88.5 8C85.5972 8 83 10.4444 83 13.5C83 16.5556 85.4444 19 88.5 19Z" fill="#4ED3F2"/>
<path d="M101.5 13C103.396 13 105 11.3958 105 9.5C105 7.60417 103.396 6 101.5 6C99.6042 6 98 7.60417 98 9.5C98.1458 11.5417 99.6042 13 101.5 13Z" fill="#2BB3C9"/>
<path d="M86 45C88.1667 45 90 43.1667 90 41C90 38.8333 88.1667 37 86 37C83.8333 37 82 38.8333 82 41C82 43.3333 83.8333 45 86 45Z" fill="#4ED3F2"/>
<path d="M95 25C96 25 97 24.1429 97 23C97 22 96.1429 21 95 21C94 21 93 21.8571 93 23C93.1429 24.1429 94 25 95 25Z" fill="#8DEFFF"/>
<path d="M74.6444 41.2324C74.6444 41.2324 76.139 43.7157 75.9895 48.2168C75.6906 54.5804 74.196 60.3232 70.4595 54.7356C66.7231 49.1481 70.9079 39.3698 74.6444 41.2324Z" fill="#F29425"/>
<path d="M212.404 10L241.297 47.1657C244.02 50.5167 243.414 55.5432 239.935 58.1326L239.784 58.2849C236.456 61.0266 231.464 60.4174 228.893 56.914L200 19.7484L212.404 10Z" fill="white"/>
<path d="M212.451 9.27537L198.983 19.7217C198.364 20.1826 197.59 20.029 197.28 19.5681C196.816 18.9536 196.971 18.1855 197.435 17.7246L210.903 7.27827C211.522 6.8174 212.296 6.97102 212.606 7.43189C213.225 8.04639 213.07 8.8145 212.451 9.27537Z" fill="white"/>
<path d="M212.732 28.0961C212.125 29.3153 211.063 30.0774 210 30.687L229.43 55.5286C231.556 58.2719 235.654 58.8815 238.387 56.5955L238.538 56.4431C241.271 54.3094 241.878 50.1945 239.601 47.4513L219.715 22C215.768 22.3048 213.947 25.6577 212.732 28.0961Z" fill="#72E244"/>
<g opacity="0.69">
<path opacity="0.69" d="M232.753 50.4735C234.734 50.0165 235.953 48.1883 235.495 46.2078C235.038 44.2273 233.21 43.0085 231.23 43.4656C229.249 43.9226 228.031 45.7508 228.488 47.7313C228.945 49.5594 230.925 50.7782 232.753 50.4735Z" fill="#A3FC7A"/>
<path opacity="0.69" d="M228.032 36.9147C228.489 37.5241 228.489 38.4381 227.727 38.8952C227.118 39.3522 226.204 39.3522 225.746 38.5905C225.289 37.9811 225.289 37.067 226.051 36.61C226.508 36.1529 227.422 36.3053 228.032 36.9147Z" fill="#A3FC7A"/>
<path opacity="0.69" d="M225.746 42.5518C226.203 43.1612 226.05 43.923 225.593 44.2276C224.984 44.6847 224.222 44.5323 223.918 44.0753C223.461 43.4659 223.613 42.7042 224.07 42.3995C224.527 41.9425 225.289 42.0948 225.746 42.5518Z" fill="#A3FC7A"/>
</g>
<path opacity="0.62" d="M117.185 57C115.816 66.4296 122.202 75.3877 131.478 76.8022C140.753 78.2166 146.227 72.716 149.877 63.915C150.637 62.1863 153.83 62.1863 154.438 63.915C157.936 72.8732 163.562 78.8452 172.837 77.9023C182.113 76.9593 188.955 68.4727 187.891 58.8859" fill="url(#paint1_linear_939_363)"/>
<path d="M116.826 55L188.327 56.6176C189.239 56.6176 190 57.3529 190 58.3824C190 59.2647 189.239 60 188.174 60L116.673 58.3824C115.761 58.3824 115 57.6471 115 56.6176C115 55.7353 115.913 55 116.826 55Z" fill="#37828E"/>
<path d="M151.07 67.1135L128.369 83.3081C127.771 83.7622 127.921 84.6703 128.667 84.8216L155.7 88C155.999 88 156.298 87.8486 156.447 87.6973C157.791 85.5784 160.629 72.8649 152.116 67.1135C151.967 66.9622 151.369 66.9622 151.07 67.1135Z" fill="#AC3763"/>
<defs>
<linearGradient id="paint0_linear_939_363" x1="175.556" y1="36.3169" x2="151.993" y2="165.506" gradientUnits="userSpaceOnUse">
<stop stop-color="#FFE380"/>
<stop offset="0.2327" stop-color="#FFD02B"/>
<stop offset="1" stop-color="#F0A209"/>
</linearGradient>
<linearGradient id="paint1_linear_939_363" x1="152.593" y1="57.8598" x2="152.593" y2="84.8046" gradientUnits="userSpaceOnUse">
<stop stop-color="#36F7F1"/>
<stop offset="0.5031" stop-color="#7DE4E1" stop-opacity="0.8152"/>
<stop offset="1" stop-color="white" stop-opacity="0.35"/>
</linearGradient>
</defs>
</svg>
