<svg width="206" height="306" viewBox="0 0 206 306" fill="none" xmlns="http://www.w3.org/2000/svg">
<path d="M198.347 288.22C174.381 293.423 94.5737 291.881 84.7476 288.22C74.9214 284.559 74.2024 268.181 93.615 278.2C84.7476 257.968 101.284 246.599 118.54 255.848C105.598 236.579 101.045 202.088 125.011 200.161C157.365 197.463 159.282 229.257 154.489 252.187C172.224 233.304 198.587 248.141 181.571 270.107C205.297 256.619 213.446 284.945 198.347 288.22Z" fill="#51B57E"/>
<path d="M151.374 289.569C151.374 289.569 165.753 278.585 172.704 257.775" stroke="#328756" stroke-width="3" stroke-miterlimit="10" stroke-linecap="round" stroke-linejoin="round"/>
<path d="M127.167 289.569C127.167 289.569 122.854 274.154 105.838 267.41" stroke="#328756" stroke-width="3" stroke-miterlimit="10" stroke-linecap="round" stroke-linejoin="round"/>
<path d="M144.663 289.569C144.663 289.569 143.465 250.26 130.283 219.237" stroke="#328756" stroke-width="3" stroke-miterlimit="10" stroke-linecap="round" stroke-linejoin="round"/>
<path d="M123.333 229.064C123.333 229.064 123.812 243.324 140.349 252.765" stroke="#328756" stroke-width="3" stroke-miterlimit="10" stroke-linecap="round" stroke-linejoin="round"/>
<path d="M144.663 225.981C144.663 225.981 149.456 236.772 138.192 243.709" stroke="#328756" stroke-width="3" stroke-miterlimit="10" stroke-linecap="round" stroke-linejoin="round"/>
<path d="M127.168 259.509C127.168 259.509 132.201 271.841 143.705 275.888" stroke="#328756" stroke-width="3" stroke-miterlimit="10" stroke-linecap="round" stroke-linejoin="round"/>
<path d="M56.1141 297.403H55.7585C51.4145 297.403 47.8599 293.861 47.8599 289.531V243.855C47.8599 239.525 51.4145 235.983 55.7585 235.983H56.1244C60.4685 235.983 64.0231 239.525 64.0231 243.855V289.531C64.0134 293.861 60.4588 297.403 56.1141 297.403Z" fill="#3E71AC"/>
<path d="M44.2112 273.439V292.265C44.2112 293.116 43.456 293.869 42.3679 294.084C39.1909 294.73 32.8561 296.598 31.1499 301.331C29.1887 306.758 56.6064 305.898 64.9117 305.516C66.2358 305.458 67.2554 304.626 67.2554 303.629V273.429C67.2554 272.383 66.1375 271.542 64.7546 271.542H46.7119C45.329 271.552 44.2112 272.393 44.2112 273.439Z" fill="#F77F73"/>
<path d="M90.6706 297.403H91.0365C95.3806 297.403 98.9352 293.861 98.9352 289.531V243.855C98.9352 239.525 95.3806 235.983 91.0365 235.983H90.6706C86.3266 235.983 82.772 239.525 82.772 243.855V289.531C82.772 293.861 86.3266 297.403 90.6706 297.403Z" fill="#3E71AC"/>
<path d="M101.941 273.88V291.908C101.941 292.955 102.853 293.874 104.176 294.168C107.461 294.891 113.362 296.789 114.999 301.328C116.911 306.63 90.7549 305.935 81.8244 305.544C80.1771 305.476 78.8931 304.439 78.8931 303.197V273.89C78.8931 272.589 80.285 271.542 82.0009 271.542H98.8236C100.549 271.532 101.941 272.579 101.941 273.88Z" fill="#F77F73"/>
<path d="M88.0995 99.7631C85.3976 97.4815 85.044 93.4 87.3139 90.6962L126.13 44.4962C128.409 41.7919 132.486 41.4379 135.188 43.7095C137.89 45.991 138.244 50.072 135.974 52.7763L97.158 98.9763C94.888 101.681 90.811 102.034 88.0995 99.7631Z" fill="#4E96EC"/>
<path d="M114.674 68.3728C114.37 64.8427 117.003 61.7153 120.53 61.4105L133.95 60.2501C137.477 59.9452 140.601 62.5807 140.906 66.1112C141.21 69.6413 138.577 72.7685 135.05 73.0737L121.63 74.2336C118.104 74.529 114.98 71.8931 114.674 68.3728Z" fill="#4E96EC"/>
<path d="M114.508 68.2345C118.034 67.93 120.668 64.793 120.363 61.2722L119.204 47.8391C118.9 44.3087 115.765 41.6733 112.248 41.9781C108.721 42.2829 106.089 45.42 106.393 48.9405L107.552 62.3736C107.857 65.9038 110.991 68.5397 114.508 68.2345Z" fill="#4E96EC"/>
<path d="M60.2381 99.7631C62.9393 97.4815 63.293 93.4 61.0237 90.6962L22.2077 44.4962C19.9284 41.7919 15.8513 41.4379 13.1496 43.7095C10.438 45.991 10.0942 50.0622 12.3636 52.7763L51.1796 98.9763C53.4593 101.69 57.5363 102.034 60.2381 99.7631Z" fill="#4E96EC"/>
<path d="M33.6722 68.3728C33.9767 64.8427 31.3438 61.7153 27.8168 61.4105L14.3967 60.2501C10.8697 59.9452 7.74554 62.5807 7.44096 66.1112C7.13645 69.6413 9.76937 72.7685 13.2963 73.0737L26.7165 74.2336C30.2336 74.5387 33.3676 71.9035 33.6722 68.3728Z" fill="#4E96EC"/>
<path d="M33.8295 68.2345C30.3026 67.93 27.6696 64.793 27.9742 61.2722L29.1335 47.8391C29.438 44.3087 32.572 41.6733 36.0891 41.9781C39.6161 42.2829 42.2488 45.42 41.9443 48.9405L40.7851 62.3736C40.4805 65.9038 37.3565 68.5397 33.8295 68.2345Z" fill="#4E96EC"/>
<path d="M97.3196 91.1601C99.2837 91.1601 100.875 87.976 100.875 84.0483C100.875 80.1207 99.2837 76.9365 97.3196 76.9365C95.3554 76.9365 93.7637 80.1207 93.7637 84.0483C93.7637 87.976 95.3554 91.1601 97.3196 91.1601Z" fill="#84EFDD"/>
<path d="M54.6487 91.1606C56.6128 91.1606 58.2046 88.1213 58.2046 84.372C58.2046 80.6228 56.6128 77.5835 54.6487 77.5835C52.6845 77.5835 51.0928 80.6228 51.0928 84.372C51.0928 88.1213 52.6845 91.1606 54.6487 91.1606Z" fill="#84EFDD"/>
<path fill-rule="evenodd" clip-rule="evenodd" d="M129.997 157.139C129.882 156.402 129.763 155.663 129.642 154.923C129.426 153.603 129.211 152.288 128.997 150.978C120.527 99.0845 113.32 54.9297 74.3754 54.9297C34.4477 54.9297 27.4071 98.7256 19.1094 152.878C18.7641 155.132 18.4459 157.373 18.1575 159.599C16.168 169.678 8.34459 207.856 1.63829 220.267C-3.18546 229.194 2.36563 253.207 21.9906 246.712C41.6158 240.216 53.967 250.182 57.9639 254.016C61.9607 257.85 68.8676 259.239 74.3191 259.239C79.7706 259.239 86.6775 257.85 90.6743 254.016C94.6712 250.182 107.03 240.225 126.648 246.712C146.265 253.198 151.95 232.104 147 220.267C142.049 208.43 130.002 157.139 130.002 157.139H129.997Z" fill="url(#paint0_linear_939_362)"/>
<path d="M74.6907 135.771C92.7226 135.771 107.34 120.14 107.34 100.858C107.34 81.5767 92.7226 65.9458 74.6907 65.9458C56.6588 65.9458 42.041 81.5767 42.041 100.858C42.041 120.14 56.6588 135.771 74.6907 135.771Z" fill="#C2E7F7"/>
<path d="M32.7012 137.933L34.719 190.963C34.719 190.963 34.5949 192.818 36.3935 193.291C38.1919 193.764 34.2636 140.349 34.2636 140.349L32.7012 137.933Z" fill="#D24D4D"/>
<path d="M34.2692 140.347C34.1719 143.018 36.399 193.289 36.399 193.289L76.1849 189.07L77.2348 138.202L34.2692 140.347Z" fill="#D24D4D"/>
<path d="M32.7004 137.933C32.8878 146.109 34.6471 189.257 34.6471 189.257L74.4331 185.039L75.4481 134.066L33.9084 136.299C32.9519 136.384 32.6909 137.265 32.7004 137.933Z" fill="#D24D4D"/>
<path d="M34.6981 140.379C34.6981 140.379 33.3727 140.651 33.2167 138.535C33.0954 136.872 34.2121 136.94 34.2121 136.94L74.0999 134.888L75.9671 138.281L34.6981 140.379Z" fill="#F3E2E2"/>
<path d="M58.5954 102.504C60.984 102.504 62.9203 98.9536 62.9203 94.5745C62.9203 90.1955 60.984 86.6455 58.5954 86.6455C56.2068 86.6455 54.2705 90.1955 54.2705 94.5745C54.2705 98.9536 56.2068 102.504 58.5954 102.504Z" fill="#000442"/>
<path d="M91.0324 102.504C93.421 102.504 95.3573 98.9536 95.3573 94.5745C95.3573 90.1955 93.421 86.6455 91.0324 86.6455C88.6438 86.6455 86.7075 90.1955 86.7075 94.5745C86.7075 98.9536 88.6438 102.504 91.0324 102.504Z" fill="#000442"/>
<path d="M70.3111 119.013C71.224 122.146 74.4055 124.222 76.4971 123.613C78.5886 123.004 79.7181 117.888 78.8019 114.735C77.8884 111.602 77.3893 111.029 75.2977 111.638C73.2062 112.246 69.3949 115.86 70.3111 119.013Z" fill="#162947"/>
<path opacity="0.36" d="M116.072 223.03C116.465 226.389 121.083 229.019 121.083 229.019C121.083 229.019 128.741 231.142 130.702 224.726C132.664 218.311 124.676 214.511 123.57 214.763C122.472 215.036 115.444 217.691 116.072 223.03Z" fill="#BADAFF"/>
<path opacity="0.36" d="M87.8797 225.006C88.3898 229.379 94.4077 232.815 94.4077 232.815C94.4077 232.815 104.384 235.575 106.945 227.225C109.507 218.877 99.0943 213.916 97.6513 214.25C96.2082 214.584 87.0586 218.051 87.8797 225.006Z" fill="#BADAFF"/>
<path opacity="0.36" d="M70.3434 231.15C70.5606 233.032 73.1564 234.52 73.1564 234.52C73.1564 234.52 77.4597 235.709 78.5666 232.105C79.6734 228.502 75.1833 226.366 74.5607 226.511C73.9374 226.655 69.9923 228.146 70.3434 231.15Z" fill="#357ED2"/>
<path opacity="0.36" d="M118.077 205.865C118.278 207.599 120.669 208.964 120.669 208.964C120.669 208.964 124.64 210.058 125.652 206.748C126.675 203.428 122.535 201.456 121.961 201.592C121.398 201.728 117.76 203.097 118.077 205.865Z" fill="#357ED2"/>
<path opacity="0.36" d="M84.1037 238.841C84.2039 239.708 85.4 240.391 85.4 240.391C85.4 240.391 87.3855 240.943 87.8917 239.283C88.3979 237.623 86.3329 236.637 86.0459 236.7C85.7595 236.773 83.9356 237.462 84.1037 238.841Z" fill="#BADAFF"/>
<path opacity="0.36" d="M109.587 217.856C109.688 218.722 110.884 219.405 110.884 219.405C110.884 219.405 112.869 219.957 113.375 218.297C113.882 216.637 111.817 215.651 111.53 215.714C111.253 215.777 109.43 216.467 109.587 217.856Z" fill="#83E9FF"/>
<path d="M69.6156 26.7764C69.1617 26.0954 68.9723 25.1462 69.0479 23.9493C69.143 22.1334 69.5399 20.6477 70.2207 19.4714C70.9022 18.2952 71.8099 17.0983 72.964 15.9015C73.7967 14.9935 74.4212 14.1888 74.8563 13.5284C75.2915 12.8474 75.5184 12.1046 75.5753 11.2379C75.6315 10.3712 75.3858 9.69023 74.8751 9.15368C74.3643 8.61719 73.6267 8.30763 72.6801 8.24569C71.9049 8.18382 71.1291 8.30763 70.3533 8.57587C69.5781 8.84412 68.6885 9.27749 67.7051 9.81404L66.456 10.4331C65.2644 11.0934 64.3186 11.4029 63.5996 11.3411C62.7482 11.2791 62.0674 10.8251 61.5185 9.95847C60.9696 9.0918 60.7426 8.06001 60.7995 6.84253C60.8377 6.03773 61.0077 5.35675 61.2915 4.84085C61.5754 4.32496 62.0105 3.82971 62.6156 3.35509C64.2048 2.17887 65.9834 1.29154 67.9695 0.713748C69.9563 0.135952 71.9237 -0.0910373 73.8723 0.0327728C76.0666 0.17722 77.9965 0.755016 79.6801 1.74552C81.3643 2.73603 82.6315 4.01543 83.5205 5.60437C84.4101 7.19327 84.8071 8.9473 84.6939 10.8871C84.6183 12.3109 84.2775 13.611 83.6911 14.7666C83.1047 15.9221 82.4046 16.9127 81.61 17.7174C80.8154 18.5222 79.7939 19.4714 78.5454 20.6064C77.372 21.5763 76.4643 22.4017 75.8397 23.1239C75.2158 23.8462 74.7807 24.5891 74.5725 25.3938C74.3831 26.2399 74.0236 26.859 73.4747 27.2923C72.9265 27.7257 72.3019 27.9114 71.583 27.8701C70.7321 27.8495 70.0695 27.4574 69.6156 26.7764ZM67.5538 39.9006C66.6836 38.745 66.3047 37.3831 66.3804 35.8148C66.4754 34.2258 67.0049 32.9258 68.0077 31.9147C68.991 30.9035 70.1832 30.4289 71.5642 30.5321C72.9833 30.6353 74.118 31.2543 74.9882 32.3893C75.8585 33.5242 76.2373 34.9068 76.1617 36.4751C76.0666 38.0641 75.5371 39.3641 74.5344 40.3752C73.551 41.3864 72.3401 41.861 70.9209 41.7578C69.5399 41.6546 68.4046 41.0356 67.5538 39.9006Z" fill="#6DD95D"/>
<g style="mix-blend-mode:color-burn">
<g style="mix-blend-mode:color-burn">
<path d="M109.648 179.735C99.5869 179.735 97.0719 174.597 92.8798 153.729C90.7269 146.023 86.5264 132.801 105.133 150.618C110.938 156.176 112.666 157.19 114.129 153.729C116.392 148.378 117.039 144.822 118.008 142.236C120.974 134.328 128.03 131.896 128.03 147.307C128.03 167.858 122.225 179.735 109.648 179.735Z" fill="#3A83DA" fill-opacity="0.23"/>
</g>
</g>
<g style="mix-blend-mode:color-burn">
<g style="mix-blend-mode:color-burn">
<path fill-rule="evenodd" clip-rule="evenodd" d="M29.831 142.969C9.13392 134.842 18.1952 206.789 41.5317 203.076C64.8675 199.363 70.2266 180.703 69.2749 174.717C68.5023 169.857 60.7407 168.352 55.3596 173.659C55.4262 173.3 55.5064 172.954 55.5814 172.632C55.9409 171.082 56.1736 170.077 54.1868 170.664C50.7499 171.679 50.8482 176.299 51.7022 179.387C46.9328 189.068 38.0495 187.492 34.7741 169.546C33.8241 164.34 33.6407 159.532 33.4855 155.463C33.2346 148.883 33.0573 144.236 29.831 142.969Z" fill="#4891E6" fill-opacity="0.2"/>
</g>
</g>
<path d="M42.8662 116.829L32.2231 121.515L65.7013 197.551L76.3444 192.865L42.8662 116.829Z" fill="#FFFEFE"/>
<path d="M43.4274 119.708L40.2808 121.094" stroke="#ACACAC"/>
<path d="M48.6375 131.542L45.4902 132.928" stroke="#ACACAC"/>
<path d="M53.8485 143.378L50.7012 144.763" stroke="#ACACAC"/>
<path d="M59.0583 155.211L55.9116 156.596" stroke="#ACACAC"/>
<path d="M64.2697 167.045L61.123 168.431" stroke="#ACACAC"/>
<path d="M69.4806 178.88L66.334 180.265" stroke="#ACACAC"/>
<path d="M74.6908 190.714L71.5435 192.1" stroke="#ACACAC"/>
<path d="M47.7449 129.515L45.3786 130.557M44.6189 122.414L42.252 123.456L44.6189 122.414ZM45.4148 124.222L43.0478 125.264L45.4148 124.222ZM46.1912 125.986L43.825 127.028L46.1912 125.986ZM46.9684 127.751L44.6014 128.793L46.9684 127.751Z" stroke="#ACACAC"/>
<path d="M52.9555 141.349L50.5885 142.391M49.8289 134.249L47.4619 135.291L49.8289 134.249ZM50.6247 136.056L48.2578 137.098L50.6247 136.056ZM51.4019 137.82L49.0349 138.863L51.4019 137.82ZM52.1783 139.585L49.8114 140.627L52.1783 139.585Z" stroke="#ACACAC"/>
<path d="M57.9055 152.592L55.5386 153.634M54.7795 145.492L52.4126 146.534L54.7795 145.492ZM55.5748 147.299L53.2085 148.341L55.5748 147.299ZM56.3519 149.063L53.985 150.105L56.3519 149.063ZM57.129 150.827L54.7621 151.87L57.129 150.827Z" stroke="#ACACAC"/>
<path d="M63.3757 165.018L61.0088 166.06M60.2497 157.917L57.8828 158.959L60.2497 157.917ZM61.0456 159.725L58.6787 160.767L61.0456 159.725ZM61.8221 161.489L59.4552 162.531L61.8221 161.489ZM62.5992 163.253L60.2323 164.296L62.5992 163.253Z" stroke="#ACACAC"/>
<path d="M68.3266 176.26L65.9596 177.302M65.2 169.159L62.833 170.201L65.2 169.159ZM65.9958 170.967L63.6289 172.009L65.9958 170.967ZM66.773 172.731L64.406 173.773L66.773 172.731ZM67.5494 174.496L65.1825 175.538L67.5494 174.496Z" stroke="#ACACAC"/>
<path d="M73.7987 188.687L71.4318 189.729M70.6721 181.586L68.3052 182.628L70.6721 181.586ZM71.468 183.394L69.1011 184.436L71.468 183.394ZM72.2451 185.158L69.8782 186.2L72.2451 185.158ZM73.0216 186.922L70.6547 187.965L73.0216 186.922Z" stroke="#ACACAC"/>
<path fill-rule="evenodd" clip-rule="evenodd" d="M30.6444 125.072C9.02474 114.23 15.2703 200.963 40.2531 197.75C65.2356 194.538 71.8108 172.453 71.0808 165.225C70.4886 159.358 62.3087 157.142 56.3381 163.22C56.426 162.792 56.5275 162.382 56.6219 162C57.077 160.16 57.3725 158.967 55.2325 159.566C51.5311 160.6 51.418 166.144 52.1802 169.891C46.6544 181.243 37.2855 178.883 34.6481 157.195C33.8832 150.904 33.9146 145.13 33.9412 140.244C33.9842 132.342 34.0145 126.762 30.6444 125.072Z" fill="url(#paint1_linear_939_362)"/>
<path fill-rule="evenodd" clip-rule="evenodd" d="M98.9011 135.647C95.6433 129.258 88.5321 116.133 84.8935 115.696C82.0242 115.354 82.2634 119.73 83.464 122.202C84.3594 124.055 84.9762 125.839 83.6812 127.402C80.7925 130.9 79.0366 135.13 81.9789 140.175C83.0269 141.971 84.9213 142.993 86.7167 143.961C88.0834 144.698 89.3927 145.403 90.2267 146.397C90.2532 146.507 90.2816 146.615 90.3114 146.722C94.9968 170.149 97.8085 175.915 109.053 175.915C123.109 175.915 129.596 162.583 129.596 139.514C129.596 122.214 116.261 123.906 116.261 133.387V146.722C116.261 153.285 112.125 167.5 104.368 146.722C102.39 141.424 100.555 137.871 98.9011 135.647Z" fill="url(#paint2_linear_939_362)"/>
<defs>
<linearGradient id="paint0_linear_939_362" x1="74.3669" y1="25.8613" x2="74.3443" y2="259.239" gradientUnits="userSpaceOnUse">
<stop stop-color="#96D2F4"/>
<stop offset="0.315625" stop-color="#65ACFF"/>
<stop offset="1" stop-color="#5391D9"/>
</linearGradient>
<linearGradient id="paint1_linear_939_362" x1="31.373" y1="138.033" x2="62.9844" y2="142.701" gradientUnits="userSpaceOnUse">
<stop stop-color="#63A8FA"/>
<stop offset="1" stop-color="#4296F9"/>
</linearGradient>
<linearGradient id="paint2_linear_939_362" x1="122.857" y1="125.103" x2="71.1547" y2="139.061" gradientUnits="userSpaceOnUse">
<stop stop-color="#63A9FA"/>
<stop offset="0.69995" stop-color="#4296F9"/>
</linearGradient>
</defs>
</svg>
