<svg width="317" height="359" viewBox="0 0 317 359" fill="none" xmlns="http://www.w3.org/2000/svg">
<path d="M35.6599 196.231C35.6599 196.231 0.811638 93.8589 10.0588 55.4655C10.0588 55.4655 -12.7464 21.4898 10.3198 19.1798C33.388 16.8633 32.307 28.4311 30.513 35.7422C28.7171 43.0599 27.8175 44.7564 30.2171 46.9737C32.6166 49.191 35.3031 40.4944 38.0886 41.0357C44.5004 42.284 41.5737 53.2528 27.9859 59.0637C27.9859 59.0637 25.8849 89.006 67.6392 159.249L35.6599 196.231Z" fill="#8E6BC4"/>
<path d="M210.887 295.771C211.276 300.085 211.528 312.215 205.738 333.465C205.039 336.043 206.632 338.666 209.229 339.281C214.482 340.518 222.61 343.303 226.709 349.229C228.879 352.37 226.677 356.657 222.856 356.657H179.988C177.384 356.657 175.279 354.546 175.279 351.949V308.044C175.279 307.261 175.474 306.49 175.843 305.804L188.951 281.549C190.428 278.822 194.087 278.239 196.334 280.37L209.43 292.805C210.265 293.589 210.784 294.645 210.887 295.771Z" fill="#6F50A0"/>
<path d="M122.256 297.157C121.861 301.445 121.589 313.614 127.425 334.993C128.111 337.512 126.557 340.09 124.012 340.686C118.668 341.929 110.242 344.799 106.201 350.997C104.213 354.041 106.46 358.082 110.1 358.082H153.247C155.792 358.082 157.858 356.016 157.858 353.471V309.443C157.858 308.679 157.67 307.921 157.301 307.248L144.121 282.857C142.677 280.189 139.089 279.612 136.887 281.704L123.675 294.249C122.872 295.02 122.36 296.05 122.256 297.157Z" fill="#6F50A0"/>
<path d="M283.805 147.681C283.805 147.681 328.975 244.977 313.877 284.026C313.877 284.026 323.336 319.503 296.455 317.266C272.301 315.253 284.855 312.012 287.77 304.571C290.685 297.13 291.93 295.388 289.37 293.223C286.819 291.056 286.762 301.456 282.226 300.691C279.054 300.155 276.798 287.233 293.329 280.946C293.329 280.946 322.207 278.901 252.519 185.748L283.805 147.681Z" fill="#7B59AF"/>
<path fill-rule="evenodd" clip-rule="evenodd" d="M109.673 51.8599C127.424 39.3163 146.328 32.3252 164.227 32.3252C178.574 32.3252 196.985 39.2818 215.464 52.225C218.12 41.8344 222.371 35.1036 227.162 35.1036C234.91 35.1036 241.246 52.7056 241.707 74.922C264.107 98.4007 283.516 130.797 291.731 170.12C308.596 250.85 305.027 319.54 164.104 319.54C28.0255 319.54 19.8328 248.266 36.4904 170.12C44.577 132.173 62.0008 99.4337 83.5153 75.3993C83.8954 52.9583 90.2664 35.1036 98.0693 35.1036C102.804 35.1036 107.011 41.677 109.673 51.8599Z" fill="url(#paint0_linear_597_2938)"/>
<path d="M179 129.171C165.409 130.252 165.409 130.252 155.906 126.524C146.078 122.662 145.861 149.105 161.781 150.914C181.572 153.157 185.552 128.631 179 129.171Z" fill="#000442"/>
<mask id="mask0_597_2938" style="mask-type:alpha" maskUnits="userSpaceOnUse" x="149" y="126" width="33" height="26">
<path d="M179 129.171C165.409 130.252 165.409 130.252 155.906 126.524C146.078 122.662 145.861 149.105 161.781 150.914C181.572 153.157 185.552 128.631 179 129.171Z" fill="#000442"/>
</mask>
<g mask="url(#mask0_597_2938)">
<path d="M149.353 141.758C149.353 141.758 159.236 138.463 165.517 143.595C171.797 148.727 171.906 153.994 166.248 155.129C160.589 156.263 148.433 150.672 149.353 141.758Z" fill="#EFA0B7"/>
</g>
<mask id="mask1_597_2938" style="mask-type:alpha" maskUnits="userSpaceOnUse" x="149" y="126" width="33" height="26">
<path d="M179 129.171C165.409 130.252 165.409 130.252 155.906 126.524C146.078 122.662 145.861 149.105 161.781 150.914C181.572 153.157 185.552 128.631 179 129.171Z" fill="#000442"/>
</mask>
<g mask="url(#mask1_597_2938)">
<path d="M157.111 130.787C156.224 130.318 156.153 128.71 156.953 127.194C157.753 125.679 159.12 124.83 160.008 125.298C160.895 125.766 160.966 127.374 160.166 128.89C159.366 130.406 157.999 131.255 157.111 130.787Z" fill="#FCFCFC"/>
<path d="M174.551 132.443C173.573 132.695 172.459 131.654 172.063 130.118C171.667 128.581 172.139 127.131 173.116 126.879C174.094 126.627 175.208 127.668 175.604 129.205C176 130.741 175.528 132.191 174.551 132.443Z" fill="#FCFCFC"/>
</g>
<path d="M151.432 121.06C148.084 121.06 145.37 118.346 145.37 114.998C145.37 111.65 148.084 108.936 151.432 108.936C154.78 108.936 157.494 111.65 157.494 114.998C157.494 118.346 154.78 121.06 151.432 121.06Z" fill="#000442"/>
<path d="M182.027 120.95C178.74 120.95 176.075 118.286 176.075 114.998C176.075 111.711 178.74 109.046 182.027 109.046C185.314 109.046 187.979 111.711 187.979 114.998C187.979 118.286 185.314 120.95 182.027 120.95Z" fill="#000442"/>
<path opacity="0.19" d="M165.312 306.471C119.885 306.471 83.0599 277.184 83.0599 241.058C83.0599 204.931 119.885 175.645 165.312 175.645C210.738 175.645 247.564 204.931 247.564 241.058C247.564 277.184 210.738 306.471 165.312 306.471Z" fill="#F1F2F2"/>
<path opacity="0.47" d="M211.676 49.9416C212.363 48.9248 219.921 67.0461 194.274 61.8714C168.627 56.6966 140.7 48.7046 140.7 48.7046L211.676 49.9416Z" fill="#694B97"/>
<path d="M145.529 19.0531C140.303 19.0531 136.068 14.8171 136.068 9.59175C136.068 4.36635 140.303 0.130371 145.529 0.130371C150.754 0.130371 154.99 4.36635 154.99 9.59175C154.99 14.8171 150.754 19.0531 145.529 19.0531Z" fill="#FFAC0B"/>
<path d="M191.539 51.6567C193.103 29.8866 178.058 8.99155 157.771 9.60702C132.932 10.3559 119.904 24.6221 118.339 46.3921" fill="#FDCE1B"/>
<path d="M118.25 46.3771C118.25 46.3771 153.782 46.6217 165.609 41.5648C177.436 36.5079 200.688 23.0944 210.935 36.4263C221.183 49.7582 206.798 53.3396 201.726 53.7103C180.809 55.2304 118.25 46.3771 118.25 46.3771Z" fill="#B06A42"/>
<mask id="mask2_597_2938" style="mask-type:alpha" maskUnits="userSpaceOnUse" x="30" y="32" width="269" height="288">
<path fill-rule="evenodd" clip-rule="evenodd" d="M109.715 52.0182C127.454 39.493 146.342 32.5127 164.228 32.5127C178.563 32.5127 196.958 39.4591 215.424 52.3841C218.077 41.903 222.347 35.1033 227.163 35.1033C234.933 35.1033 241.282 52.8067 241.712 75.1134C264.109 98.5915 283.517 130.987 291.731 170.308C308.596 251.038 305.028 319.728 164.105 319.728C28.026 319.728 19.8333 248.453 36.4909 170.308C44.5775 132.363 62 99.6239 83.5125 75.5908C83.8603 53.0596 90.2449 35.1034 98.0698 35.1034C102.829 35.1034 107.055 41.7451 109.715 52.0182Z" fill="url(#paint1_linear_597_2938)"/>
</mask>
<g mask="url(#mask2_597_2938)">
<path d="M148.004 319.748C52.151 306.945 34.1242 233.718 30.7784 206.084C22.6827 209.647 6.1028 217.872 4.54843 222.276C2.99406 226.68 12.9679 273.98 18.1492 297.08C68.8818 313.595 204.215 327.256 148.004 319.748Z" fill="#7A59AD"/>
</g>
<defs>
<linearGradient id="paint0_linear_597_2938" x1="164.461" y1="32.3252" x2="245.944" y2="304.851" gradientUnits="userSpaceOnUse">
<stop stop-color="#A585D7"/>
<stop offset="0.414583" stop-color="#8F6BC6"/>
<stop offset="1" stop-color="#7A56B1"/>
</linearGradient>
<linearGradient id="paint1_linear_597_2938" x1="164.461" y1="32.3249" x2="164.461" y2="319.54" gradientUnits="userSpaceOnUse">
<stop stop-color="#A08667"/>
<stop offset="1" stop-color="#81694D"/>
</linearGradient>
</defs>
</svg>
