<svg width="149" height="307" viewBox="0 0 149 307" fill="none" xmlns="http://www.w3.org/2000/svg">
<path d="M56.1136 298.064H55.758C51.414 298.064 47.8594 294.522 47.8594 290.192V244.516C47.8594 240.186 51.414 236.644 55.758 236.644H56.1239C60.468 236.644 64.0226 240.186 64.0226 244.516V290.192C64.0129 294.522 60.4583 298.064 56.1136 298.064Z" fill="#3E71AC"/>
<path d="M44.2112 274.1V292.926C44.2112 293.777 43.456 294.53 42.3679 294.745C39.1909 295.391 32.8561 297.259 31.1499 301.992C29.1887 307.42 56.6064 306.559 64.9117 306.178C66.2358 306.119 67.2554 305.287 67.2554 304.29V274.09C67.2554 273.044 66.1375 272.203 64.7546 272.203H46.7119C45.329 272.213 44.2112 273.054 44.2112 274.1Z" fill="#F77F73"/>
<path d="M90.6701 298.064H91.0361C95.3801 298.064 98.9347 294.522 98.9347 290.192V244.516C98.9347 240.186 95.3801 236.644 91.0361 236.644H90.6701C86.3261 236.644 82.7715 240.186 82.7715 244.516V290.192C82.7715 294.522 86.3261 298.064 90.6701 298.064Z" fill="#3E71AC"/>
<path d="M101.941 274.541V292.569C101.941 293.616 102.852 294.536 104.176 294.829C107.46 295.553 113.362 297.45 114.999 301.989C116.91 307.291 90.7544 306.597 81.8239 306.205C80.1766 306.137 78.8926 305.1 78.8926 303.858V274.551C78.8926 273.25 80.2846 272.203 82.0004 272.203H98.8231C100.548 272.193 101.941 273.24 101.941 274.541Z" fill="#F77F73"/>
<path d="M88.1 100.424C85.3981 98.1426 85.0445 94.0611 87.3144 91.3573L126.13 45.1573C128.41 42.453 132.487 42.099 135.189 44.3706C137.89 46.6521 138.244 50.7332 135.974 53.4375L97.1585 99.6374C94.8885 102.342 90.8115 102.695 88.1 100.424Z" fill="#4E96EC"/>
<path d="M114.674 69.0339C114.37 65.5039 117.003 62.3764 120.53 62.0716L133.95 60.9112C137.477 60.6064 140.601 63.2418 140.906 66.7724C141.21 70.3024 138.577 73.4297 135.05 73.7348L121.63 74.8947C118.104 75.1902 114.98 72.5543 114.674 69.0339Z" fill="#4E96EC"/>
<path d="M114.508 68.8956C118.034 68.5911 120.668 65.4542 120.363 61.9334L119.204 48.5002C118.9 44.9698 115.765 42.3344 112.248 42.6392C108.721 42.9441 106.089 46.0811 106.393 49.6016L107.552 63.0347C107.857 66.5649 110.991 69.2008 114.508 68.8956Z" fill="#4E96EC"/>
<path d="M60.2376 100.424C62.9388 98.1426 63.2925 94.0611 61.0232 91.3573L22.2072 45.1573C19.9279 42.453 15.8508 42.099 13.1491 44.3706C10.4375 46.6521 10.0937 50.7234 12.3631 53.4375L51.1791 99.6374C53.4588 102.352 57.5358 102.695 60.2376 100.424Z" fill="#4E96EC"/>
<path d="M33.6722 69.0339C33.9767 65.5039 31.3438 62.3764 27.8168 62.0716L14.3967 60.9112C10.8697 60.6064 7.74554 63.2418 7.44096 66.7724C7.13645 70.3024 9.76937 73.4297 13.2963 73.7348L26.7165 74.8947C30.2336 75.1999 33.3676 72.5646 33.6722 69.0339Z" fill="#4E96EC"/>
<path d="M33.8295 68.8956C30.3026 68.5911 27.6696 65.4542 27.9742 61.9334L29.1335 48.5002C29.438 44.9698 32.572 42.3344 36.0891 42.6392C39.6161 42.9441 42.2488 46.0811 41.9443 49.6016L40.7851 63.0347C40.4805 66.5649 37.3565 69.2008 33.8295 68.8956Z" fill="#4E96EC"/>
<path d="M97.3196 91.8213C99.2837 91.8213 100.875 88.6371 100.875 84.7095C100.875 80.7818 99.2837 77.5977 97.3196 77.5977C95.3554 77.5977 93.7637 80.7818 93.7637 84.7095C93.7637 88.6371 95.3554 91.8213 97.3196 91.8213Z" fill="#84EFDD"/>
<path d="M54.6487 91.8217C56.6128 91.8217 58.2046 88.7824 58.2046 85.0332C58.2046 81.284 56.6128 78.2446 54.6487 78.2446C52.6845 78.2446 51.0928 81.284 51.0928 85.0332C51.0928 88.7824 52.6845 91.8217 54.6487 91.8217Z" fill="#84EFDD"/>
<path fill-rule="evenodd" clip-rule="evenodd" d="M129.997 157.8C129.882 157.063 129.763 156.324 129.642 155.584C129.426 154.264 129.211 152.949 128.997 151.639C120.527 99.7456 113.32 55.5908 74.3754 55.5908C34.4477 55.5908 27.4071 99.3868 19.1094 153.539C18.7641 155.793 18.4459 158.035 18.1575 160.261C16.168 170.339 8.34459 208.517 1.63829 220.928C-3.18546 229.855 2.36563 253.868 21.9906 247.373C41.6158 240.878 53.967 250.843 57.9639 254.677C61.9607 258.511 68.8676 259.9 74.3191 259.9C79.7706 259.9 86.6775 258.511 90.6743 254.677C94.6712 250.843 107.03 240.887 126.648 247.373C146.265 253.859 151.95 232.765 147 220.928C142.049 209.092 130.002 157.8 130.002 157.8H129.997Z" fill="url(#paint0_linear_597_2966)"/>
<path d="M74.6907 136.432C92.7226 136.432 107.34 120.801 107.34 101.519C107.34 82.2378 92.7226 66.6069 74.6907 66.6069C56.6588 66.6069 42.041 82.2378 42.041 101.519C42.041 120.801 56.6588 136.432 74.6907 136.432Z" fill="#C2E7F7"/>
<path d="M32.7012 138.594L34.719 191.625C34.719 191.625 34.5949 193.479 36.3935 193.952C38.1919 194.425 34.2636 141.01 34.2636 141.01L32.7012 138.594Z" fill="#D24D4D"/>
<path d="M34.2687 141.008C34.1714 143.679 36.3985 193.95 36.3985 193.95L76.1844 189.732L77.2343 138.863L34.2687 141.008Z" fill="#D24D4D"/>
<path d="M32.7004 138.594C32.8878 146.771 34.6471 189.919 34.6471 189.919L74.4331 185.701L75.4481 134.727L33.9084 136.96C32.9519 137.045 32.6909 137.926 32.7004 138.594Z" fill="#D24D4D"/>
<path d="M34.6986 141.04C34.6986 141.04 33.3732 141.312 33.2172 139.196C33.0959 137.534 34.2126 137.601 34.2126 137.601L74.1004 135.549L75.9676 138.942L34.6986 141.04Z" fill="#F3E2E2"/>
<path d="M58.5954 103.165C60.984 103.165 62.9203 99.6147 62.9203 95.2357C62.9203 90.8566 60.984 87.3066 58.5954 87.3066C56.2068 87.3066 54.2705 90.8566 54.2705 95.2357C54.2705 99.6147 56.2068 103.165 58.5954 103.165Z" fill="#000442"/>
<path d="M91.0319 103.165C93.4205 103.165 95.3569 99.6147 95.3569 95.2357C95.3569 90.8566 93.4205 87.3066 91.0319 87.3066C88.6434 87.3066 86.707 90.8566 86.707 95.2357C86.707 99.6147 88.6434 103.165 91.0319 103.165Z" fill="#000442"/>
<path d="M70.3106 119.675C71.2235 122.807 74.405 124.884 76.4966 124.275C78.5881 123.666 79.7176 118.55 78.8014 115.396C77.8879 112.263 77.3888 111.69 75.2973 112.299C73.2057 112.907 69.3945 116.521 70.3106 119.675Z" fill="#162947"/>
<path opacity="0.36" d="M116.072 223.692C116.465 227.05 121.083 229.68 121.083 229.68C121.083 229.68 128.741 231.803 130.702 225.387C132.664 218.972 124.676 215.172 123.57 215.424C122.472 215.697 115.444 218.353 116.072 223.692Z" fill="#BADAFF"/>
<path opacity="0.36" d="M87.8801 225.667C88.3903 230.04 94.4081 233.476 94.4081 233.476C94.4081 233.476 104.384 236.236 106.946 227.887C109.507 219.538 99.0948 214.577 97.6518 214.911C96.2087 215.245 87.0591 218.712 87.8801 225.667Z" fill="#BADAFF"/>
<path opacity="0.36" d="M70.3434 231.811C70.5606 233.693 73.1564 235.181 73.1564 235.181C73.1564 235.181 77.4597 236.37 78.5666 232.766C79.6734 229.163 75.1833 227.027 74.5607 227.172C73.9374 227.316 69.9923 228.807 70.3434 231.811Z" fill="#357ED2"/>
<path opacity="0.36" d="M118.077 206.526C118.278 208.26 120.669 209.626 120.669 209.626C120.669 209.626 124.64 210.719 125.652 207.409C126.675 204.089 122.535 202.117 121.961 202.253C121.398 202.389 117.76 203.758 118.077 206.526Z" fill="#357ED2"/>
<path opacity="0.36" d="M84.1037 239.503C84.2039 240.37 85.4 241.052 85.4 241.052C85.4 241.052 87.3855 241.604 87.8917 239.944C88.3979 238.284 86.3329 237.299 86.0459 237.361C85.7595 237.434 83.9356 238.123 84.1037 239.503Z" fill="#BADAFF"/>
<path opacity="0.36" d="M109.587 218.517C109.687 219.383 110.883 220.067 110.883 220.067C110.883 220.067 112.869 220.618 113.375 218.958C113.881 217.298 111.816 216.312 111.53 216.375C111.253 216.438 109.429 217.128 109.587 218.517Z" fill="#83E9FF"/>
<path d="M69.6156 27.4375C69.1617 26.7566 68.9723 25.8073 69.0479 24.6105C69.143 22.7946 69.5399 21.3088 70.2207 20.1326C70.9022 18.9563 71.8099 17.7595 72.964 16.5626C73.7967 15.6546 74.4212 14.8499 74.8563 14.1895C75.2915 13.5086 75.5184 12.7657 75.5753 11.899C75.6315 11.0323 75.3858 10.3514 74.8751 9.81481C74.3643 9.27832 73.6267 8.96876 72.6801 8.90683C71.9049 8.84495 71.1291 8.96876 70.3533 9.23701C69.5781 9.50525 68.6885 9.93862 67.7051 10.4752L66.456 11.0942C65.2644 11.7545 64.3186 12.0641 63.5996 12.0022C62.7482 11.9403 62.0674 11.4863 61.5185 10.6196C60.9696 9.75294 60.7426 8.72114 60.7995 7.50366C60.8377 6.69887 61.0077 6.01788 61.2915 5.50199C61.5754 4.9861 62.0105 4.49084 62.6156 4.01623C64.2048 2.84 65.9834 1.95268 67.9695 1.37488C69.9563 0.797085 71.9237 0.570096 73.8723 0.693906C76.0666 0.838353 77.9965 1.41615 79.6801 2.40666C81.3643 3.39716 82.6315 4.67656 83.5205 6.2655C84.4101 7.85441 84.8071 9.60844 84.6939 11.5482C84.6183 12.9721 84.2775 14.2721 83.6911 15.4277C83.1047 16.5832 82.4046 17.5738 81.61 18.3785C80.8154 19.1833 79.7939 20.1326 78.5454 21.2675C77.372 22.2374 76.4643 23.0628 75.8397 23.7851C75.2158 24.5073 74.7807 25.2502 74.5725 26.0549C74.3831 26.9011 74.0236 27.5201 73.4747 27.9534C72.9265 28.3868 72.3019 28.5725 71.583 28.5312C70.7321 28.5106 70.0695 28.1185 69.6156 27.4375ZM67.5538 40.5617C66.6836 39.4061 66.3047 38.0442 66.3804 36.4759C66.4754 34.887 67.0049 33.5869 68.0077 32.5758C68.991 31.5647 70.1832 31.09 71.5642 31.1932C72.9833 31.2964 74.118 31.9155 74.9882 33.0504C75.8585 34.1854 76.2373 35.568 76.1617 37.1362C76.0666 38.7252 75.5371 40.0253 74.5344 41.0364C73.551 42.0475 72.3401 42.5222 70.9209 42.419C69.5399 42.3158 68.4046 41.6967 67.5538 40.5617Z" fill="#6DD95D"/>
<g style="mix-blend-mode:color-burn">
<g style="mix-blend-mode:color-burn">
<path d="M109.648 180.396C99.5864 180.396 97.0714 175.258 92.8793 154.39C90.7264 146.685 86.5259 133.462 105.133 151.279C110.938 156.837 112.665 157.851 114.129 154.39C116.392 149.039 117.038 145.483 118.008 142.897C120.974 134.989 128.029 132.557 128.029 147.969C128.029 168.519 122.225 180.396 109.648 180.396Z" fill="#3A83DA" fill-opacity="0.23"/>
</g>
</g>
<g style="mix-blend-mode:color-burn">
<g style="mix-blend-mode:color-burn">
<path fill-rule="evenodd" clip-rule="evenodd" d="M29.8315 143.63C9.13441 135.503 18.1957 207.45 41.5322 203.737C64.868 200.024 70.2271 181.365 69.2754 175.378C68.5028 170.518 60.7412 169.013 55.3601 174.321C55.4267 173.961 55.5069 173.615 55.5819 173.293C55.9414 171.744 56.1741 170.738 54.1873 171.325C50.7504 172.34 50.8487 176.96 51.7027 180.048C46.9333 189.729 38.05 188.153 34.7746 170.207C33.8245 165.002 33.6412 160.193 33.486 156.124C33.2351 149.544 33.0578 144.897 29.8315 143.63Z" fill="#4891E6" fill-opacity="0.2"/>
</g>
</g>
<path d="M42.8657 117.49L32.2227 122.176L65.7008 198.213L76.3439 193.527L42.8657 117.49Z" fill="#FFFEFE"/>
<path d="M43.4269 120.37L40.2803 121.755" stroke="#ACACAC"/>
<path d="M48.6375 132.204L45.4902 133.589" stroke="#ACACAC"/>
<path d="M53.8485 144.039L50.7012 145.425" stroke="#ACACAC"/>
<path d="M59.0588 155.872L55.9121 157.258" stroke="#ACACAC"/>
<path d="M64.2697 167.707L61.123 169.092" stroke="#ACACAC"/>
<path d="M69.4806 179.541L66.334 180.927" stroke="#ACACAC"/>
<path d="M74.6903 191.375L71.543 192.761" stroke="#ACACAC"/>
<path d="M47.7449 130.176L45.3786 131.218M44.6189 123.075L42.252 124.117L44.6189 123.075ZM45.4148 124.883L43.0478 125.925L45.4148 124.883ZM46.1912 126.647L43.825 127.689L46.1912 126.647ZM46.9684 128.412L44.6014 129.454L46.9684 128.412Z" stroke="#ACACAC"/>
<path d="M52.9555 142.01L50.5885 143.053M49.8289 134.91L47.4619 135.952L49.8289 134.91ZM50.6247 136.717L48.2578 137.759L50.6247 136.717ZM51.4019 138.482L49.0349 139.524L51.4019 138.482ZM52.1783 140.246L49.8114 141.288L52.1783 140.246Z" stroke="#ACACAC"/>
<path d="M57.905 153.253L55.5381 154.295M54.7791 146.153L52.4121 147.195L54.7791 146.153ZM55.5743 147.96L53.208 149.002L55.5743 147.96ZM56.3514 149.724L53.9845 150.766L56.3514 149.724ZM57.1285 151.489L54.7616 152.531L57.1285 151.489Z" stroke="#ACACAC"/>
<path d="M63.3757 165.679L61.0088 166.721M60.2497 158.578L57.8828 159.62L60.2497 158.578ZM61.0456 160.386L58.6787 161.428L61.0456 160.386ZM61.8221 162.15L59.4552 163.192L61.8221 162.15ZM62.5992 163.915L60.2323 164.957L62.5992 163.915Z" stroke="#ACACAC"/>
<path d="M68.3266 176.921L65.9596 177.963M65.2 169.82L62.833 170.863L65.2 169.82ZM65.9958 171.628L63.6289 172.67L65.9958 171.628ZM66.773 173.392L64.406 174.435L66.773 173.392ZM67.5494 175.157L65.1825 176.199L67.5494 175.157Z" stroke="#ACACAC"/>
<path d="M73.7992 189.348L71.4323 190.39M70.6726 182.247L68.3057 183.289L70.6726 182.247ZM71.4685 184.055L69.1015 185.097L71.4685 184.055ZM72.2456 185.819L69.8787 186.861L72.2456 185.819ZM73.0221 187.584L70.6551 188.626L73.0221 187.584Z" stroke="#ACACAC"/>
<path fill-rule="evenodd" clip-rule="evenodd" d="M30.6444 125.733C9.02474 114.891 15.2703 201.624 40.2531 198.411C65.2356 195.199 71.8108 173.114 71.0808 165.886C70.4886 160.019 62.3087 157.803 56.3381 163.881C56.426 163.453 56.5275 163.043 56.6219 162.661C57.077 160.821 57.3725 159.628 55.2325 160.227C51.5311 161.262 51.418 166.805 52.1802 170.552C46.6544 181.905 37.2855 179.544 34.6481 157.856C33.8832 151.565 33.9146 145.791 33.9412 140.905C33.9842 133.003 34.0145 127.423 30.6444 125.733Z" fill="url(#paint1_linear_597_2966)"/>
<path fill-rule="evenodd" clip-rule="evenodd" d="M98.9016 136.308C95.6438 129.919 88.5326 116.794 84.894 116.357C82.0247 116.015 82.2639 120.391 83.4645 122.863C84.3599 124.716 84.9767 126.5 83.6817 128.063C80.793 131.561 79.0371 135.791 81.9794 140.836C83.0274 142.632 84.9218 143.654 86.7172 144.622C88.0839 145.359 89.3931 146.064 90.2272 147.058C90.2537 147.168 90.2821 147.276 90.3119 147.383C94.9972 170.81 97.809 176.576 109.053 176.576C123.11 176.576 129.597 163.244 129.597 140.175C129.597 122.875 116.262 124.567 116.262 134.048V147.383C116.262 153.947 112.125 168.161 104.368 147.383C102.39 142.085 100.555 138.532 98.9016 136.308Z" fill="url(#paint2_linear_597_2966)"/>
<defs>
<linearGradient id="paint0_linear_597_2966" x1="74.3669" y1="26.5224" x2="74.3443" y2="259.9" gradientUnits="userSpaceOnUse">
<stop stop-color="#96D2F4"/>
<stop offset="0.315625" stop-color="#65ACFF"/>
<stop offset="1" stop-color="#5391D9"/>
</linearGradient>
<linearGradient id="paint1_linear_597_2966" x1="31.373" y1="138.695" x2="62.9844" y2="143.362" gradientUnits="userSpaceOnUse">
<stop stop-color="#63A8FA"/>
<stop offset="1" stop-color="#4296F9"/>
</linearGradient>
<linearGradient id="paint2_linear_597_2966" x1="122.857" y1="125.764" x2="71.1552" y2="139.722" gradientUnits="userSpaceOnUse">
<stop stop-color="#63A9FA"/>
<stop offset="0.69995" stop-color="#4296F9"/>
</linearGradient>
</defs>
</svg>
