<svg width="100" height="100" viewBox="0 0 100 100" fill="none" xmlns="http://www.w3.org/2000/svg">
<g clip-path="url(#clip0_669_1778)">
<path d="M49.9436 99.9999C47.2379 99.9999 44.6449 98.9852 42.7283 97.0686L2.93123 57.1588C1.01466 55.2423 0 52.6492 0 49.9435C0 47.2377 1.01466 44.6447 2.93123 42.7282L42.841 2.93109C46.7869 -1.01479 53.2131 -1.01479 57.159 2.93109L96.956 42.8409C98.8726 44.7575 99.8873 47.3505 99.8873 50.0562C99.8873 52.762 98.8726 55.2423 96.956 57.1588L57.159 96.9559C55.2424 98.8725 52.6494 99.9999 49.9436 99.9999ZM24.4645 49.9435L49.9436 75.5354L75.5355 49.9435L49.9436 24.4644L24.4645 49.9435Z" fill="#42C0FF"/>
</g>
<defs>
<clipPath id="clip0_669_1778">
<rect width="100" height="100" fill="white"/>
</clipPath>
</defs>
</svg>
