<svg width="128" height="92" viewBox="0 0 128 92" fill="none" xmlns="http://www.w3.org/2000/svg">
<path d="M120.347 88.2203C96.381 93.4229 16.5737 91.8814 6.74756 88.2203C-3.07857 84.5592 -3.79756 68.1805 15.615 78.2004C6.74755 57.9679 23.2842 46.5992 40.5398 55.8483C27.5981 36.5793 23.0445 2.08784 47.0107 0.160936C79.365 -2.53672 81.2823 29.2571 76.4891 52.1872C94.2241 33.3036 120.587 48.1408 103.571 70.1074C127.297 56.6191 135.446 84.9445 120.347 88.2203Z" fill="#51B57E"/>
<path d="M73.3732 89.5688C73.3732 89.5688 87.7529 78.5854 94.7031 57.7749" stroke="#328756" stroke-width="3" stroke-miterlimit="10" stroke-linecap="round" stroke-linejoin="round"/>
<path d="M49.167 89.569C49.167 89.569 44.8531 74.1538 27.8371 67.4097" stroke="#328756" stroke-width="3" stroke-miterlimit="10" stroke-linecap="round" stroke-linejoin="round"/>
<path d="M66.6631 89.5692C66.6631 89.5692 65.4648 50.2604 52.2834 19.2373" stroke="#328756" stroke-width="3" stroke-miterlimit="10" stroke-linecap="round" stroke-linejoin="round"/>
<path d="M45.3327 29.0645C45.3327 29.0645 45.812 43.3235 62.3486 52.7653" stroke="#328756" stroke-width="3" stroke-miterlimit="10" stroke-linecap="round" stroke-linejoin="round"/>
<path d="M66.6625 25.9814C66.6625 25.9814 71.4558 36.7721 60.1917 43.7089" stroke="#328756" stroke-width="3" stroke-miterlimit="10" stroke-linecap="round" stroke-linejoin="round"/>
<path d="M49.1674 59.5093C49.1674 59.5093 54.2003 71.8414 65.7041 75.8879" stroke="#328756" stroke-width="3" stroke-miterlimit="10" stroke-linecap="round" stroke-linejoin="round"/>
</svg>
