<svg width="251" height="259" viewBox="0 0 251 259" fill="none" xmlns="http://www.w3.org/2000/svg">
<g clip-path="url(#clip0_381_973)">
<path d="M93.7905 231.085C88.276 229.607 83.5452 226.123 80.6857 221.171L21.3702 118.097C18.5107 113.144 17.8588 107.305 19.3364 101.79C20.8141 96.2758 24.2981 91.5451 29.2509 88.6855L132.325 29.3701C142.522 23.4828 155.619 26.9922 161.506 37.1892L220.822 140.263C223.681 145.216 224.333 151.055 222.855 156.569C221.378 162.084 217.955 166.585 213.003 169.444L110.158 228.821C105.206 231.681 99.3052 232.563 93.7905 231.085ZM69.1976 115.151L107.151 181.224L173.286 143.041L135.041 77.1359L69.1976 115.151Z" fill="#FDCE1B"/>
</g>
<defs>
<clipPath id="clip0_381_973">
<rect width="211" height="211" fill="white" transform="translate(46.6108) rotate(15)"/>
</clipPath>
</defs>
</svg>
