<svg width="205" height="86" viewBox="0 0 205 86" fill="none" xmlns="http://www.w3.org/2000/svg">
<g clip-path="url(#clip0_466_2023)">
<path d="M9.42752 39.099C7.36163 38.9624 5.35068 37.9952 4.01441 36.2384C1.74132 32.9599 2.24999 28.4055 5.51359 26.1188L35.6293 3.71033C38.2457 1.79788 41.7714 1.82249 44.3335 3.86884L73.4942 27.2776L106.31 7.96734C108.899 6.47016 112.204 6.68875 114.56 8.72144L138.348 28.6467L164.664 13.4947C167.253 11.9975 170.559 12.2161 172.914 14.2488L199.665 36.4554C202.819 38.958 203.137 43.5671 200.644 46.739C198.152 49.911 193.566 50.2333 190.412 47.7307L167.615 28.4966L141.299 43.6487C138.71 45.1458 135.404 44.9273 133.049 42.8946L109.246 23.1769L76.651 42.2932C74.0621 43.7904 70.7567 43.5718 68.3875 41.7467L39.8191 18.7942L14.2889 37.7521C12.7741 38.6946 11.0802 39.2083 9.42752 39.099Z" fill="#F77F73"/>
<path d="M7.23074 72.3214C5.16486 72.1848 3.1539 71.2176 1.81763 69.4609C-0.455457 66.1823 0.0532169 61.6279 3.31681 59.3412L33.4325 36.9327C36.0489 35.0203 39.5746 35.0449 42.1367 37.0913L71.2974 60.5L103.907 41.1761C106.495 39.6789 109.801 39.8975 112.156 41.9302L135.945 61.8555L162.261 46.7034C164.85 45.2063 168.155 45.4249 170.511 47.4575L197.261 69.6641C200.416 72.1668 200.733 76.7758 198.241 79.9478C195.749 83.1197 191.163 83.4421 188.008 80.9394L165.198 61.913L138.882 77.0651C136.293 78.5622 132.987 78.3436 130.632 76.311L106.843 56.3857L74.4543 75.5156C71.8654 77.0128 68.5599 76.7942 66.1907 74.9691L37.6223 52.0167L12.0921 70.9745C10.5636 72.1247 8.88344 72.4307 7.23074 72.3214Z" fill="#F77F73"/>
</g>
<defs>
<clipPath id="clip0_466_2023">
<rect width="200" height="72" fill="white" transform="translate(4.75098) rotate(3.78345)"/>
</clipPath>
</defs>
</svg>
