<svg width="116" height="205" viewBox="0 0 116 205" fill="none" xmlns="http://www.w3.org/2000/svg">
<path d="M43.5657 198.329H43.2897C39.917 198.329 37.1572 195.578 37.1572 192.217V156.754C37.1572 153.393 39.917 150.643 43.2897 150.643H43.5738C46.9464 150.643 49.7062 153.393 49.7062 156.754V192.217C49.6987 195.578 46.9389 198.329 43.5657 198.329Z" fill="#3E71AC"/>
<path d="M34.3248 179.723V194.339C34.3248 195 33.7385 195.584 32.8937 195.751C30.4271 196.253 25.5089 197.703 24.1841 201.378C22.6615 205.592 43.9484 204.924 50.3965 204.627C51.4245 204.582 52.2161 203.936 52.2161 203.162V179.715C52.2161 178.903 51.3482 178.25 50.2745 178.25H36.2664C35.1927 178.258 34.3248 178.911 34.3248 179.723Z" fill="#F77F73"/>
<path d="M70.3951 198.329H70.6792C74.0519 198.329 76.8117 195.578 76.8117 192.217V156.754C76.8117 153.393 74.0519 150.643 70.6792 150.643H70.3951C67.0225 150.643 64.2627 153.393 64.2627 156.754V192.217C64.2627 195.578 67.0225 198.329 70.3951 198.329Z" fill="#3E71AC"/>
<path d="M79.1453 180.065V194.062C79.1453 194.875 79.8531 195.589 80.8806 195.817C83.4305 196.378 88.0124 197.852 89.2834 201.376C90.7677 205.492 70.4604 204.953 63.5269 204.649C62.2479 204.596 61.251 203.791 61.251 202.826V180.073C61.251 179.063 62.3317 178.25 63.6639 178.25H76.7249C78.0641 178.243 79.1453 179.055 79.1453 180.065Z" fill="#F77F73"/>
<path d="M68.4003 44.8825C66.3026 43.1111 66.0281 39.9423 67.7904 37.8431L97.9265 1.9738C99.6964 -0.125793 102.862 -0.400668 104.959 1.36301C107.057 3.13433 107.332 6.30284 105.569 8.40243L75.4333 44.2716C73.6709 46.3713 70.5055 46.6459 68.4003 44.8825Z" fill="#4E96EC"/>
<path d="M89.0313 20.5116C88.7949 17.7709 90.8394 15.3427 93.5775 15.1061L103.997 14.2052C106.735 13.9685 109.161 16.0146 109.397 18.7557C109.634 21.4964 107.589 23.9244 104.851 24.1613L94.4319 25.0618C91.6937 25.2912 89.2682 23.2447 89.0313 20.5116Z" fill="#4E96EC"/>
<path d="M88.9027 20.4039C91.6409 20.1675 93.6853 17.7319 93.4489 14.9984L92.5489 4.56904C92.3125 1.82809 89.879 -0.218043 87.1483 0.0186305C84.4101 0.255304 82.3662 2.69086 82.6026 5.42417L83.5026 15.8535C83.739 18.5943 86.172 20.6408 88.9027 20.4039Z" fill="#4E96EC"/>
<path d="M46.7686 44.8825C48.8658 43.1111 49.1404 39.9423 47.3785 37.8431L17.2421 1.9738C15.4725 -0.125793 12.307 -0.400668 10.2094 1.36301C8.10423 3.13433 7.83729 6.29521 9.59927 8.40243L39.7357 44.2716C41.5056 46.3789 44.6709 46.6459 46.7686 44.8825Z" fill="#4E96EC"/>
<path d="M26.1431 20.5116C26.3795 17.7709 24.3353 15.3427 21.597 15.1061L11.1778 14.2052C8.43944 13.9685 6.01387 16.0146 5.7774 18.7557C5.54098 21.4964 7.58515 23.9244 10.3234 24.1613L20.7427 25.0618C23.4734 25.2987 25.9066 23.2528 26.1431 20.5116Z" fill="#4E96EC"/>
<path d="M26.2648 20.4039C23.5266 20.1675 21.4824 17.7319 21.7188 14.9984L22.6189 4.56904C22.8553 1.82809 25.2885 -0.218043 28.0192 0.0186305C30.7575 0.255304 32.8015 2.69086 32.5651 5.42417L31.6651 15.8535C31.4286 18.5943 29.0032 20.6408 26.2648 20.4039Z" fill="#4E96EC"/>
<path d="M75.5576 38.2032C77.0826 38.2032 78.3184 35.7311 78.3184 32.6817C78.3184 29.6323 77.0826 27.1602 75.5576 27.1602C74.0327 27.1602 72.7969 29.6323 72.7969 32.6817C72.7969 35.7311 74.0327 38.2032 75.5576 38.2032Z" fill="#84EFDD"/>
<path d="M42.4287 38.2032C43.9537 38.2032 45.1895 35.8435 45.1895 32.9327C45.1895 30.0218 43.9537 27.6621 42.4287 27.6621C40.9038 27.6621 39.668 30.0218 39.668 32.9327C39.668 35.8435 40.9038 38.2032 42.4287 38.2032Z" fill="#84EFDD"/>
<path fill-rule="evenodd" clip-rule="evenodd" d="M100.928 89.428C100.839 88.8558 100.747 88.282 100.653 87.7073C100.485 86.6828 100.318 85.6618 100.152 84.6448C93.5762 44.3551 87.9809 10.0737 57.7444 10.0737C26.7449 10.0737 21.2786 44.0765 14.8364 86.1201C14.5683 87.8699 14.3212 89.6102 14.0973 91.3384C12.5527 99.1635 6.47867 128.804 1.27195 138.44C-2.47316 145.371 1.83665 164.015 17.0733 158.972C32.3101 153.929 41.8995 161.666 45.0026 164.642C48.1058 167.619 53.4682 168.698 57.7007 168.698C61.9332 168.698 67.2956 167.619 70.3988 164.642C73.5019 161.666 83.0968 153.936 98.3282 158.972C113.559 164.008 117.973 147.63 114.129 138.44C110.286 129.25 100.932 89.428 100.932 89.428H100.928Z" fill="url(#paint0_linear_892_756)"/>
<path d="M57.9895 72.8385C71.9894 72.8385 83.3385 60.7028 83.3385 45.7327C83.3385 30.7626 71.9894 18.627 57.9895 18.627C43.9897 18.627 32.6406 30.7626 32.6406 45.7327C32.6406 60.7028 43.9897 72.8385 57.9895 72.8385Z" fill="#C2E7F7"/>
<path d="M25.3887 74.5166L26.9553 115.689C26.9553 115.689 26.8589 117.129 28.2554 117.496C29.6516 117.864 26.6018 76.3929 26.6018 76.3929L25.3887 74.5166Z" fill="#D24D4D"/>
<path d="M26.6059 76.3911C26.5304 78.4652 28.2595 117.495 28.2595 117.495L59.1489 114.22L59.964 74.7256L26.6059 76.3911Z" fill="#D24D4D"/>
<path d="M25.3889 74.5169C25.5343 80.8651 26.9003 114.365 26.9003 114.365L57.7897 111.09L58.5778 71.5146L26.3267 73.2484C25.5841 73.3147 25.3815 73.9983 25.3889 74.5169Z" fill="#D24D4D"/>
<path d="M26.9395 76.4165C26.9395 76.4165 25.9105 76.6278 25.7894 74.9849C25.6952 73.6938 26.5622 73.7465 26.5622 73.7465L57.5307 72.1533L58.9804 74.7871L26.9395 76.4165Z" fill="#F3E2E2"/>
<path d="M45.4926 47.0098C47.3471 47.0098 48.8504 44.2537 48.8504 40.8538C48.8504 37.4539 47.3471 34.6978 45.4926 34.6978C43.6381 34.6978 42.1348 37.4539 42.1348 40.8538C42.1348 44.2537 43.6381 47.0098 45.4926 47.0098Z" fill="#000442"/>
<path d="M70.6762 47.0098C72.5307 47.0098 74.034 44.2537 74.034 40.8538C74.034 37.4539 72.5307 34.6978 70.6762 34.6978C68.8217 34.6978 67.3184 37.4539 67.3184 40.8538C67.3184 44.2537 68.8217 47.0098 70.6762 47.0098Z" fill="#000442"/>
<path d="M54.5889 59.8276C55.2977 62.2596 57.7678 63.8719 59.3917 63.399C61.0155 62.9262 61.8924 58.9542 61.1811 56.5056C60.4719 54.0731 60.0844 53.6284 58.4605 54.1012C56.8367 54.5736 53.8776 57.379 54.5889 59.8276Z" fill="#162947"/>
<path opacity="0.36" d="M90.1167 140.586C90.4219 143.194 94.0074 145.236 94.0074 145.236C94.0074 145.236 99.9531 146.884 101.476 141.903C102.998 136.922 96.7973 133.971 95.9379 134.167C95.0861 134.379 89.6293 136.441 90.1167 140.586Z" fill="#BADAFF"/>
<path opacity="0.36" d="M68.2289 142.119C68.6249 145.515 73.2971 148.182 73.2971 148.182C73.2971 148.182 81.0424 150.325 83.0311 143.842C85.0199 137.361 76.9358 133.509 75.8155 133.769C74.6951 134.028 67.5914 136.72 68.2289 142.119Z" fill="#BADAFF"/>
<path opacity="0.36" d="M54.6138 146.89C54.7825 148.351 56.7978 149.506 56.7978 149.506C56.7978 149.506 60.1389 150.429 60.9982 147.632C61.8576 144.834 58.3715 143.176 57.8881 143.288C57.4042 143.4 54.3412 144.558 54.6138 146.89Z" fill="#357ED2"/>
<path opacity="0.36" d="M91.6734 127.259C91.829 128.605 93.6857 129.665 93.6857 129.665C93.6857 129.665 96.7687 130.514 97.5543 127.944C98.3484 125.367 95.1344 123.836 94.6891 123.941C94.2519 124.047 91.4274 125.11 91.6734 127.259Z" fill="#357ED2"/>
<path opacity="0.36" d="M65.2975 152.861C65.3753 153.535 66.304 154.065 66.304 154.065C66.304 154.065 67.8455 154.493 68.2385 153.204C68.6316 151.915 67.0283 151.15 66.8054 151.199C66.5831 151.255 65.167 151.791 65.2975 152.861Z" fill="#BADAFF"/>
<path opacity="0.36" d="M85.0827 136.569C85.1605 137.241 86.0891 137.772 86.0891 137.772C86.0891 137.772 87.6306 138.2 88.0237 136.911C88.4167 135.622 86.8134 134.857 86.5911 134.906C86.3762 134.955 84.9602 135.49 85.0827 136.569Z" fill="#83E9FF"/>
<g style="mix-blend-mode:color-burn">
<g style="mix-blend-mode:color-burn">
<path d="M85.1295 106.972C77.318 106.972 75.3654 102.983 72.1107 86.7812C70.4391 80.7988 67.1779 70.5333 81.6243 84.3657C86.1309 88.6811 87.4721 89.4687 88.6085 86.7812C90.3654 82.627 90.8673 79.8662 91.6203 77.8583C93.9228 71.7184 99.4006 69.8305 99.4006 81.7957C99.4006 97.751 94.8941 106.972 85.1295 106.972Z" fill="#3A83DA" fill-opacity="0.23"/>
</g>
</g>
<g style="mix-blend-mode:color-burn">
<g style="mix-blend-mode:color-burn">
<path fill-rule="evenodd" clip-rule="evenodd" d="M23.1595 78.4261C7.09052 72.1165 14.1256 127.975 32.2439 125.093C50.3616 122.21 54.5223 107.723 53.7834 103.075C53.1836 99.3016 47.1576 98.1335 42.9798 102.254C43.0315 101.975 43.0937 101.706 43.1519 101.456C43.431 100.253 43.6117 99.4727 42.0692 99.9285C39.4008 100.717 39.4771 104.304 40.1402 106.701C36.4372 114.217 29.5403 112.993 26.9974 99.0601C26.2597 95.0188 26.1174 91.2858 25.9969 88.1264C25.8021 83.018 25.6645 79.4099 23.1595 78.4261Z" fill="#4891E6" fill-opacity="0.2"/>
</g>
</g>
<path d="M33.2808 58.1318L25.0176 61.77L51.0097 120.804L59.2729 117.166L33.2808 58.1318Z" fill="#FFFEFE"/>
<path d="M33.7165 60.3677L31.2734 61.4434" stroke="#ACACAC"/>
<path d="M37.7619 69.5552L35.3184 70.6309" stroke="#ACACAC"/>
<path d="M41.8078 78.7441L39.3643 79.8198" stroke="#ACACAC"/>
<path d="M45.8522 87.9316L43.4092 89.0073" stroke="#ACACAC"/>
<path d="M49.8981 97.1201L47.4551 98.1958" stroke="#ACACAC"/>
<path d="M53.944 106.308L51.501 107.384" stroke="#ACACAC"/>
<path d="M57.9885 115.496L55.5449 116.571" stroke="#ACACAC"/>
<path d="M37.0684 67.9813L35.2312 68.7904M34.6414 62.4683L32.8037 63.2774L34.6414 62.4683ZM35.2593 63.8717L33.4216 64.6809L35.2593 63.8717ZM35.8621 65.2416L34.025 66.0507L35.8621 65.2416ZM36.4655 66.6114L34.6278 67.4206L36.4655 66.6114Z" stroke="#ACACAC"/>
<path d="M41.1138 77.1697L39.2761 77.9789M38.6863 71.6572L36.8486 72.4664L38.6863 71.6572ZM39.3042 73.0602L37.4665 73.8694L39.3042 73.0602ZM39.9076 74.43L38.0699 75.2392L39.9076 74.43ZM40.5104 75.7999L38.6727 76.6091L40.5104 75.7999Z" stroke="#ACACAC"/>
<path d="M44.957 85.8978L43.1194 86.7069M42.5301 80.3853L40.6924 81.1944L42.5301 80.3853ZM43.1475 81.7882L41.3103 82.5974L43.1475 81.7882ZM43.7508 83.1581L41.9131 83.9672L43.7508 83.1581ZM44.3542 84.5279L42.5165 85.3371L44.3542 84.5279Z" stroke="#ACACAC"/>
<path d="M49.2041 95.5452L47.3664 96.3544M46.7771 90.0322L44.9395 90.8414L46.7771 90.0322ZM47.395 91.4357L45.5574 92.2449L47.395 91.4357ZM47.9979 92.8056L46.1602 93.6147L47.9979 92.8056ZM48.6012 94.1754L46.7636 94.9846L48.6012 94.1754Z" stroke="#ACACAC"/>
<path d="M53.0474 104.274L51.2097 105.083M50.6199 98.7607L48.7822 99.5699L50.6199 98.7607ZM51.2378 100.164L49.4001 100.973L51.2378 100.164ZM51.8412 101.534L50.0035 102.343L51.8412 101.534ZM52.444 102.904L50.6063 103.713L52.444 102.904Z" stroke="#ACACAC"/>
<path d="M57.2964 113.922L55.4587 114.731M54.8689 108.409L53.0312 109.218L54.8689 108.409ZM55.4868 109.813L53.6492 110.622L55.4868 109.813ZM56.0902 111.182L54.2525 111.992L56.0902 111.182ZM56.693 112.552L54.8554 113.362L56.693 112.552Z" stroke="#ACACAC"/>
<path fill-rule="evenodd" clip-rule="evenodd" d="M23.7918 64.5319C7.00654 56.1145 11.8556 123.453 31.252 120.959C50.6481 118.465 55.7531 101.318 55.1863 95.7065C54.7266 91.1513 48.3758 89.431 43.7402 94.1494C43.8084 93.8172 43.8873 93.4989 43.9605 93.2023C44.3139 91.7742 44.5433 90.8481 42.8818 91.3129C40.0081 92.116 39.9203 96.4198 40.5121 99.3292C36.2218 108.143 28.948 106.31 26.9003 89.4717C26.3064 84.5876 26.3308 80.1052 26.3514 76.3113C26.3849 70.1764 26.4084 65.844 23.7918 64.5319Z" fill="url(#paint1_linear_892_756)"/>
<path fill-rule="evenodd" clip-rule="evenodd" d="M76.7871 72.7424C74.2578 67.7821 68.7367 57.5918 65.9117 57.2525C63.684 56.9869 63.8697 60.3847 64.8019 62.3037C65.4971 63.7428 65.976 65.1277 64.9705 66.3409C62.7278 69.057 61.3645 72.3409 63.6489 76.2581C64.4625 77.6526 65.9333 78.4457 67.3272 79.1971C68.3884 79.7694 69.4048 80.317 70.0524 81.0885C70.0729 81.1738 70.095 81.2577 70.1181 81.341C73.7558 99.5295 75.9388 104.006 84.6689 104.006C95.582 104.006 100.619 93.655 100.619 75.7446C100.619 62.3132 90.2652 63.6269 90.2652 70.9876V81.341C90.2652 86.4369 87.0537 97.4729 81.0312 81.341C79.4957 77.2279 78.0711 74.4692 76.7871 72.7424Z" fill="url(#paint2_linear_892_756)"/>
<defs>
<linearGradient id="paint0_linear_892_756" x1="57.7378" y1="-12.4947" x2="57.7203" y2="168.698" gradientUnits="userSpaceOnUse">
<stop stop-color="#96D2F4"/>
<stop offset="0.315625" stop-color="#65ACFF"/>
<stop offset="1" stop-color="#5391D9"/>
</linearGradient>
<linearGradient id="paint1_linear_892_756" x1="24.3575" y1="74.5951" x2="48.9003" y2="78.2188" gradientUnits="userSpaceOnUse">
<stop stop-color="#63A8FA"/>
<stop offset="1" stop-color="#4296F9"/>
</linearGradient>
<linearGradient id="paint2_linear_892_756" x1="95.3862" y1="64.5565" x2="55.2451" y2="75.3928" gradientUnits="userSpaceOnUse">
<stop stop-color="#63A9FA"/>
<stop offset="0.69995" stop-color="#4296F9"/>
</linearGradient>
</defs>
</svg>
