<svg width="220" height="249" viewBox="0 0 220 249" fill="none" xmlns="http://www.w3.org/2000/svg">
<path d="M24.75 136.11C24.75 136.11 0.562408 65.0554 6.98074 38.4072C6.98074 38.4072 -8.84798 14.8252 7.16189 13.2219C23.1731 11.614 22.4229 19.6431 21.1777 24.7176C19.9311 29.7967 19.3067 30.9741 20.9722 32.5131C22.6377 34.0522 24.5024 28.016 26.4358 28.3917C30.8861 29.2581 28.8547 36.8714 19.4236 40.9046C19.4236 40.9046 17.9654 61.6871 46.9463 110.441L24.75 136.11Z" fill="#8E6BC4"/>
<path d="M146.373 205.2C146.642 208.194 146.818 216.613 142.799 231.362C142.313 233.152 143.419 234.972 145.222 235.399C148.867 236.258 154.509 238.191 157.354 242.304C158.86 244.484 157.332 247.46 154.68 247.46H124.926C123.119 247.46 121.658 245.994 121.658 244.192V213.719C121.658 213.175 121.792 212.64 122.049 212.163L131.147 195.328C132.172 193.436 134.712 193.031 136.272 194.51L145.361 203.141C145.941 203.685 146.301 204.418 146.373 205.2Z" fill="#6F50A0"/>
<path d="M84.856 206.162C84.5818 209.138 84.393 217.584 88.4432 232.423C88.9197 234.172 87.8408 235.961 86.0742 236.374C82.3656 237.238 76.5173 239.229 73.7122 243.531C72.3322 245.644 73.892 248.449 76.4184 248.449H106.366C108.132 248.449 109.566 247.015 109.566 245.248V214.689C109.566 214.159 109.436 213.633 109.18 213.165L100.032 196.236C99.0295 194.384 96.5391 193.984 95.0108 195.436L85.8404 204.143C85.283 204.678 84.9279 205.393 84.856 206.162Z" fill="#6F50A0"/>
<path d="M196.984 102.413C196.984 102.413 228.336 169.944 217.857 197.048C217.857 197.048 224.422 221.671 205.764 220.119C188.999 218.722 197.713 216.473 199.736 211.308C201.76 206.143 202.623 204.934 200.847 203.431C199.076 201.927 199.036 209.145 195.888 208.615C193.686 208.243 192.12 199.273 203.594 194.91C203.594 194.91 223.638 193.491 175.269 128.834L196.984 102.413Z" fill="#7B59AF"/>
<path fill-rule="evenodd" clip-rule="evenodd" d="M76.123 35.9044C88.4436 27.1981 101.564 22.3457 113.988 22.3457C123.946 22.3457 136.725 27.1741 149.551 36.1578C151.394 28.9459 154.345 24.2741 157.67 24.2741C163.048 24.2741 167.445 36.4914 167.766 51.9114C183.313 68.2076 196.784 90.6934 202.486 117.987C214.192 174.02 211.715 221.697 113.903 221.697C19.4526 221.697 13.7661 172.227 25.3279 117.987C30.9407 91.6486 43.0343 68.9246 57.9671 52.2427C58.231 36.6668 62.653 24.2741 68.0689 24.2741C71.3553 24.2741 74.2755 28.8366 76.123 35.9044Z" fill="url(#paint0_linear_892_700)"/>
<path d="M124.241 89.5657C114.808 90.3156 114.808 90.3156 108.212 87.7285C101.39 85.0476 101.24 103.401 112.29 104.657C126.026 106.213 128.788 89.1908 124.241 89.5657Z" fill="#000442"/>
<mask id="mask0_892_700" style="mask-type:alpha" maskUnits="userSpaceOnUse" x="103" y="87" width="24" height="18">
<path d="M124.241 89.5657C114.808 90.3156 114.808 90.3156 108.212 87.7285C101.39 85.0476 101.24 103.401 112.29 104.657C126.026 106.213 128.788 89.1908 124.241 89.5657Z" fill="#000442"/>
</mask>
<g mask="url(#mask0_892_700)">
<path d="M103.663 98.3015C103.663 98.3015 110.523 96.0144 114.882 99.5764C119.242 103.138 119.317 106.794 115.39 107.582C111.462 108.369 103.024 104.488 103.663 98.3015Z" fill="#EFA0B7"/>
</g>
<mask id="mask1_892_700" style="mask-type:alpha" maskUnits="userSpaceOnUse" x="103" y="87" width="24" height="18">
<path d="M124.241 89.5657C114.808 90.3156 114.808 90.3156 108.212 87.7285C101.39 85.0476 101.24 103.401 112.29 104.657C126.026 106.213 128.788 89.1908 124.241 89.5657Z" fill="#000442"/>
</mask>
<g mask="url(#mask1_892_700)">
<path d="M109.048 90.6862C108.432 90.3612 108.383 89.2449 108.938 88.1929C109.493 87.1408 110.443 86.5514 111.059 86.8764C111.675 87.2014 111.724 88.3177 111.169 89.3697C110.614 90.4218 109.664 91.0112 109.048 90.6862Z" fill="#FCFCFC"/>
<path d="M121.153 91.8357C120.475 92.0106 119.702 91.288 119.427 90.2216C119.152 89.1553 119.479 88.149 120.158 87.974C120.837 87.7991 121.61 88.5217 121.884 89.5881C122.159 90.6544 121.832 91.6607 121.153 91.8357Z" fill="#FCFCFC"/>
</g>
<path d="M105.107 83.9351C102.783 83.9351 100.899 82.0512 100.899 79.7276C100.899 77.404 102.783 75.52 105.107 75.52C107.43 75.52 109.314 77.404 109.314 79.7276C109.314 82.0512 107.43 83.9351 105.107 83.9351Z" fill="#000442"/>
<path d="M126.342 83.859C124.06 83.859 122.21 82.0096 122.21 79.7278C122.21 77.4465 124.06 75.5967 126.342 75.5967C128.623 75.5967 130.473 77.4465 130.473 79.7278C130.473 82.0096 128.623 83.859 126.342 83.859Z" fill="#000442"/>
<path opacity="0.19" d="M114.739 212.626C83.2096 212.626 57.6495 192.299 57.6495 167.224C57.6495 142.149 83.2096 121.822 114.739 121.822C146.269 121.822 171.829 142.149 171.829 167.224C171.829 192.299 146.269 212.626 114.739 212.626Z" fill="#F1F2F2"/>
<path opacity="0.47" d="M146.92 34.573C147.397 33.8672 152.642 46.4449 134.841 42.8532C117.04 39.2615 97.6569 33.7144 97.6569 33.7144L146.92 34.573Z" fill="#694B97"/>
<path d="M101.008 13.1339C97.3813 13.1339 94.4414 10.1938 94.4414 6.56699C94.4414 2.94012 97.3813 0 101.008 0C104.635 0 107.575 2.94012 107.575 6.56699C107.575 10.1938 104.635 13.1339 101.008 13.1339Z" fill="#FFAC0B"/>
<path d="M132.943 35.7635C134.029 20.6533 123.586 6.15038 109.506 6.57757C92.2649 7.09736 83.2222 16.9993 82.1366 32.1095" fill="#FDCE1B"/>
<path d="M82.0745 32.0987C82.0745 32.0987 106.737 32.2686 114.946 28.7586C123.154 25.2487 139.294 15.9386 146.406 25.1921C153.519 34.4455 143.535 36.9313 140.014 37.1886C125.496 38.2437 82.0745 32.0987 82.0745 32.0987Z" fill="#B06A42"/>
<mask id="mask2_892_700" style="mask-type:alpha" maskUnits="userSpaceOnUse" x="20" y="22" width="188" height="200">
<path fill-rule="evenodd" clip-rule="evenodd" d="M76.1508 36.0145C88.4629 27.321 101.573 22.4761 113.987 22.4761C123.937 22.4761 136.705 27.2975 149.522 36.2685C151.363 28.9937 154.327 24.2742 157.669 24.2742C163.062 24.2742 167.469 36.5618 167.767 52.0445C183.313 68.3403 196.784 90.8256 202.485 118.117C214.191 174.151 211.714 221.827 113.902 221.827C19.4517 221.827 13.7652 172.357 25.327 118.117C30.9398 91.7804 43.0324 69.0569 57.9639 52.3758C58.2053 36.7373 62.6367 24.2742 68.0679 24.2742C71.3715 24.2742 74.3046 28.8841 76.1508 36.0145Z" fill="url(#paint1_linear_892_700)"/>
</mask>
<g mask="url(#mask2_892_700)">
<path d="M102.726 221.841C36.1962 212.955 23.684 162.129 21.3618 142.949C15.7427 145.422 4.23486 151.131 3.15599 154.187C2.07713 157.244 8.99982 190.074 12.596 206.108C47.8088 217.571 141.741 227.052 102.726 221.841Z" fill="#7A59AD"/>
</g>
<defs>
<linearGradient id="paint0_linear_892_700" x1="114.15" y1="22.3457" x2="170.706" y2="211.502" gradientUnits="userSpaceOnUse">
<stop stop-color="#A585D7"/>
<stop offset="0.414583" stop-color="#8F6BC6"/>
<stop offset="1" stop-color="#7A56B1"/>
</linearGradient>
<linearGradient id="paint1_linear_892_700" x1="114.149" y1="22.3458" x2="114.149" y2="221.697" gradientUnits="userSpaceOnUse">
<stop stop-color="#A08667"/>
<stop offset="1" stop-color="#81694D"/>
</linearGradient>
</defs>
</svg>
