<svg width="341" height="266" viewBox="0 0 341 266" fill="none" xmlns="http://www.w3.org/2000/svg">
<path d="M158.347 253.22C134.381 258.423 54.5737 256.881 44.7476 253.22C34.9214 249.559 34.2024 233.181 53.615 243.2C44.7476 222.968 61.2842 211.599 78.5398 220.848C65.5981 201.579 61.0445 167.088 85.0107 165.161C117.365 162.463 119.282 194.257 114.489 217.187C132.224 198.304 158.587 213.141 141.571 235.107C165.297 221.619 173.446 249.945 158.347 253.22Z" fill="#51B57E"/>
<path d="M111.373 254.569C111.373 254.569 125.753 243.585 132.703 222.775" stroke="#328756" stroke-width="3" stroke-miterlimit="10" stroke-linecap="round" stroke-linejoin="round"/>
<path d="M87.167 254.569C87.167 254.569 82.8531 239.154 65.8371 232.41" stroke="#328756" stroke-width="3" stroke-miterlimit="10" stroke-linecap="round" stroke-linejoin="round"/>
<path d="M104.663 254.569C104.663 254.569 103.465 215.26 90.2834 184.237" stroke="#328756" stroke-width="3" stroke-miterlimit="10" stroke-linecap="round" stroke-linejoin="round"/>
<path d="M83.3327 194.064C83.3327 194.064 83.812 208.324 100.349 217.765" stroke="#328756" stroke-width="3" stroke-miterlimit="10" stroke-linecap="round" stroke-linejoin="round"/>
<path d="M104.663 190.981C104.663 190.981 109.456 201.772 98.1917 208.709" stroke="#328756" stroke-width="3" stroke-miterlimit="10" stroke-linecap="round" stroke-linejoin="round"/>
<path d="M87.1674 224.509C87.1674 224.509 92.2003 236.841 103.704 240.888" stroke="#328756" stroke-width="3" stroke-miterlimit="10" stroke-linecap="round" stroke-linejoin="round"/>
<path d="M297.347 225.22C273.381 230.423 193.574 228.881 183.748 225.22C173.921 221.559 173.202 205.181 192.615 215.2C183.748 194.968 200.284 183.599 217.54 192.848C204.598 173.579 200.045 139.088 224.011 137.161C256.365 134.463 258.282 166.257 253.489 189.187C271.224 170.304 297.587 185.141 280.571 207.107C304.297 193.619 312.446 221.945 297.347 225.22Z" fill="#51B57E"/>
<path d="M250.373 226.569C250.373 226.569 264.753 215.585 271.703 194.775" stroke="#328756" stroke-width="3" stroke-miterlimit="10" stroke-linecap="round" stroke-linejoin="round"/>
<path d="M226.167 226.569C226.167 226.569 221.853 211.154 204.837 204.41" stroke="#328756" stroke-width="3" stroke-miterlimit="10" stroke-linecap="round" stroke-linejoin="round"/>
<path d="M243.663 226.569C243.663 226.569 242.465 187.26 229.283 156.237" stroke="#328756" stroke-width="3" stroke-miterlimit="10" stroke-linecap="round" stroke-linejoin="round"/>
<path d="M222.333 166.064C222.333 166.064 222.812 180.324 239.349 189.765" stroke="#328756" stroke-width="3" stroke-miterlimit="10" stroke-linecap="round" stroke-linejoin="round"/>
<path d="M243.663 162.981C243.663 162.981 248.456 173.772 237.192 180.709" stroke="#328756" stroke-width="3" stroke-miterlimit="10" stroke-linecap="round" stroke-linejoin="round"/>
<path d="M226.167 196.509C226.167 196.509 231.2 208.841 242.704 212.888" stroke="#328756" stroke-width="3" stroke-miterlimit="10" stroke-linecap="round" stroke-linejoin="round"/>
<path d="M153.566 255.329H153.29C149.917 255.329 147.157 252.578 147.157 249.217V213.754C147.157 210.393 149.917 207.643 153.29 207.643H153.574C156.946 207.643 159.706 210.393 159.706 213.754V249.217C159.699 252.578 156.939 255.329 153.566 255.329Z" fill="#3E71AC"/>
<path d="M144.325 236.723V251.339C144.325 252 143.739 252.584 142.894 252.751C140.427 253.253 135.509 254.703 134.184 258.378C132.661 262.592 153.948 261.924 160.397 261.627C161.425 261.582 162.216 260.936 162.216 260.162V236.715C162.216 235.903 161.348 235.25 160.275 235.25H146.266C145.193 235.258 144.325 235.911 144.325 236.723Z" fill="#F77F73"/>
<path d="M180.395 255.329H180.679C184.052 255.329 186.812 252.578 186.812 249.217V213.754C186.812 210.393 184.052 207.643 180.679 207.643H180.395C177.022 207.643 174.263 210.393 174.263 213.754V249.217C174.263 252.578 177.022 255.329 180.395 255.329Z" fill="#3E71AC"/>
<path d="M189.145 237.065V251.062C189.145 251.875 189.853 252.589 190.881 252.817C193.431 253.378 198.012 254.852 199.283 258.376C200.768 262.492 180.46 261.953 173.527 261.649C172.248 261.596 171.251 260.791 171.251 259.826V237.073C171.251 236.063 172.332 235.25 173.664 235.25H186.725C188.064 235.243 189.145 236.055 189.145 237.065Z" fill="#F77F73"/>
<path d="M178.4 101.883C176.303 100.111 176.028 96.9423 177.79 94.8431L207.927 58.9738C209.696 56.8742 212.862 56.5993 214.959 58.363C217.057 60.1343 217.332 63.3028 215.569 65.4024L185.433 101.272C183.671 103.371 180.506 103.646 178.4 101.883Z" fill="#4E96EC"/>
<path d="M199.031 77.5116C198.795 74.7709 200.839 72.3427 203.578 72.1061L213.997 71.2052C216.735 70.9685 219.161 73.0146 219.397 75.7557C219.634 78.4964 217.589 80.9244 214.851 81.1613L204.432 82.0618C201.694 82.2912 199.268 80.2447 199.031 77.5116Z" fill="#4E96EC"/>
<path d="M198.903 77.4039C201.641 77.1675 203.685 74.7319 203.449 71.9984L202.549 61.569C202.312 58.8281 199.879 56.782 197.148 57.0186C194.41 57.2553 192.366 59.6909 192.603 62.4242L193.503 72.8535C193.739 75.5943 196.172 77.6408 198.903 77.4039Z" fill="#4E96EC"/>
<path d="M156.769 101.883C158.866 100.111 159.14 96.9423 157.378 94.8431L127.242 58.9738C125.472 56.8742 122.307 56.5993 120.209 58.363C118.104 60.1343 117.837 63.2952 119.599 65.4024L149.736 101.272C151.506 103.379 154.671 103.646 156.769 101.883Z" fill="#4E96EC"/>
<path d="M136.143 77.5116C136.379 74.7709 134.335 72.3427 131.597 72.1061L121.178 71.2052C118.439 70.9685 116.014 73.0146 115.777 75.7557C115.541 78.4964 117.585 80.9244 120.323 81.1613L130.743 82.0618C133.473 82.2987 135.907 80.2528 136.143 77.5116Z" fill="#4E96EC"/>
<path d="M136.265 77.4039C133.527 77.1675 131.482 74.7319 131.719 71.9984L132.619 61.569C132.855 58.8281 135.289 56.782 138.019 57.0186C140.758 57.2553 142.801 59.6909 142.565 62.4242L141.665 72.8535C141.429 75.5943 139.003 77.6408 136.265 77.4039Z" fill="#4E96EC"/>
<path d="M185.558 95.2032C187.083 95.2032 188.318 92.7311 188.318 89.6817C188.318 86.6323 187.083 84.1602 185.558 84.1602C184.033 84.1602 182.797 86.6323 182.797 89.6817C182.797 92.7311 184.033 95.2032 185.558 95.2032Z" fill="#84EFDD"/>
<path d="M152.429 95.2032C153.954 95.2032 155.19 92.8435 155.19 89.9327C155.19 87.0218 153.954 84.6621 152.429 84.6621C150.904 84.6621 149.668 87.0218 149.668 89.9327C149.668 92.8435 150.904 95.2032 152.429 95.2032Z" fill="#84EFDD"/>
<path fill-rule="evenodd" clip-rule="evenodd" d="M210.928 146.428C210.839 145.856 210.747 145.282 210.653 144.707C210.485 143.683 210.318 142.662 210.152 141.645C203.576 101.355 197.981 67.0737 167.744 67.0737C136.745 67.0737 131.279 101.077 124.836 143.12C124.568 144.87 124.321 146.61 124.097 148.338C122.553 156.163 116.479 185.804 111.272 195.44C107.527 202.371 111.837 221.015 127.073 215.972C142.31 210.929 151.9 218.666 155.003 221.642C158.106 224.619 163.468 225.698 167.701 225.698C171.933 225.698 177.296 224.619 180.399 221.642C183.502 218.666 193.097 210.936 208.328 215.972C223.559 221.008 227.973 204.63 224.129 195.44C220.286 186.25 210.932 146.428 210.932 146.428H210.928Z" fill="url(#paint0_linear_1430_1880)"/>
<path d="M167.99 129.838C181.989 129.838 193.338 117.703 193.338 102.733C193.338 87.7626 181.989 75.627 167.99 75.627C153.99 75.627 142.641 87.7626 142.641 102.733C142.641 117.703 153.99 129.838 167.99 129.838Z" fill="#C2E7F7"/>
<path d="M135.389 131.517L136.955 172.689C136.955 172.689 136.859 174.129 138.255 174.496C139.652 174.864 136.602 133.393 136.602 133.393L135.389 131.517Z" fill="#D24D4D"/>
<path d="M136.606 133.391C136.53 135.465 138.259 174.495 138.259 174.495L169.149 171.22L169.964 131.726L136.606 133.391Z" fill="#D24D4D"/>
<path d="M135.389 131.517C135.534 137.865 136.9 171.365 136.9 171.365L167.79 168.09L168.578 128.515L136.327 130.248C135.584 130.315 135.381 130.998 135.389 131.517Z" fill="#D24D4D"/>
<path d="M136.94 133.416C136.94 133.416 135.91 133.628 135.789 131.985C135.695 130.694 136.562 130.747 136.562 130.747L167.531 129.153L168.98 131.787L136.94 133.416Z" fill="#F3E2E2"/>
<path d="M155.493 104.01C157.347 104.01 158.85 101.254 158.85 97.8538C158.85 94.4539 157.347 91.6978 155.493 91.6978C153.638 91.6978 152.135 94.4539 152.135 97.8538C152.135 101.254 153.638 104.01 155.493 104.01Z" fill="#000442"/>
<path d="M180.676 104.01C182.531 104.01 184.034 101.254 184.034 97.8538C184.034 94.4539 182.531 91.6978 180.676 91.6978C178.822 91.6978 177.318 94.4539 177.318 97.8538C177.318 101.254 178.822 104.01 180.676 104.01Z" fill="#000442"/>
<path d="M164.589 116.828C165.298 119.26 167.768 120.872 169.392 120.399C171.015 119.926 171.892 115.954 171.181 113.506C170.472 111.073 170.084 110.628 168.461 111.101C166.837 111.574 163.878 114.379 164.589 116.828Z" fill="#162947"/>
<path opacity="0.36" d="M200.117 197.586C200.422 200.194 204.007 202.236 204.007 202.236C204.007 202.236 209.953 203.884 211.476 198.903C212.998 193.922 206.797 190.971 205.938 191.167C205.086 191.379 199.629 193.441 200.117 197.586Z" fill="#BADAFF"/>
<path opacity="0.36" d="M178.229 199.119C178.625 202.515 183.297 205.182 183.297 205.182C183.297 205.182 191.042 207.325 193.031 200.842C195.02 194.361 186.936 190.509 185.815 190.769C184.695 191.028 177.591 193.72 178.229 199.119Z" fill="#BADAFF"/>
<path opacity="0.36" d="M164.614 203.89C164.782 205.351 166.798 206.506 166.798 206.506C166.798 206.506 170.139 207.429 170.998 204.632C171.858 201.834 168.371 200.176 167.888 200.288C167.404 200.4 164.341 201.558 164.614 203.89Z" fill="#357ED2"/>
<path opacity="0.36" d="M201.673 184.259C201.829 185.605 203.686 186.665 203.686 186.665C203.686 186.665 206.769 187.514 207.554 184.944C208.348 182.367 205.134 180.836 204.689 180.941C204.252 181.047 201.427 182.11 201.673 184.259Z" fill="#357ED2"/>
<path opacity="0.36" d="M175.298 209.861C175.375 210.535 176.304 211.065 176.304 211.065C176.304 211.065 177.845 211.493 178.239 210.204C178.632 208.915 177.028 208.15 176.805 208.199C176.583 208.255 175.167 208.791 175.298 209.861Z" fill="#BADAFF"/>
<path opacity="0.36" d="M195.083 193.569C195.16 194.241 196.089 194.772 196.089 194.772C196.089 194.772 197.631 195.2 198.024 193.911C198.417 192.622 196.813 191.857 196.591 191.906C196.376 191.955 194.96 192.49 195.083 193.569Z" fill="#83E9FF"/>
<g style="mix-blend-mode:color-burn">
<g style="mix-blend-mode:color-burn">
<path d="M195.129 163.972C187.318 163.972 185.365 159.983 182.111 143.781C180.439 137.799 177.178 127.533 191.624 141.366C196.131 145.681 197.472 146.469 198.609 143.781C200.365 139.627 200.867 136.866 201.62 134.858C203.923 128.718 209.401 126.831 209.401 138.796C209.401 154.751 204.894 163.972 195.129 163.972Z" fill="#3A83DA" fill-opacity="0.23"/>
</g>
</g>
<g style="mix-blend-mode:color-burn">
<g style="mix-blend-mode:color-burn">
<path fill-rule="evenodd" clip-rule="evenodd" d="M133.16 135.426C117.091 129.116 124.126 184.975 142.244 182.093C160.362 179.21 164.522 164.723 163.783 160.075C163.184 156.302 157.158 155.133 152.98 159.254C153.031 158.975 153.094 158.706 153.152 158.456C153.431 157.253 153.612 156.473 152.069 156.929C149.401 157.717 149.477 161.304 150.14 163.701C146.437 171.217 139.54 169.993 136.997 156.06C136.26 152.019 136.117 148.286 135.997 145.126C135.802 140.018 135.664 136.41 133.16 135.426Z" fill="#4891E6" fill-opacity="0.2"/>
</g>
</g>
<path d="M143.281 115.132L135.018 118.77L161.01 177.804L169.273 174.166L143.281 115.132Z" fill="#FFFEFE"/>
<path d="M143.716 117.368L141.273 118.443" stroke="#ACACAC"/>
<path d="M147.762 126.555L145.318 127.631" stroke="#ACACAC"/>
<path d="M151.808 135.744L149.364 136.82" stroke="#ACACAC"/>
<path d="M155.852 144.932L153.409 146.007" stroke="#ACACAC"/>
<path d="M159.898 154.12L157.455 155.196" stroke="#ACACAC"/>
<path d="M163.944 163.308L161.501 164.384" stroke="#ACACAC"/>
<path d="M167.988 172.496L165.545 173.571" stroke="#ACACAC"/>
<path d="M147.068 124.981L145.231 125.79M144.641 119.468L142.804 120.277L144.641 119.468ZM145.259 120.872L143.422 121.681L145.259 120.872ZM145.862 122.242L144.025 123.051L145.862 122.242ZM146.465 123.611L144.628 124.421L146.465 123.611Z" stroke="#ACACAC"/>
<path d="M151.114 134.17L149.276 134.979M148.686 128.657L146.849 129.466L148.686 128.657ZM149.304 130.06L147.467 130.869L149.304 130.06ZM149.908 131.43L148.07 132.239L149.908 131.43ZM150.51 132.8L148.673 133.609L150.51 132.8Z" stroke="#ACACAC"/>
<path d="M154.957 142.898L153.119 143.707M152.53 137.385L150.692 138.194L152.53 137.385ZM153.147 138.788L151.31 139.597L153.147 138.788ZM153.751 140.158L151.913 140.967L153.751 140.158ZM154.354 141.528L152.517 142.337L154.354 141.528Z" stroke="#ACACAC"/>
<path d="M159.204 152.545L157.366 153.354M156.777 147.032L154.939 147.841L156.777 147.032ZM157.395 148.436L155.557 149.245L157.395 148.436ZM157.998 149.806L156.16 150.615L157.998 149.806ZM158.601 151.175L156.764 151.985L158.601 151.175Z" stroke="#ACACAC"/>
<path d="M163.047 161.274L161.21 162.083M160.62 155.761L158.782 156.57L160.62 155.761ZM161.238 157.164L159.4 157.973L161.238 157.164ZM161.841 158.534L160.003 159.343L161.841 158.534ZM162.444 159.904L160.606 160.713L162.444 159.904Z" stroke="#ACACAC"/>
<path d="M167.296 170.922L165.459 171.731M164.869 165.409L163.031 166.218L164.869 165.409ZM165.487 166.813L163.649 167.622L165.487 166.813ZM166.09 168.182L164.253 168.992L166.09 168.182ZM166.693 169.552L164.855 170.362L166.693 169.552Z" stroke="#ACACAC"/>
<path fill-rule="evenodd" clip-rule="evenodd" d="M133.792 121.532C117.007 113.115 121.856 180.453 141.252 177.959C160.648 175.465 165.753 158.318 165.186 152.707C164.727 148.151 158.376 146.431 153.74 151.149C153.808 150.817 153.887 150.499 153.961 150.202C154.314 148.774 154.543 147.848 152.882 148.313C150.008 149.116 149.92 153.42 150.512 156.329C146.222 165.143 138.948 163.31 136.9 146.472C136.306 141.588 136.331 137.105 136.351 133.311C136.385 127.176 136.408 122.844 133.792 121.532Z" fill="url(#paint1_linear_1430_1880)"/>
<path fill-rule="evenodd" clip-rule="evenodd" d="M186.787 129.742C184.258 124.782 178.737 114.592 175.912 114.252C173.684 113.987 173.87 117.385 174.802 119.304C175.497 120.743 175.976 122.128 174.971 123.341C172.728 126.057 171.364 129.341 173.649 133.258C174.463 134.653 175.933 135.446 177.327 136.197C178.388 136.769 179.405 137.317 180.052 138.088C180.073 138.174 180.095 138.258 180.118 138.341C183.756 156.529 185.939 161.006 194.669 161.006C205.582 161.006 210.619 150.655 210.619 132.745C210.619 119.313 200.265 120.627 200.265 127.988V138.341C200.265 143.437 197.054 154.473 191.031 138.341C189.496 134.228 188.071 131.469 186.787 129.742Z" fill="url(#paint2_linear_1430_1880)"/>
<defs>
<linearGradient id="paint0_linear_1430_1880" x1="167.738" y1="44.5053" x2="167.72" y2="225.698" gradientUnits="userSpaceOnUse">
<stop stop-color="#96D2F4"/>
<stop offset="0.315625" stop-color="#65ACFF"/>
<stop offset="1" stop-color="#5391D9"/>
</linearGradient>
<linearGradient id="paint1_linear_1430_1880" x1="134.358" y1="131.595" x2="158.9" y2="135.219" gradientUnits="userSpaceOnUse">
<stop stop-color="#63A8FA"/>
<stop offset="1" stop-color="#4296F9"/>
</linearGradient>
<linearGradient id="paint2_linear_1430_1880" x1="205.386" y1="121.556" x2="165.245" y2="132.393" gradientUnits="userSpaceOnUse">
<stop stop-color="#63A9FA"/>
<stop offset="0.69995" stop-color="#4296F9"/>
</linearGradient>
</defs>
</svg>
