<svg width="341" height="266" viewBox="0 0 341 266" fill="none" xmlns="http://www.w3.org/2000/svg">
<path d="M328.347 216.22C304.381 221.423 224.574 219.881 214.748 216.22C204.921 212.559 204.202 196.181 223.615 206.2C214.748 185.968 231.284 174.599 248.54 183.848C235.598 164.579 231.045 130.088 255.011 128.161C287.365 125.463 289.282 157.257 284.489 180.187C302.224 161.304 328.587 176.141 311.571 198.107C335.297 184.619 343.446 212.945 328.347 216.22Z" fill="#51B57E"/>
<path d="M281.373 217.569C281.373 217.569 295.753 206.585 302.703 185.775" stroke="#328756" stroke-width="3" stroke-miterlimit="10" stroke-linecap="round" stroke-linejoin="round"/>
<path d="M257.167 217.569C257.167 217.569 252.853 202.154 235.837 195.41" stroke="#328756" stroke-width="3" stroke-miterlimit="10" stroke-linecap="round" stroke-linejoin="round"/>
<path d="M274.663 217.569C274.663 217.569 273.465 178.26 260.283 147.237" stroke="#328756" stroke-width="3" stroke-miterlimit="10" stroke-linecap="round" stroke-linejoin="round"/>
<path d="M253.333 157.064C253.333 157.064 253.812 171.324 270.349 180.765" stroke="#328756" stroke-width="3" stroke-miterlimit="10" stroke-linecap="round" stroke-linejoin="round"/>
<path d="M274.663 153.981C274.663 153.981 279.456 164.772 268.192 171.709" stroke="#328756" stroke-width="3" stroke-miterlimit="10" stroke-linecap="round" stroke-linejoin="round"/>
<path d="M257.167 187.509C257.167 187.509 262.2 199.841 273.704 203.888" stroke="#328756" stroke-width="3" stroke-miterlimit="10" stroke-linecap="round" stroke-linejoin="round"/>
<path d="M80.75 140.11C80.75 140.11 56.5624 69.0554 62.9807 42.4072C62.9807 42.4072 47.152 18.8252 63.1619 17.2219C79.1731 15.614 78.4229 23.6431 77.1777 28.7176C75.9311 33.7967 75.3067 34.9741 76.9722 36.5131C78.6377 38.0522 80.5024 32.016 82.4358 32.3917C86.8861 33.2581 84.8547 40.8714 75.4236 44.9046C75.4236 44.9046 73.9654 65.6871 102.946 114.441L80.75 140.11Z" fill="#8E6BC4"/>
<path d="M202.373 209.2C202.642 212.194 202.818 220.613 198.799 235.362C198.313 237.152 199.419 238.972 201.222 239.399C204.867 240.258 210.509 242.191 213.354 246.304C214.86 248.484 213.332 251.46 210.68 251.46H180.926C179.119 251.46 177.658 249.994 177.658 248.192V217.719C177.658 217.175 177.792 216.64 178.049 216.163L187.147 199.328C188.172 197.436 190.712 197.031 192.272 198.51L201.361 207.141C201.941 207.685 202.301 208.418 202.373 209.2Z" fill="#6F50A0"/>
<path d="M140.856 210.162C140.582 213.138 140.393 221.584 144.443 236.423C144.92 238.172 143.841 239.961 142.074 240.374C138.366 241.238 132.517 243.229 129.712 247.531C128.332 249.644 129.892 252.449 132.418 252.449H162.366C164.132 252.449 165.566 251.015 165.566 249.248V218.689C165.566 218.159 165.436 217.633 165.18 217.165L156.032 200.236C155.03 198.384 152.539 197.984 151.011 199.436L141.84 208.143C141.283 208.678 140.928 209.393 140.856 210.162Z" fill="#6F50A0"/>
<path d="M252.984 106.413C252.984 106.413 284.336 173.944 273.857 201.048C273.857 201.048 280.422 225.671 261.764 224.119C244.999 222.722 253.713 220.473 255.736 215.308C257.76 210.143 258.623 208.934 256.847 207.431C255.076 205.927 255.036 213.145 251.888 212.615C249.686 212.243 248.12 203.273 259.594 198.91C259.594 198.91 279.638 197.491 231.269 132.834L252.984 106.413Z" fill="#7B59AF"/>
<path fill-rule="evenodd" clip-rule="evenodd" d="M132.123 39.9044C144.444 31.1981 157.564 26.3457 169.988 26.3457C179.946 26.3457 192.725 31.1741 205.551 40.1578C207.394 32.9459 210.345 28.2741 213.67 28.2741C219.048 28.2741 223.445 40.4914 223.766 55.9114C239.313 72.2076 252.784 94.6934 258.486 121.987C270.192 178.02 267.715 225.697 169.903 225.697C75.4526 225.697 69.7661 176.227 81.3279 121.987C86.9407 95.6486 99.0343 72.9246 113.967 56.2427C114.231 40.6668 118.653 28.2741 124.069 28.2741C127.355 28.2741 130.275 32.8366 132.123 39.9044Z" fill="url(#paint0_linear_1430_1879)"/>
<path d="M180.241 93.5657C170.808 94.3156 170.808 94.3156 164.212 91.7285C157.39 89.0476 157.24 107.401 168.29 108.657C182.026 110.213 184.788 93.1908 180.241 93.5657Z" fill="#000442"/>
<mask id="mask0_1430_1879" style="mask-type:alpha" maskUnits="userSpaceOnUse" x="159" y="91" width="24" height="18">
<path d="M180.241 93.5657C170.808 94.3156 170.808 94.3156 164.212 91.7285C157.39 89.0476 157.24 107.401 168.29 108.657C182.026 110.213 184.788 93.1908 180.241 93.5657Z" fill="#000442"/>
</mask>
<g mask="url(#mask0_1430_1879)">
<path d="M159.663 102.302C159.663 102.302 166.523 100.014 170.882 103.576C175.242 107.138 175.317 110.794 171.39 111.582C167.462 112.369 159.024 108.488 159.663 102.302Z" fill="#EFA0B7"/>
</g>
<mask id="mask1_1430_1879" style="mask-type:alpha" maskUnits="userSpaceOnUse" x="159" y="91" width="24" height="18">
<path d="M180.241 93.5657C170.808 94.3156 170.808 94.3156 164.212 91.7285C157.39 89.0476 157.24 107.401 168.29 108.657C182.026 110.213 184.788 93.1908 180.241 93.5657Z" fill="#000442"/>
</mask>
<g mask="url(#mask1_1430_1879)">
<path d="M165.048 94.6862C164.432 94.3612 164.383 93.2449 164.938 92.1929C165.493 91.1408 166.443 90.5514 167.059 90.8764C167.675 91.2014 167.724 92.3177 167.169 93.3697C166.614 94.4218 165.664 95.0112 165.048 94.6862Z" fill="#FCFCFC"/>
<path d="M177.153 95.8357C176.475 96.0106 175.702 95.288 175.427 94.2216C175.152 93.1553 175.479 92.149 176.158 91.974C176.837 91.7991 177.61 92.5217 177.884 93.5881C178.159 94.6544 177.832 95.6607 177.153 95.8357Z" fill="#FCFCFC"/>
</g>
<path d="M161.107 87.9351C158.783 87.9351 156.899 86.0512 156.899 83.7276C156.899 81.404 158.783 79.52 161.107 79.52C163.43 79.52 165.314 81.404 165.314 83.7276C165.314 86.0512 163.43 87.9351 161.107 87.9351Z" fill="#000442"/>
<path d="M182.342 87.859C180.06 87.859 178.21 86.0096 178.21 83.7278C178.21 81.4465 180.06 79.5967 182.342 79.5967C184.623 79.5967 186.473 81.4465 186.473 83.7278C186.473 86.0096 184.623 87.859 182.342 87.859Z" fill="#000442"/>
<path opacity="0.19" d="M170.739 216.626C139.21 216.626 113.65 196.299 113.65 171.224C113.65 146.149 139.21 125.822 170.739 125.822C202.269 125.822 227.829 146.149 227.829 171.224C227.829 196.299 202.269 216.626 170.739 216.626Z" fill="#F1F2F2"/>
<path opacity="0.47" d="M202.92 38.573C203.397 37.8672 208.642 50.4449 190.841 46.8532C173.04 43.2615 153.657 37.7144 153.657 37.7144L202.92 38.573Z" fill="#694B97"/>
<path d="M157.008 17.1339C153.381 17.1339 150.441 14.1938 150.441 10.567C150.441 6.94012 153.381 4 157.008 4C160.635 4 163.575 6.94012 163.575 10.567C163.575 14.1938 160.635 17.1339 157.008 17.1339Z" fill="#FFAC0B"/>
<path d="M188.943 39.7635C190.029 24.6533 179.586 10.1504 165.506 10.5776C148.265 11.0974 139.222 20.9993 138.137 36.1095" fill="#FDCE1B"/>
<path d="M138.075 36.0987C138.075 36.0987 162.737 36.2686 170.946 32.7586C179.154 29.2487 195.294 19.9386 202.406 29.1921C209.519 38.4455 199.535 40.9313 196.014 41.1886C181.496 42.2437 138.075 36.0987 138.075 36.0987Z" fill="#B06A42"/>
<mask id="mask2_1430_1879" style="mask-type:alpha" maskUnits="userSpaceOnUse" x="76" y="26" width="188" height="200">
<path fill-rule="evenodd" clip-rule="evenodd" d="M132.151 40.0145C144.463 31.321 157.573 26.4761 169.987 26.4761C179.937 26.4761 192.705 31.2975 205.522 40.2685C207.363 32.9937 210.327 28.2742 213.669 28.2742C219.062 28.2742 223.469 40.5618 223.767 56.0445C239.313 72.3403 252.784 94.8256 258.485 122.117C270.191 178.151 267.714 225.827 169.902 225.827C75.4517 225.827 69.7652 176.357 81.327 122.117C86.9398 95.7804 99.0324 73.0569 113.964 56.3758C114.205 40.7373 118.637 28.2742 124.068 28.2742C127.371 28.2742 130.305 32.8841 132.151 40.0145Z" fill="url(#paint1_linear_1430_1879)"/>
</mask>
<g mask="url(#mask2_1430_1879)">
<path d="M158.726 225.841C92.1962 216.955 79.684 166.129 77.3618 146.949C71.7427 149.422 60.2349 155.131 59.156 158.187C58.0771 161.244 64.9998 194.074 68.596 210.108C103.809 221.571 197.741 231.052 158.726 225.841Z" fill="#7A59AD"/>
</g>
<path d="M124.347 258.22C100.381 263.423 20.5737 261.881 10.7476 258.22C0.921432 254.559 0.202438 238.181 19.615 248.2C10.7476 227.968 27.2842 216.599 44.5398 225.848C31.5981 206.579 27.0445 172.088 51.0107 170.161C83.365 167.463 85.2823 199.257 80.4891 222.187C98.2241 203.304 124.587 218.141 107.571 240.107C131.297 226.619 139.446 254.945 124.347 258.22Z" fill="#51B57E"/>
<path d="M77.3732 259.569C77.3732 259.569 91.7529 248.585 98.7031 227.775" stroke="#328756" stroke-width="3" stroke-miterlimit="10" stroke-linecap="round" stroke-linejoin="round"/>
<path d="M53.167 259.569C53.167 259.569 48.8531 244.154 31.8371 237.41" stroke="#328756" stroke-width="3" stroke-miterlimit="10" stroke-linecap="round" stroke-linejoin="round"/>
<path d="M70.6631 259.569C70.6631 259.569 69.4648 220.26 56.2834 189.237" stroke="#328756" stroke-width="3" stroke-miterlimit="10" stroke-linecap="round" stroke-linejoin="round"/>
<path d="M49.3327 199.064C49.3327 199.064 49.812 213.324 66.3486 222.765" stroke="#328756" stroke-width="3" stroke-miterlimit="10" stroke-linecap="round" stroke-linejoin="round"/>
<path d="M70.6625 195.981C70.6625 195.981 75.4558 206.772 64.1917 213.709" stroke="#328756" stroke-width="3" stroke-miterlimit="10" stroke-linecap="round" stroke-linejoin="round"/>
<path d="M53.1674 229.509C53.1674 229.509 58.2003 241.841 69.7041 245.888" stroke="#328756" stroke-width="3" stroke-miterlimit="10" stroke-linecap="round" stroke-linejoin="round"/>
<defs>
<linearGradient id="paint0_linear_1430_1879" x1="170.15" y1="26.3457" x2="226.706" y2="215.502" gradientUnits="userSpaceOnUse">
<stop stop-color="#A585D7"/>
<stop offset="0.414583" stop-color="#8F6BC6"/>
<stop offset="1" stop-color="#7A56B1"/>
</linearGradient>
<linearGradient id="paint1_linear_1430_1879" x1="170.149" y1="26.3458" x2="170.149" y2="225.697" gradientUnits="userSpaceOnUse">
<stop stop-color="#A08667"/>
<stop offset="1" stop-color="#81694D"/>
</linearGradient>
</defs>
</svg>
