<svg width="267" height="205" viewBox="0 0 267 205" fill="none" xmlns="http://www.w3.org/2000/svg">
<path d="M120.347 196.22C96.381 201.423 16.5737 199.881 6.74756 196.22C-3.07857 192.559 -3.79756 176.181 15.615 186.2C6.74755 165.968 23.2842 154.599 40.5398 163.848C27.5981 144.579 23.0445 110.088 47.0107 108.161C79.365 105.463 81.2823 137.257 76.4891 160.187C94.2241 141.304 120.587 156.141 103.571 178.107C127.297 164.619 135.446 192.945 120.347 196.22Z" fill="#51B57E"/>
<path d="M73.3737 197.569C73.3737 197.569 87.7534 186.585 94.7036 165.775" stroke="#328756" stroke-width="3" stroke-miterlimit="10" stroke-linecap="round" stroke-linejoin="round"/>
<path d="M49.1675 197.569C49.1675 197.569 44.8536 182.154 27.8376 175.41" stroke="#328756" stroke-width="3" stroke-miterlimit="10" stroke-linecap="round" stroke-linejoin="round"/>
<path d="M66.6631 197.569C66.6631 197.569 65.4648 158.26 52.2834 127.237" stroke="#328756" stroke-width="3" stroke-miterlimit="10" stroke-linecap="round" stroke-linejoin="round"/>
<path d="M45.3331 137.064C45.3331 137.064 45.8125 151.324 62.3491 160.765" stroke="#328756" stroke-width="3" stroke-miterlimit="10" stroke-linecap="round" stroke-linejoin="round"/>
<path d="M66.663 133.981C66.663 133.981 71.4563 144.772 60.1922 151.709" stroke="#328756" stroke-width="3" stroke-miterlimit="10" stroke-linecap="round" stroke-linejoin="round"/>
<path d="M49.1679 167.509C49.1679 167.509 54.2008 179.841 65.7046 183.888" stroke="#328756" stroke-width="3" stroke-miterlimit="10" stroke-linecap="round" stroke-linejoin="round"/>
<path d="M259.347 168.22C235.381 173.423 155.574 171.881 145.748 168.22C135.921 164.559 135.202 148.181 154.615 158.2C145.748 137.968 162.284 126.599 179.54 135.848C166.598 116.579 162.045 82.0878 186.011 80.1609C218.365 77.4633 220.282 109.257 215.489 132.187C233.224 113.304 259.587 128.141 242.571 150.107C266.297 136.619 274.446 164.945 259.347 168.22Z" fill="#51B57E"/>
<path d="M212.374 169.569C212.374 169.569 226.753 158.585 233.704 137.775" stroke="#328756" stroke-width="3" stroke-miterlimit="10" stroke-linecap="round" stroke-linejoin="round"/>
<path d="M188.167 169.569C188.167 169.569 183.854 154.154 166.838 147.41" stroke="#328756" stroke-width="3" stroke-miterlimit="10" stroke-linecap="round" stroke-linejoin="round"/>
<path d="M205.663 169.569C205.663 169.569 204.465 130.26 191.283 99.2373" stroke="#328756" stroke-width="3" stroke-miterlimit="10" stroke-linecap="round" stroke-linejoin="round"/>
<path d="M184.333 109.064C184.333 109.064 184.812 123.324 201.349 132.765" stroke="#328756" stroke-width="3" stroke-miterlimit="10" stroke-linecap="round" stroke-linejoin="round"/>
<path d="M205.663 105.981C205.663 105.981 210.456 116.772 199.192 123.709" stroke="#328756" stroke-width="3" stroke-miterlimit="10" stroke-linecap="round" stroke-linejoin="round"/>
<path d="M188.168 139.509C188.168 139.509 193.201 151.841 204.705 155.888" stroke="#328756" stroke-width="3" stroke-miterlimit="10" stroke-linecap="round" stroke-linejoin="round"/>
<path d="M115.566 198.329H115.29C111.917 198.329 109.158 195.578 109.158 192.217V156.754C109.158 153.393 111.917 150.643 115.29 150.643H115.574C118.947 150.643 121.707 153.393 121.707 156.754V192.217C121.699 195.578 118.939 198.329 115.566 198.329Z" fill="#3E71AC"/>
<path d="M106.325 179.723V194.339C106.325 195 105.739 195.584 104.894 195.751C102.428 196.253 97.5093 197.703 96.1846 201.378C94.662 205.592 115.949 204.924 122.397 204.627C123.425 204.582 124.217 203.936 124.217 203.162V179.715C124.217 178.903 123.349 178.25 122.275 178.25H108.267C107.193 178.258 106.325 178.911 106.325 179.723Z" fill="#F77F73"/>
<path d="M142.395 198.329H142.679C146.052 198.329 148.812 195.578 148.812 192.217V156.754C148.812 153.393 146.052 150.643 142.679 150.643H142.395C139.022 150.643 136.263 153.393 136.263 156.754V192.217C136.263 195.578 139.022 198.329 142.395 198.329Z" fill="#3E71AC"/>
<path d="M151.146 180.065V194.062C151.146 194.875 151.854 195.589 152.881 195.817C155.431 196.378 160.013 197.852 161.284 201.376C162.768 205.492 142.461 204.953 135.527 204.649C134.248 204.596 133.251 203.791 133.251 202.826V180.073C133.251 179.063 134.332 178.25 135.664 178.25H148.725C150.065 178.243 151.146 179.055 151.146 180.065Z" fill="#F77F73"/>
<path d="M140.4 44.8825C138.302 43.1111 138.028 39.9423 139.79 37.8431L169.926 1.9738C171.696 -0.125793 174.861 -0.400668 176.959 1.36301C179.057 3.13433 179.331 6.30284 177.569 8.40243L147.433 44.2716C145.67 46.3713 142.505 46.6459 140.4 44.8825Z" fill="#4E96EC"/>
<path d="M161.032 20.5116C160.795 17.7709 162.84 15.3427 165.578 15.1061L175.997 14.2052C178.736 13.9685 181.161 16.0146 181.398 18.7557C181.634 21.4964 179.59 23.9244 176.852 24.1613L166.432 25.0618C163.694 25.2912 161.269 23.2447 161.032 20.5116Z" fill="#4E96EC"/>
<path d="M160.902 20.4039C163.64 20.1675 165.685 17.7319 165.448 14.9984L164.548 4.56904C164.312 1.82809 161.879 -0.218043 159.148 0.0186305C156.41 0.255304 154.366 2.69086 154.602 5.42417L155.502 15.8535C155.739 18.5943 158.172 20.6408 160.902 20.4039Z" fill="#4E96EC"/>
<path d="M118.768 44.8825C120.865 43.1111 121.14 39.9423 119.378 37.8431L89.2416 1.9738C87.472 -0.125793 84.3065 -0.400668 82.209 1.36301C80.1037 3.13433 79.8368 6.29521 81.5988 8.40243L111.735 44.2716C113.505 46.3789 116.67 46.6459 118.768 44.8825Z" fill="#4E96EC"/>
<path d="M98.1431 20.5116C98.3795 17.7709 96.3353 15.3427 93.597 15.1061L83.1778 14.2052C80.4394 13.9685 78.0139 16.0146 77.7774 18.7557C77.541 21.4964 79.5852 23.9244 82.3234 24.1613L92.7427 25.0618C95.4734 25.2987 97.9066 23.2528 98.1431 20.5116Z" fill="#4E96EC"/>
<path d="M98.2648 20.4039C95.5266 20.1675 93.4824 17.7319 93.7188 14.9984L94.6189 4.56904C94.8553 1.82809 97.2885 -0.218043 100.019 0.0186305C102.758 0.255304 104.801 2.69086 104.565 5.42417L103.665 15.8535C103.429 18.5943 101.003 20.6408 98.2648 20.4039Z" fill="#4E96EC"/>
<path d="M147.558 38.2032C149.083 38.2032 150.318 35.7311 150.318 32.6817C150.318 29.6323 149.083 27.1602 147.558 27.1602C146.033 27.1602 144.797 29.6323 144.797 32.6817C144.797 35.7311 146.033 38.2032 147.558 38.2032Z" fill="#84EFDD"/>
<path d="M114.429 38.2032C115.954 38.2032 117.19 35.8435 117.19 32.9327C117.19 30.0218 115.954 27.6621 114.429 27.6621C112.904 27.6621 111.668 30.0218 111.668 32.9327C111.668 35.8435 112.904 38.2032 114.429 38.2032Z" fill="#84EFDD"/>
<path fill-rule="evenodd" clip-rule="evenodd" d="M172.928 89.428C172.839 88.8558 172.747 88.282 172.653 87.7073C172.485 86.6828 172.318 85.6618 172.152 84.6448C165.576 44.3551 159.981 10.0737 129.744 10.0737C98.7449 10.0737 93.2786 44.0765 86.8364 86.1201C86.5683 87.8699 86.3212 89.6102 86.0973 91.3384C84.5527 99.1635 78.4787 128.804 73.272 138.44C69.5268 145.371 73.8367 164.015 89.0733 158.972C104.31 153.929 113.9 161.666 117.003 164.642C120.106 167.619 125.468 168.698 129.701 168.698C133.933 168.698 139.296 167.619 142.399 164.642C145.502 161.666 155.097 153.936 170.328 158.972C185.559 164.008 189.973 147.63 186.129 138.44C182.286 129.25 172.932 89.428 172.932 89.428H172.928Z" fill="url(#paint0_linear_939_360)"/>
<path d="M129.989 72.8385C143.989 72.8385 155.338 60.7028 155.338 45.7327C155.338 30.7626 143.989 18.627 129.989 18.627C115.989 18.627 104.64 30.7626 104.64 45.7327C104.64 60.7028 115.989 72.8385 129.989 72.8385Z" fill="#C2E7F7"/>
<path d="M97.3887 74.5166L98.9553 115.689C98.9553 115.689 98.8589 117.129 100.255 117.496C101.652 117.864 98.6018 76.3929 98.6018 76.3929L97.3887 74.5166Z" fill="#D24D4D"/>
<path d="M98.6059 76.3911C98.5304 78.4652 100.259 117.495 100.259 117.495L131.149 114.22L131.964 74.7256L98.6059 76.3911Z" fill="#D24D4D"/>
<path d="M97.3889 74.5169C97.5343 80.8651 98.9003 114.365 98.9003 114.365L129.79 111.09L130.578 71.5146L98.3267 73.2484C97.5841 73.3147 97.3815 73.9983 97.3889 74.5169Z" fill="#D24D4D"/>
<path d="M98.9395 76.4165C98.9395 76.4165 97.9105 76.6278 97.7894 74.9849C97.6952 73.6938 98.5622 73.7465 98.5622 73.7465L129.531 72.1533L130.98 74.7871L98.9395 76.4165Z" fill="#F3E2E2"/>
<path d="M117.493 47.0098C119.348 47.0098 120.851 44.2537 120.851 40.8538C120.851 37.4539 119.348 34.6978 117.493 34.6978C115.639 34.6978 114.135 37.4539 114.135 40.8538C114.135 44.2537 115.639 47.0098 117.493 47.0098Z" fill="#000442"/>
<path d="M142.677 47.0098C144.531 47.0098 146.034 44.2537 146.034 40.8538C146.034 37.4539 144.531 34.6978 142.677 34.6978C140.822 34.6978 139.319 37.4539 139.319 40.8538C139.319 44.2537 140.822 47.0098 142.677 47.0098Z" fill="#000442"/>
<path d="M126.589 59.8276C127.298 62.2596 129.768 63.8719 131.392 63.399C133.015 62.9262 133.892 58.9542 133.181 56.5056C132.472 54.0731 132.084 53.6284 130.461 54.1012C128.837 54.5736 125.878 57.379 126.589 59.8276Z" fill="#162947"/>
<path opacity="0.36" d="M162.117 140.586C162.422 143.194 166.007 145.236 166.007 145.236C166.007 145.236 171.953 146.884 173.476 141.903C174.998 136.922 168.797 133.971 167.938 134.167C167.086 134.379 161.629 136.441 162.117 140.586Z" fill="#BADAFF"/>
<path opacity="0.36" d="M140.229 142.119C140.625 145.515 145.298 148.182 145.298 148.182C145.298 148.182 153.043 150.325 155.032 143.842C157.02 137.361 148.936 133.509 147.816 133.769C146.696 134.028 139.592 136.72 140.229 142.119Z" fill="#BADAFF"/>
<path opacity="0.36" d="M126.614 146.89C126.782 148.351 128.798 149.506 128.798 149.506C128.798 149.506 132.139 150.429 132.998 147.632C133.858 144.834 130.371 143.176 129.888 143.288C129.404 143.4 126.341 144.558 126.614 146.89Z" fill="#357ED2"/>
<path opacity="0.36" d="M163.674 127.259C163.829 128.605 165.686 129.665 165.686 129.665C165.686 129.665 168.769 130.514 169.555 127.944C170.349 125.367 167.135 123.836 166.69 123.941C166.252 124.047 163.428 125.11 163.674 127.259Z" fill="#357ED2"/>
<path opacity="0.36" d="M137.298 152.861C137.375 153.535 138.304 154.065 138.304 154.065C138.304 154.065 139.845 154.493 140.239 153.204C140.632 151.915 139.028 151.15 138.805 151.199C138.583 151.255 137.167 151.791 137.298 152.861Z" fill="#BADAFF"/>
<path opacity="0.36" d="M157.082 136.569C157.16 137.241 158.089 137.772 158.089 137.772C158.089 137.772 159.63 138.2 160.023 136.911C160.416 135.622 158.813 134.857 158.591 134.906C158.376 134.955 156.96 135.49 157.082 136.569Z" fill="#83E9FF"/>
<g style="mix-blend-mode:color-burn">
<g style="mix-blend-mode:color-burn">
<path d="M157.129 106.972C149.318 106.972 147.365 102.983 144.111 86.7812C142.439 80.7988 139.178 70.5333 153.624 84.3657C158.131 88.6811 159.472 89.4687 160.609 86.7812C162.365 82.627 162.867 79.8662 163.62 77.8583C165.923 71.7184 171.401 69.8305 171.401 81.7957C171.401 97.751 166.894 106.972 157.129 106.972Z" fill="#3A83DA" fill-opacity="0.23"/>
</g>
</g>
<g style="mix-blend-mode:color-burn">
<g style="mix-blend-mode:color-burn">
<path fill-rule="evenodd" clip-rule="evenodd" d="M95.16 78.4261C79.091 72.1165 86.1261 127.975 104.244 125.093C122.362 122.21 126.523 107.723 125.784 103.075C125.184 99.3016 119.158 98.1335 114.98 102.254C115.032 101.975 115.094 101.706 115.152 101.456C115.432 100.253 115.612 99.4727 114.07 99.9285C111.401 100.717 111.478 104.304 112.141 106.701C108.438 114.217 101.541 112.993 98.9978 99.0601C98.2602 95.0188 98.1179 91.2858 97.9974 88.1264C97.8026 83.018 97.6649 79.4099 95.16 78.4261Z" fill="#4891E6" fill-opacity="0.2"/>
</g>
</g>
<path d="M105.28 58.1318L97.0171 61.77L123.009 120.804L131.272 117.166L105.28 58.1318Z" fill="#FFFEFE"/>
<path d="M105.716 60.3677L103.273 61.4434" stroke="#ACACAC"/>
<path d="M109.762 69.5552L107.318 70.6309" stroke="#ACACAC"/>
<path d="M113.808 78.7441L111.364 79.8198" stroke="#ACACAC"/>
<path d="M117.852 87.9316L115.409 89.0073" stroke="#ACACAC"/>
<path d="M121.898 97.1201L119.455 98.1958" stroke="#ACACAC"/>
<path d="M125.944 106.308L123.501 107.384" stroke="#ACACAC"/>
<path d="M129.988 115.496L127.545 116.571" stroke="#ACACAC"/>
<path d="M109.068 67.9813L107.231 68.7904M106.641 62.4683L104.804 63.2774L106.641 62.4683ZM107.259 63.8717L105.422 64.6809L107.259 63.8717ZM107.862 65.2416L106.025 66.0507L107.862 65.2416ZM108.465 66.6114L106.628 67.4206L108.465 66.6114Z" stroke="#ACACAC"/>
<path d="M113.114 77.1697L111.276 77.9789M110.686 71.6572L108.849 72.4664L110.686 71.6572ZM111.304 73.0602L109.467 73.8694L111.304 73.0602ZM111.908 74.43L110.07 75.2392L111.908 74.43ZM112.51 75.7999L110.673 76.6091L112.51 75.7999Z" stroke="#ACACAC"/>
<path d="M116.958 85.8978L115.12 86.7069M114.531 80.3853L112.693 81.1944L114.531 80.3853ZM115.148 81.7882L113.311 82.5974L115.148 81.7882ZM115.751 83.1581L113.914 83.9672L115.751 83.1581ZM116.355 84.5279L114.517 85.3371L116.355 84.5279Z" stroke="#ACACAC"/>
<path d="M121.204 95.5452L119.366 96.3544M118.777 90.0322L116.939 90.8414L118.777 90.0322ZM119.395 91.4357L117.557 92.2449L119.395 91.4357ZM119.998 92.8056L118.16 93.6147L119.998 92.8056ZM120.601 94.1754L118.764 94.9846L120.601 94.1754Z" stroke="#ACACAC"/>
<path d="M125.048 104.274L123.21 105.083M122.62 98.7607L120.783 99.5699L122.62 98.7607ZM123.238 100.164L121.401 100.973L123.238 100.164ZM123.842 101.534L122.004 102.343L123.842 101.534ZM124.445 102.904L122.607 103.713L124.445 102.904Z" stroke="#ACACAC"/>
<path d="M129.296 113.922L127.459 114.731M126.869 108.409L125.031 109.218L126.869 108.409ZM127.487 109.813L125.649 110.622L127.487 109.813ZM128.09 111.182L126.253 111.992L128.09 111.182ZM128.693 112.552L126.855 113.362L128.693 112.552Z" stroke="#ACACAC"/>
<path fill-rule="evenodd" clip-rule="evenodd" d="M95.7914 64.5319C79.0061 56.1145 83.8551 123.453 103.251 120.959C122.648 118.465 127.753 101.318 127.186 95.7065C126.726 91.1513 120.375 89.431 115.74 94.1494C115.808 93.8172 115.887 93.4989 115.96 93.2023C116.313 91.7742 116.543 90.8481 114.881 91.3129C112.008 92.116 111.92 96.4198 112.512 99.3292C108.221 108.143 100.947 106.31 98.8998 89.4717C98.3059 84.5876 98.3303 80.1052 98.3509 76.3113C98.3844 70.1764 98.4079 65.844 95.7914 64.5319Z" fill="url(#paint1_linear_939_360)"/>
<path fill-rule="evenodd" clip-rule="evenodd" d="M148.787 72.7424C146.257 67.7821 140.736 57.5918 137.911 57.2525C135.684 56.9869 135.869 60.3847 136.801 62.3037C137.497 63.7428 137.975 65.1277 136.97 66.3409C134.727 69.057 133.364 72.3409 135.648 76.2581C136.462 77.6526 137.933 78.4457 139.327 79.1971C140.388 79.7694 141.404 80.317 142.052 81.0885C142.072 81.1738 142.095 81.2577 142.118 81.341C145.755 99.5295 147.938 104.006 156.668 104.006C167.581 104.006 172.618 93.655 172.618 75.7446C172.618 62.3132 162.265 63.6269 162.265 70.9876V81.341C162.265 86.4369 159.053 97.4729 153.031 81.341C151.495 77.2279 150.071 74.4692 148.787 72.7424Z" fill="url(#paint2_linear_939_360)"/>
<defs>
<linearGradient id="paint0_linear_939_360" x1="129.738" y1="-12.4947" x2="129.72" y2="168.698" gradientUnits="userSpaceOnUse">
<stop stop-color="#96D2F4"/>
<stop offset="0.315625" stop-color="#65ACFF"/>
<stop offset="1" stop-color="#5391D9"/>
</linearGradient>
<linearGradient id="paint1_linear_939_360" x1="96.3571" y1="74.5951" x2="120.9" y2="78.2188" gradientUnits="userSpaceOnUse">
<stop stop-color="#63A8FA"/>
<stop offset="1" stop-color="#4296F9"/>
</linearGradient>
<linearGradient id="paint2_linear_939_360" x1="167.386" y1="64.5565" x2="127.245" y2="75.3928" gradientUnits="userSpaceOnUse">
<stop stop-color="#63A9FA"/>
<stop offset="0.69995" stop-color="#4296F9"/>
</linearGradient>
</defs>
</svg>
