<svg width="329" height="258" viewBox="0 0 329 258" fill="none" xmlns="http://www.w3.org/2000/svg">
<path d="M321.347 225.22C297.381 230.423 217.574 228.881 207.748 225.22C197.921 221.559 197.202 205.181 216.615 215.2C207.748 194.968 224.284 183.599 241.54 192.848C228.598 173.579 224.045 139.088 248.011 137.161C280.365 134.463 282.282 166.257 277.489 189.187C295.224 170.304 321.587 185.141 304.571 207.107C328.297 193.619 336.446 221.945 321.347 225.22Z" fill="#51B57E"/>
<path d="M274.374 226.569C274.374 226.569 288.753 215.585 295.704 194.775" stroke="#328756" stroke-width="3" stroke-miterlimit="10" stroke-linecap="round" stroke-linejoin="round"/>
<path d="M250.167 226.569C250.167 226.569 245.854 211.154 228.838 204.41" stroke="#328756" stroke-width="3" stroke-miterlimit="10" stroke-linecap="round" stroke-linejoin="round"/>
<path d="M267.663 226.569C267.663 226.569 266.465 187.26 253.283 156.237" stroke="#328756" stroke-width="3" stroke-miterlimit="10" stroke-linecap="round" stroke-linejoin="round"/>
<path d="M246.333 166.064C246.333 166.064 246.812 180.324 263.349 189.765" stroke="#328756" stroke-width="3" stroke-miterlimit="10" stroke-linecap="round" stroke-linejoin="round"/>
<path d="M267.663 162.981C267.663 162.981 272.456 173.772 261.192 180.709" stroke="#328756" stroke-width="3" stroke-miterlimit="10" stroke-linecap="round" stroke-linejoin="round"/>
<path d="M250.168 196.509C250.168 196.509 255.201 208.841 266.705 212.888" stroke="#328756" stroke-width="3" stroke-miterlimit="10" stroke-linecap="round" stroke-linejoin="round"/>
<path d="M76.7505 136.11C76.7505 136.11 52.5629 65.0556 58.9812 38.4074C58.9812 38.4074 43.1525 14.8255 59.1624 13.2221C75.1736 11.6143 74.4233 19.6433 73.1782 24.7178C71.9316 29.7969 71.3072 30.9744 72.9727 32.5134C74.6382 34.0524 76.5028 28.0162 78.4363 28.392C82.8866 29.2584 80.8552 36.8716 71.4241 40.9049C71.4241 40.9049 69.9658 61.6873 98.9468 110.442L76.7505 136.11Z" fill="#8E6BC4"/>
<path d="M198.373 205.2C198.642 208.194 198.818 216.613 194.799 231.362C194.313 233.152 195.419 234.972 197.222 235.399C200.867 236.258 206.509 238.191 209.354 242.304C210.86 244.484 209.332 247.46 206.68 247.46H176.926C175.119 247.46 173.658 245.994 173.658 244.192V213.719C173.658 213.175 173.792 212.64 174.049 212.163L183.147 195.328C184.172 193.436 186.712 193.031 188.272 194.51L197.361 203.141C197.941 203.685 198.301 204.418 198.373 205.2Z" fill="#6F50A0"/>
<path d="M136.855 206.162C136.581 209.138 136.392 217.584 140.443 232.423C140.919 234.172 139.84 235.961 138.074 236.374C134.365 237.238 128.517 239.229 125.712 243.531C124.332 245.644 125.892 248.449 128.418 248.449H158.365C160.132 248.449 161.566 247.015 161.566 245.248V214.689C161.566 214.159 161.436 213.633 161.179 213.165L152.031 196.236C151.029 194.384 148.539 193.984 147.01 195.436L137.84 204.143C137.283 204.678 136.927 205.393 136.855 206.162Z" fill="#6F50A0"/>
<path d="M248.984 102.413C248.984 102.413 280.336 169.944 269.857 197.048C269.857 197.048 276.422 221.671 257.764 220.119C240.999 218.722 249.713 216.473 251.736 211.308C253.76 206.143 254.623 204.934 252.847 203.431C251.076 201.927 251.036 209.145 247.888 208.615C245.686 208.243 244.12 199.273 255.594 194.91C255.594 194.91 275.638 193.491 227.269 128.834L248.984 102.413Z" fill="#7B59AF"/>
<path fill-rule="evenodd" clip-rule="evenodd" d="M128.123 35.9046C140.443 27.1984 153.564 22.3459 165.987 22.3459C175.945 22.3459 188.724 27.1744 201.55 36.1581C203.394 28.9461 206.344 24.2744 209.67 24.2744C215.047 24.2744 219.445 36.4916 219.765 51.9117C235.312 68.2079 248.784 90.6936 254.486 117.987C266.191 174.02 263.714 221.697 165.902 221.697C71.4521 221.697 65.7657 172.227 77.3275 117.987C82.9402 91.6489 95.0338 68.9249 109.967 52.243C110.231 36.6671 114.652 24.2744 120.068 24.2744C123.355 24.2744 126.275 28.8369 128.123 35.9046Z" fill="url(#paint0_linear_939_359)"/>
<path d="M176.242 89.5657C166.808 90.3156 166.808 90.3156 160.212 87.7285C153.391 85.0476 153.241 103.401 164.29 104.657C178.027 106.213 180.789 89.1908 176.242 89.5657Z" fill="#000442"/>
<mask id="mask0_939_359" style="mask-type:alpha" maskUnits="userSpaceOnUse" x="155" y="87" width="24" height="18">
<path d="M176.241 89.5657C166.808 90.3156 166.808 90.3156 160.212 87.7285C153.39 85.0476 153.24 103.401 164.29 104.657C178.026 106.213 180.788 89.1908 176.241 89.5657Z" fill="#000442"/>
</mask>
<g mask="url(#mask0_939_359)">
<path d="M155.664 98.3015C155.664 98.3015 162.523 96.0144 166.883 99.5764C171.242 103.138 171.318 106.794 167.391 107.582C163.463 108.369 155.025 104.488 155.664 98.3015Z" fill="#EFA0B7"/>
</g>
<mask id="mask1_939_359" style="mask-type:alpha" maskUnits="userSpaceOnUse" x="155" y="87" width="24" height="18">
<path d="M176.241 89.5657C166.808 90.3156 166.808 90.3156 160.212 87.7285C153.39 85.0476 153.24 103.401 164.29 104.657C178.026 106.213 180.788 89.1908 176.241 89.5657Z" fill="#000442"/>
</mask>
<g mask="url(#mask1_939_359)">
<path d="M161.048 90.6862C160.432 90.3612 160.383 89.2449 160.938 88.1929C161.493 87.1408 162.443 86.5514 163.059 86.8764C163.675 87.2014 163.724 88.3177 163.169 89.3697C162.614 90.4218 161.664 91.0112 161.048 90.6862Z" fill="#FCFCFC"/>
<path d="M173.153 91.8357C172.475 92.0106 171.702 91.288 171.427 90.2216C171.152 89.1553 171.479 88.149 172.158 87.974C172.837 87.7991 173.61 88.5217 173.884 89.5881C174.159 90.6544 173.832 91.6607 173.153 91.8357Z" fill="#FCFCFC"/>
</g>
<path d="M157.106 83.9351C154.783 83.9351 152.899 82.0512 152.899 79.7276C152.899 77.404 154.783 75.52 157.106 75.52C159.43 75.52 161.314 77.404 161.314 79.7276C161.314 82.0512 159.43 83.9351 157.106 83.9351Z" fill="#000442"/>
<path d="M178.342 83.859C176.061 83.859 174.211 82.0096 174.211 79.7278C174.211 77.4465 176.061 75.5967 178.342 75.5967C180.623 75.5967 182.473 77.4465 182.473 79.7278C182.473 82.0096 180.623 83.859 178.342 83.859Z" fill="#000442"/>
<path opacity="0.19" d="M166.739 212.626C135.21 212.626 109.65 192.299 109.65 167.224C109.65 142.149 135.21 121.822 166.739 121.822C198.269 121.822 223.829 142.149 223.829 167.224C223.829 192.299 198.269 212.626 166.739 212.626Z" fill="#F1F2F2"/>
<path opacity="0.47" d="M198.92 34.5732C199.397 33.8674 204.642 46.4452 186.841 42.8535C169.04 39.2618 149.657 33.7146 149.657 33.7146L198.92 34.5732Z" fill="#694B97"/>
<path d="M153.008 13.1339C149.381 13.1339 146.441 10.1938 146.441 6.56699C146.441 2.94012 149.381 0 153.008 0C156.635 0 159.575 2.94012 159.575 6.56699C159.575 10.1938 156.635 13.1339 153.008 13.1339Z" fill="#FFAC0B"/>
<path d="M184.942 35.7633C186.028 20.6531 175.586 6.15014 161.505 6.57732C144.264 7.09711 135.222 16.999 134.136 32.1092" fill="#FDCE1B"/>
<path d="M134.075 32.099C134.075 32.099 158.737 32.2688 166.946 28.7589C175.155 25.2489 191.294 15.9389 198.407 25.1923C205.52 34.4458 195.535 36.9316 192.015 37.1889C177.497 38.2439 134.075 32.099 134.075 32.099Z" fill="#B06A42"/>
<mask id="mask2_939_359" style="mask-type:alpha" maskUnits="userSpaceOnUse" x="72" y="22" width="188" height="200">
<path fill-rule="evenodd" clip-rule="evenodd" d="M128.151 36.0148C140.463 27.3212 153.573 22.4763 165.987 22.4763C175.937 22.4763 188.705 27.2977 201.522 36.2688C203.363 28.994 206.327 24.2744 209.669 24.2744C215.062 24.2744 219.469 36.5621 219.767 52.0448C235.313 68.3405 248.784 90.8258 254.485 118.117C266.191 174.151 263.714 221.828 165.902 221.828C71.4517 221.828 65.7652 172.357 77.327 118.117C82.9398 91.7806 95.0324 69.0571 109.964 52.3761C110.205 36.7376 114.637 24.2745 120.068 24.2745C123.371 24.2745 126.305 28.8844 128.151 36.0148Z" fill="url(#paint1_linear_939_359)"/>
</mask>
<g mask="url(#mask2_939_359)">
<path d="M154.726 221.841C88.1962 212.955 75.684 162.129 73.3618 142.949C67.7427 145.422 56.2349 151.131 55.156 154.187C54.0771 157.244 60.9998 190.074 64.596 206.108C99.8088 217.571 193.741 227.052 154.726 221.841Z" fill="#7A59AD"/>
</g>
<path d="M120.347 254.22C96.381 259.423 16.5737 257.881 6.74756 254.22C-3.07857 250.559 -3.79756 234.181 15.615 244.2C6.74755 223.968 23.2842 212.599 40.5398 221.848C27.5981 202.579 23.0445 168.088 47.0107 166.161C79.365 163.463 81.2823 195.257 76.4891 218.187C94.2241 199.304 120.587 214.141 103.571 236.107C127.297 222.619 135.446 250.945 120.347 254.22Z" fill="#51B57E"/>
<path d="M73.3737 255.569C73.3737 255.569 87.7534 244.585 94.7036 223.775" stroke="#328756" stroke-width="3" stroke-miterlimit="10" stroke-linecap="round" stroke-linejoin="round"/>
<path d="M49.1675 255.569C49.1675 255.569 44.8536 240.154 27.8376 233.41" stroke="#328756" stroke-width="3" stroke-miterlimit="10" stroke-linecap="round" stroke-linejoin="round"/>
<path d="M66.6631 255.569C66.6631 255.569 65.4648 216.26 52.2834 185.237" stroke="#328756" stroke-width="3" stroke-miterlimit="10" stroke-linecap="round" stroke-linejoin="round"/>
<path d="M45.3331 195.064C45.3331 195.064 45.8125 209.324 62.3491 218.765" stroke="#328756" stroke-width="3" stroke-miterlimit="10" stroke-linecap="round" stroke-linejoin="round"/>
<path d="M66.663 191.981C66.663 191.981 71.4563 202.772 60.1922 209.709" stroke="#328756" stroke-width="3" stroke-miterlimit="10" stroke-linecap="round" stroke-linejoin="round"/>
<path d="M49.1679 225.509C49.1679 225.509 54.2008 237.841 65.7046 241.888" stroke="#328756" stroke-width="3" stroke-miterlimit="10" stroke-linecap="round" stroke-linejoin="round"/>
<defs>
<linearGradient id="paint0_linear_939_359" x1="166.15" y1="22.3459" x2="222.706" y2="211.502" gradientUnits="userSpaceOnUse">
<stop stop-color="#A585D7"/>
<stop offset="0.414583" stop-color="#8F6BC6"/>
<stop offset="1" stop-color="#7A56B1"/>
</linearGradient>
<linearGradient id="paint1_linear_939_359" x1="166.149" y1="22.346" x2="166.149" y2="221.697" gradientUnits="userSpaceOnUse">
<stop stop-color="#A08667"/>
<stop offset="1" stop-color="#81694D"/>
</linearGradient>
</defs>
</svg>
