<svg width="21" height="42" viewBox="0 0 21 42" fill="none" xmlns="http://www.w3.org/2000/svg">
<path d="M9.02628 0.500468C9.34682 0.180019 9.78152 9.38064e-07 10.2348 8.98439e-07C10.688 8.58815e-07 11.1227 0.180019 11.4433 0.500468L19.9899 9.04709C20.1531 9.20477 20.2834 9.39338 20.3729 9.60193C20.4625 9.81047 20.5097 10.0348 20.5117 10.2617C20.5136 10.4887 20.4704 10.7138 20.3844 10.9238C20.2985 11.1339 20.1716 11.3248 20.0111 11.4853C19.8506 11.6458 19.6597 11.7727 19.4497 11.8586C19.2396 11.9446 19.0145 11.9878 18.7875 11.9858C18.5606 11.9839 18.3363 11.9367 18.1277 11.8471C17.9192 11.7576 17.7306 11.6273 17.5729 11.4641L11.9441 5.83527L11.9441 39.3051C11.9441 39.7584 11.764 40.1932 11.4434 40.5137C11.1229 40.8343 10.6881 41.0144 10.2348 41.0144C9.78143 41.0144 9.34666 40.8343 9.0261 40.5137C8.70554 40.1932 8.52545 39.7584 8.52545 39.3051L8.52545 5.83527L2.89664 11.4641C2.57426 11.7754 2.14248 11.9477 1.6943 11.9438C1.24612 11.9399 0.817401 11.7602 0.500478 11.4433C0.183555 11.1263 0.00378702 10.6976 -0.000107823 10.2494C-0.00400267 9.80125 0.168288 9.36947 0.479655 9.04709L9.02628 0.500468Z" fill="#162947"/>
</svg>
