<svg width="368" height="75" viewBox="0 0 368 75" fill="none" xmlns="http://www.w3.org/2000/svg">
<path d="M121.219 61.2967C119.793 61.2967 118.775 60.8894 117.96 60.0747C117.145 59.26 116.534 58.2416 116.534 57.2232V18.1175C116.534 17.0991 116.942 16.0807 117.756 15.266C118.571 14.4513 119.793 14.0439 121.219 14.0439C122.644 14.0439 123.663 14.4513 124.478 15.266C125.292 16.0807 125.7 17.0991 125.7 18.3211V32.3748C126.514 31.3564 127.736 30.5417 129.366 29.9306C130.995 29.3196 132.625 28.9123 134.254 28.9123C138.124 28.9123 141.383 30.1343 143.827 32.3748C146.271 34.6152 147.493 38.2814 147.493 43.3732V57.6305C147.493 58.6489 147.086 59.6673 146.271 60.482C145.456 61.2967 144.234 61.5004 143.012 61.5004C141.586 61.5004 140.568 61.093 139.753 60.2783C138.939 59.4636 138.531 58.4453 138.531 57.4269V44.5953C138.531 41.9475 137.92 40.1144 136.698 39.0961C135.476 38.0777 134.05 37.4667 132.421 37.4667C130.588 37.4667 129.162 38.0777 128.144 39.2997C127.125 40.5218 126.311 41.7438 125.903 43.1696V57.6305C125.903 58.8526 125.496 59.871 124.681 60.6857C123.663 60.8894 122.441 61.2967 121.219 61.2967Z" fill="white"/>
<path d="M186.395 61.2965C181.711 61.2965 177.637 60.2782 174.582 58.4451C173.971 58.0377 173.564 57.4267 173.156 57.0194C172.953 56.4083 172.749 55.7973 172.749 55.1863C172.749 53.9642 173.156 52.9458 173.971 51.9275C174.786 50.9091 175.804 50.5017 177.026 50.5017C177.637 50.5017 178.045 50.7054 178.656 50.9091C179.878 51.5201 181.303 51.9275 182.933 52.3348C184.562 52.7422 185.988 52.9458 187.414 52.9458C190.061 52.9458 191.284 52.3348 191.284 51.1128C191.284 50.5017 190.876 49.8907 190.265 49.2797C189.654 48.6687 188.228 48.465 185.784 48.2613C184.97 48.2613 183.748 48.0576 182.322 47.8539C180.896 47.6503 179.47 47.2429 178.045 46.6319C176.619 46.0209 175.397 45.2062 174.582 43.9841C173.564 42.7621 173.156 41.1327 173.156 39.0959C173.156 36.0408 174.378 33.393 176.823 31.5599C179.267 29.7268 182.322 28.9121 186.395 28.9121C188.636 28.9121 190.876 29.1158 192.913 29.7268C194.95 30.1342 196.579 30.9489 197.597 31.9672C198.616 32.7819 199.023 34.004 199.023 35.0224C199.023 36.0408 198.616 37.0591 197.801 37.8738C196.986 38.6885 195.968 39.0959 194.95 39.0959C194.339 39.0959 193.728 38.8922 193.117 38.6885C192.302 38.0775 191.284 37.6702 189.858 37.4665C188.636 37.2628 187.21 37.0591 185.988 37.0591C183.34 37.0591 181.914 37.6702 181.914 38.6885C181.914 39.0959 182.118 39.7069 182.729 39.9106C183.34 40.3179 184.562 40.7253 186.395 40.929C187.617 41.1327 189.043 41.3363 190.469 41.54C192.098 41.7437 193.524 42.151 194.95 42.7621C196.375 43.3731 197.597 44.3915 198.616 45.6135C199.634 47.0392 200.042 48.6687 200.042 51.1128C200.042 54.1679 198.82 56.8157 196.172 58.6488C193.931 60.2782 190.672 61.2965 186.395 61.2965Z" fill="white"/>
<path d="M223.261 61.2971C218.576 61.2971 214.502 59.8714 211.244 57.0199C207.985 54.1684 206.355 50.2986 206.355 45.4104C206.355 40.3185 207.985 36.245 211.04 33.1898C214.095 30.1347 218.169 28.709 223.057 28.709C226.519 28.709 229.371 29.32 231.611 30.5421C233.852 31.7641 235.481 33.3935 236.703 35.4303C237.722 37.467 238.333 39.5038 238.333 41.5406C238.333 45.2067 236.703 47.0398 233.444 47.0398H215.928C215.317 47.0398 215.114 47.4471 215.114 48.0582C215.114 49.6876 215.928 50.9096 217.761 51.928C219.594 52.9464 221.631 53.3537 223.872 53.3537C225.297 53.3537 226.723 53.1501 228.149 52.7427C229.574 52.3354 230.797 51.7243 231.815 50.9096C232.426 50.5023 233.241 50.0949 234.055 50.0949C235.074 50.0949 236.092 50.5023 236.703 51.317C237.518 52.1317 237.722 52.9464 237.722 53.9648C237.722 55.1868 237.111 56.4089 235.685 57.6309C234.463 58.6493 232.63 59.464 230.186 60.075C227.741 60.6861 225.705 61.2971 223.261 61.2971ZM228.76 41.1332C228.963 41.1332 229.167 41.1332 229.371 40.9295C229.574 40.9295 229.778 40.5222 229.778 40.1148C229.778 39.0964 229.167 38.0781 227.741 37.2634C226.519 36.4487 224.686 36.0413 222.853 36.0413C220.613 36.0413 218.983 36.4487 217.558 37.467C216.132 38.4854 215.521 39.3001 215.521 40.3185C215.521 40.7258 215.725 41.1332 216.336 41.1332H228.76Z" fill="white"/>
<path d="M271.124 61.2971C269.698 61.2971 268.68 60.8897 267.865 60.075C267.05 59.2603 266.643 58.242 266.643 57.2236V44.392C266.643 41.7442 266.032 39.9111 264.81 38.8928C263.588 37.8744 262.162 37.2634 260.533 37.2634C258.7 37.2634 257.274 37.8744 256.255 38.8928C255.033 39.9111 254.422 41.3369 254.015 42.7626V56.8162C254.015 58.0383 253.608 59.0567 252.793 59.8714C251.978 60.6861 250.756 61.0934 249.534 61.0934C248.108 61.0934 247.09 60.6861 246.275 59.8714C245.461 59.0567 244.85 58.0383 244.85 57.0199V33.3935C244.85 32.3751 245.257 31.3568 246.072 30.5421C246.886 29.7274 248.108 29.32 249.534 29.32C250.553 29.32 251.571 29.5237 252.386 30.1347C253.2 30.7457 253.608 31.5604 254.015 32.3751C255.848 29.931 258.7 28.709 262.569 28.709C266.439 28.709 269.698 29.931 272.142 32.1715C274.586 34.4119 275.808 38.0781 275.808 43.17V57.4273C275.808 58.4456 275.401 59.464 274.586 60.2787C273.568 60.8897 272.346 61.2971 271.124 61.2971Z" fill="white"/>
<path d="M295.565 61.2965C290.881 61.2965 286.807 60.2782 283.752 58.4451C283.141 58.0377 282.734 57.4267 282.326 57.0194C282.123 56.4083 281.919 55.7973 281.919 55.1863C281.919 53.9642 282.326 52.9458 283.141 51.9275C283.956 50.9091 284.974 50.5017 286.196 50.5017C286.807 50.5017 287.215 50.7054 287.826 50.9091C289.048 51.5201 290.473 51.9275 292.103 52.3348C293.732 52.7422 295.158 52.9458 296.584 52.9458C299.231 52.9458 300.453 52.3348 300.453 51.1128C300.453 50.5017 300.046 49.8907 299.435 49.2797C298.824 48.6687 297.398 48.465 294.954 48.2613C294.139 48.2613 292.917 48.0576 291.492 47.8539C290.066 47.6503 288.64 47.2429 287.215 46.6319C285.789 46.0209 284.567 45.2062 283.752 43.9841C282.734 42.7621 282.326 41.1327 282.326 39.0959C282.326 36.0408 283.548 33.393 285.992 31.5599C288.437 29.7268 291.492 28.9121 295.565 28.9121C297.806 28.9121 300.046 29.1158 302.083 29.7268C304.12 30.1342 305.749 30.9489 306.767 31.9672C307.786 32.7819 308.193 34.004 308.193 35.0224C308.193 36.0408 307.786 37.0591 306.971 37.8738C306.156 38.6885 305.138 39.0959 304.12 39.0959C303.509 39.0959 302.898 38.8922 302.287 38.6885C301.472 38.0775 300.453 37.6702 299.028 37.4665C297.806 37.2628 296.38 37.0591 295.158 37.0591C292.51 37.0591 291.084 37.6702 291.084 38.6885C291.084 39.0959 291.288 39.7069 291.899 39.9106C292.51 40.3179 293.732 40.7253 295.565 40.929C296.787 41.1327 298.213 41.3363 299.639 41.54C301.268 41.7437 302.694 42.151 304.12 42.7621C305.545 43.3731 306.767 44.3915 307.786 45.6135C308.804 47.0392 309.211 48.6687 309.211 51.1128C309.211 54.1679 307.989 56.8157 305.342 58.6488C302.898 60.2782 299.639 61.2965 295.565 61.2965Z" fill="white"/>
<path d="M340.781 59.6678C343.225 58.8531 344.855 57.8347 346.077 56.6126C347.299 55.3906 347.91 54.1685 347.706 52.9465C347.706 51.9281 347.095 51.1134 346.281 50.2987C345.466 49.6877 344.651 49.2803 343.429 49.2803C342.614 49.2803 342.003 49.6877 341.392 50.2987C340.374 51.1134 339.152 51.9281 337.93 52.3354C336.708 52.7428 335.282 53.1501 333.856 53.3538C331.616 53.5575 329.579 53.3538 327.746 52.5391C325.913 51.7244 324.895 50.5024 324.691 48.873C324.691 48.2619 324.895 47.8546 325.506 47.8546L342.818 46.4288C346.077 46.2252 347.503 44.1884 347.095 40.5222C346.892 38.2818 346.077 36.4487 344.855 34.412C343.633 32.5789 341.8 31.1532 339.356 30.1348C337.115 29.1164 334.06 28.7091 330.801 28.9127C325.913 29.3201 322.043 31.1532 319.192 34.412C316.34 37.6708 315.118 41.7443 315.526 47.0399C315.933 51.9281 317.97 55.7979 321.432 58.242C324.895 60.6861 328.968 61.9082 333.856 61.5008C336.097 61.0935 338.541 60.4825 340.781 59.6678ZM325.098 41.5406C324.487 41.5406 324.284 41.337 324.284 40.9296C324.284 39.9112 324.895 38.8928 326.117 37.8745C327.339 36.8561 329.172 36.2451 331.209 36.0414C333.245 35.8377 334.875 36.2451 336.301 36.8561C337.726 37.6708 338.337 38.4855 338.541 39.5039C338.541 39.9112 338.541 40.1149 338.337 40.3186C338.134 40.3186 337.93 40.5222 337.726 40.5222L325.098 41.5406Z" fill="white"/>
<path d="M161.547 14.0459C162.973 14.0459 163.991 14.6569 165.009 15.4716C165.824 16.2863 166.231 17.3047 166.231 18.5268L164.806 42.3568C164.806 43.3752 164.195 44.3936 163.38 45.2083C162.362 46.023 161.14 46.2267 159.714 46.2267C158.288 46.2267 157.066 45.6156 156.455 44.8009C155.64 43.9862 155.233 42.9678 155.437 41.7458L156.862 18.1194C156.862 16.8974 157.473 15.879 158.492 15.268C159.103 14.4532 160.325 14.0459 161.547 14.0459Z" fill="white"/>
<path d="M159.306 51.3174C160.732 51.3174 162.158 51.9284 163.176 52.9468C164.195 53.9652 164.602 55.1872 164.602 56.6129C164.602 58.0387 163.991 59.0571 162.769 60.0754C161.547 60.8901 160.325 61.5012 158.695 61.2975C157.27 61.2975 156.048 60.6865 155.029 59.6681C154.011 58.6497 153.604 57.4277 153.604 56.2056C153.604 54.7799 154.215 53.5578 155.437 52.7431C156.659 51.7247 157.881 51.3174 159.306 51.3174Z" fill="white"/>
<path d="M358.908 61.2959C357.482 61.2959 356.464 60.8886 355.649 60.0739C354.835 59.2592 354.224 58.2408 354.224 57.2224V33.3924C354.224 32.374 354.631 31.3556 355.446 30.5409C356.26 29.7262 357.482 29.3188 358.908 29.3188C360.334 29.3188 361.352 29.7262 362.167 30.5409C362.982 31.3556 363.389 32.374 363.389 33.596V57.2224C363.389 58.4445 362.982 59.4629 362.167 60.2776C361.149 60.8886 360.13 61.2959 358.908 61.2959Z" fill="white"/>
<path d="M358.908 24.0236C357.483 24.0236 356.261 23.6162 355.039 22.5978C354.02 21.5795 353.409 20.3574 353.409 18.9317C353.409 17.5059 354.02 16.4876 355.039 15.4692C356.057 14.4508 357.279 14.0435 358.908 14.0435C360.334 14.0435 361.556 14.4508 362.575 15.4692C363.593 16.4876 364 17.5059 364 18.9317C364 20.3574 363.593 21.5795 362.575 22.5978C361.353 23.4125 360.13 24.0236 358.908 24.0236Z" fill="white"/>
<path d="M26.1024 57.2211C26.1024 57.2211 24.0656 62.313 17.7517 61.0909C11.4377 59.8689 6.7532 57.2211 5.32747 51.9255C3.29072 45.4079 11.2341 41.7417 15.9186 45.8153C20.6032 49.8888 21.0105 47.4447 21.0105 47.4447C21.0105 47.4447 19.5848 43.3712 21.6215 43.1675C23.4546 43.1675 29.3612 51.7219 26.1024 57.2211Z" fill="#72E244"/>
<path d="M53.1914 15.4681C53.1914 15.4681 76.6141 0.599808 94.3339 6.30273C100.852 8.33948 93.7229 19.7453 93.7229 19.7453C93.7229 19.7453 100.037 19.1343 101.87 22.8005C104.11 27.6887 100.444 31.1512 100.444 31.1512C100.444 31.1512 112.461 34.0026 102.481 48.6673C85.5758 73.5157 53.1914 15.4681 53.1914 15.4681Z" fill="#72E244"/>
<path opacity="0.62" d="M52.1736 64.5546C51.5625 59.0553 57.4691 54.9818 63.1721 54.3708C68.875 53.7597 75.5963 57.8333 76.0036 63.3325" fill="#58D63A"/>
<path d="M79.2616 7.93203C79.2616 7.93203 68.2631 7.93203 57.0609 13.4313C45.8587 18.7268 32.0088 30.1327 32.0088 46.0194C32.0088 64.1465 49.7286 71.2752 67.4484 69.8494C91.0747 67.8127 114.497 54.3701 92.9078 36.2429C89.2417 33.1878 84.5571 25.6518 84.5571 16.6901C84.7608 7.72835 80.0763 7.93203 79.2616 7.93203Z" fill="#72E244"/>
<path d="M38.5265 56.407C36.4897 65.5724 49.1176 69.8496 62.9675 70.257C77.2248 70.6643 88.2233 65.7761 88.427 58.8511C88.8344 51.9262 77.8359 45.6122 63.9859 45.0012C50.136 44.3902 40.1559 49.2784 38.5265 56.407Z" fill="#8FF460"/>
<path d="M49.3219 29.7257C44.6374 29.1147 41.3786 31.7624 40.5639 35.836C39.7492 40.5205 41.9896 45.8161 46.2668 46.0197C50.544 46.2234 56.0432 45.0014 56.0432 39.7058C56.0432 34.4102 54.6175 30.3367 49.3219 29.7257Z" fill="#F5F2F5"/>
<path d="M77.0216 30.9464C72.3371 30.3354 68.8746 32.9831 68.2636 37.0567C67.4489 41.9449 69.6893 47.2404 74.1702 47.4441C78.651 47.4441 83.9466 46.4257 84.1503 40.9265C84.3539 35.4273 82.3172 31.5574 77.0216 30.9464Z" fill="#F5F2F5"/>
<path d="M75.3918 45.4082C78.429 45.4082 80.8911 42.9461 80.8911 39.9089C80.8911 36.8718 78.429 34.4097 75.3918 34.4097C72.3547 34.4097 69.8926 36.8718 69.8926 39.9089C69.8926 42.9461 72.3547 45.4082 75.3918 45.4082Z" fill="#003330"/>
<path d="M48.9143 44.5942C51.9514 44.5942 54.4135 42.1321 54.4135 39.0949C54.4135 36.0578 51.9514 33.5957 48.9143 33.5957C45.8771 33.5957 43.415 36.0578 43.415 39.0949C43.415 42.1321 45.8771 44.5942 48.9143 44.5942Z" fill="#003330"/>
<path d="M62.7647 40.5207L60.1169 40.3171C59.5059 40.3171 58.8949 39.706 59.0985 39.095V38.8913C59.0985 38.2803 59.7096 37.6693 60.3206 37.873L62.9684 38.0766C63.5794 38.0766 64.1904 38.6877 63.9868 39.2987V39.5024C63.9868 39.9097 63.3757 40.5207 62.7647 40.5207Z" fill="#17326D"/>
<path d="M45.8591 52.3334C45.2481 52.3334 44.8407 52.3334 44.2297 52.3334C35.4717 51.7224 28.954 44.1864 29.5651 35.4283C30.1761 25.2445 35.6753 20.56 46.4701 20.7637C50.7473 20.7637 54.4135 22.3931 57.265 25.4482C60.1164 28.707 61.7458 32.9842 61.3385 37.6688C60.7274 45.8158 54.0061 52.1297 45.8591 52.3334ZM44.8407 23.2078C36.49 23.4115 32.6202 27.2813 32.0092 35.632C31.6018 42.9643 37.1011 49.2783 44.4334 49.8893C47.8959 50.093 51.3584 48.8709 54.0061 46.6305C56.6539 44.1864 58.2833 41.1313 58.487 37.4651C58.6907 33.5953 57.4686 29.7254 55.0245 27.0776C52.7841 24.6335 49.729 23.2078 46.0628 23.2078C45.8591 23.2078 45.2481 23.2078 44.8407 23.2078Z" fill="#17326D"/>
<path d="M77.8368 54.9811C77.6331 54.9811 77.4294 54.9811 77.2257 54.9811C73.1522 54.9811 69.0787 53.3517 66.2273 50.2966C63.3758 47.2414 61.7464 42.9642 62.1537 38.8907C62.7648 30.54 69.6897 24.2261 78.8551 24.2261C83.5397 24.2261 87.2059 25.4481 89.8536 28.2996C92.7051 31.3547 94.1308 35.8356 93.7235 41.1312C93.1124 49.0745 86.7985 54.7774 77.8368 54.9811ZM78.4478 26.6702C70.7081 26.8739 65.0052 32.1694 64.3942 39.0944C64.1905 42.5569 65.4125 46.0194 67.8567 48.6672C70.3008 51.3149 73.5596 52.7407 77.0221 52.537C84.9654 52.537 90.4647 47.6488 90.872 40.7238C91.0757 36.2429 90.0573 32.3731 87.6132 29.7253C85.5764 27.4849 82.5213 26.4665 78.4478 26.4665C78.6515 26.6702 78.4478 26.6702 78.4478 26.6702Z" fill="#17326D"/>
<path d="M54.413 53.5549C60.1159 53.9622 60.1159 53.9622 63.9858 52.5365C68.0593 50.9071 68.263 61.9056 61.5417 62.7203C53.3947 63.7387 51.7652 53.3512 54.413 53.5549Z" fill="#000442"/>
<path d="M66.8378 58.8499C66.8378 58.8499 62.7643 57.4242 60.1166 59.6646C57.4688 61.9051 57.4688 63.9418 59.9129 64.5529C62.1533 64.9602 67.2452 62.7198 66.8378 58.8499Z" fill="#EFA0B7"/>
</svg>
