<svg width="25" height="25" viewBox="0 0 25 25" fill="none" xmlns="http://www.w3.org/2000/svg">
<path fill-rule="evenodd" clip-rule="evenodd" d="M17.5128 14.4628C17.2131 14.313 15.7439 13.5909 15.4704 13.4904C15.1968 13.3908 14.9977 13.3415 14.7976 13.6412C14.5985 13.9389 14.0263 14.6126 13.8523 14.8117C13.6774 15.0119 13.5034 15.036 13.2047 14.8872C12.9061 14.7363 11.9427 14.4216 10.8013 13.4039C9.91335 12.6115 9.313 11.633 9.13903 11.3333C8.96505 11.0347 9.11992 10.8727 9.26976 10.7239C9.40451 10.5902 9.56842 10.375 9.71826 10.201C9.8681 10.026 9.91737 9.90132 10.0169 9.70121C10.1175 9.50209 10.0672 9.32812 9.99179 9.17829C9.91737 9.02845 9.32004 7.55724 9.07064 6.95889C8.82829 6.37664 8.58192 6.45609 8.39889 6.44603C8.22392 6.43799 8.02481 6.43598 7.82569 6.43598C7.62658 6.43598 7.30277 6.51039 7.02925 6.81006C6.75471 7.10873 5.98341 7.83177 5.98341 9.30298C5.98341 10.7732 7.05338 12.1941 7.20322 12.3942C7.35305 12.5934 9.30998 15.6122 12.3077 16.9064C13.0217 17.2142 13.5778 17.3982 14.0112 17.5349C14.7272 17.7632 15.3789 17.731 15.8937 17.6536C16.4669 17.5681 17.6616 16.9306 17.911 16.2327C18.1594 15.5348 18.1594 14.9364 18.085 14.8117C18.0106 14.687 17.8114 14.6126 17.5118 14.4628H17.5128ZM12.0603 21.9074H12.0563C10.2758 21.9077 8.52799 21.429 6.99606 20.5216L6.63404 20.3064L2.87103 21.2939L3.87564 17.6254L3.63932 17.2493C2.6439 15.6649 2.11712 13.831 2.11984 11.9598C2.12185 6.47922 6.58074 2.02032 12.0644 2.02032C14.7192 2.02032 17.2151 3.0561 19.0916 4.93459C20.0171 5.85632 20.7507 6.95242 21.2499 8.1595C21.7491 9.36657 22.004 10.6606 21.9998 11.9669C21.9978 17.4475 17.5389 21.9074 12.0603 21.9074ZM20.5196 3.50763C19.4116 2.39232 18.0933 1.508 16.641 0.905899C15.1887 0.303801 13.6314 -0.00409913 12.0593 4.12076e-05C5.46853 4.12076e-05 0.102573 5.365 0.100561 11.9588C0.0995559 14.0666 0.649627 16.1241 1.69647 17.9372L0 24.1348L6.33939 22.4715C8.09306 23.427 10.0583 23.9276 12.0553 23.9276H12.0603C18.6511 23.9276 24.0171 18.5627 24.0191 11.9679C24.024 10.3964 23.7172 8.83949 23.1165 7.38732C22.5158 5.93514 21.6331 4.61649 20.5196 3.50763Z" fill="white"/>
</svg>
