<svg width="222" height="346" viewBox="0 0 222 346" fill="none" xmlns="http://www.w3.org/2000/svg">
<path d="M75.3826 297.781C75.3826 297.781 70.0115 318.25 74.3664 332.331C74.3664 332.331 61.5919 336.105 60.5757 342.202C59.7047 347.283 80.6085 345.541 87.5764 344.815C88.8829 344.67 89.7539 343.508 89.6088 342.347C88.7378 333.057 86.1248 297.346 97.738 292.265C110.513 286.749 75.3826 297.781 75.3826 297.781Z" fill="#AE3226"/>
<path d="M82.3507 223.747C82.3507 223.747 10.6391 139.842 12.5262 97.3083C12.5262 97.3083 -14.039 66.3882 10.2036 56.0814C34.4462 45.7747 30.6719 62.0332 30.3816 70.0173C29.9461 78.1465 29.3654 80.1788 32.4139 81.6305C35.4623 83.0821 36.4785 73.2109 39.527 72.9206C46.6401 72.0496 45.7691 84.2435 32.4139 94.8405C32.4139 94.8405 35.7527 126.777 86.4153 196.746L82.3507 223.747Z" fill="#CF3E30"/>
<path d="M114.578 297.781C114.578 297.781 109.207 318.25 113.562 332.331C113.562 332.331 100.787 336.105 99.7711 342.202C98.9001 347.283 119.804 345.541 126.772 344.815C128.078 344.67 128.949 343.508 128.804 342.347C127.933 333.057 125.32 297.346 136.933 292.265C149.708 286.749 114.578 297.781 114.578 297.781Z" fill="#AE3226"/>
<path d="M60.1401 298.652C60.1401 298.652 24.7199 291.684 27.1877 249.441C29.6555 207.198 44.6075 173.084 47.8011 151.019C50.8496 128.954 47.656 89.3242 56.9465 68.2753C66.2371 47.2263 114.432 29.5162 136.497 74.6625C158.562 119.954 186.289 237.102 164.659 281.668C153.191 305.33 105.722 311.717 60.1401 298.652Z" fill="url(#paint0_linear_597_2910)"/>
<path d="M77.2699 68.2753C77.2699 68.2753 64.3502 39.8229 67.3987 14.8545C69.1407 -0.242665 90.1896 -5.9041 89.0283 7.74142C87.867 21.3869 89.1734 38.5164 90.6251 39.5326C92.0767 40.5487 91.3509 16.3062 99.7705 10.2092C108.19 4.11229 125.61 13.6932 118.061 20.3708C110.513 26.9032 106.158 45.6295 106.158 45.6295C106.158 45.6295 115.303 28.3549 127.787 35.468C136.062 40.2584 118.061 44.4682 118.787 53.3233C118.787 53.4684 88.8831 40.1132 77.2699 68.2753Z" fill="url(#paint1_linear_597_2910)"/>
<path d="M105.577 105.292C108.335 105.292 110.513 103.115 110.513 100.357C110.513 97.5986 108.335 95.4211 105.577 95.4211C102.819 95.4211 100.642 97.5986 100.642 100.357C100.642 102.97 102.819 105.292 105.577 105.292Z" fill="#162947"/>
<path d="M79.4478 106.889C82.206 106.889 84.3834 104.712 84.3834 101.954C84.3834 99.1955 82.206 97.0181 79.4478 97.0181C76.6897 97.0181 74.5122 99.1955 74.5122 101.954C74.5122 104.712 76.6897 106.889 79.4478 106.889Z" fill="#162947"/>
<path opacity="0.44" d="M76.3992 66.388C76.3992 66.388 68.27 60.1459 67.8345 55.5006C67.8345 55.5006 70.8829 53.3232 71.7539 53.0328C71.7539 53.0328 72.9152 57.6781 76.3992 66.388Z" fill="#CF3E30"/>
<mask id="mask0_597_2910" style="mask-type:alpha" maskUnits="userSpaceOnUse" x="27" y="46" width="146" height="260">
<path d="M60.1406 298.652C60.1406 298.652 24.7203 291.684 27.1882 249.441C29.656 207.198 44.608 173.084 47.8016 151.019C50.8501 128.954 47.6564 89.324 56.947 68.275C66.2376 47.2261 114.432 29.5159 136.497 74.6623C158.563 119.954 186.289 237.102 164.66 281.668C153.191 305.33 105.722 311.717 60.1406 298.652Z" fill="#E54269"/>
</mask>
<g mask="url(#mask0_597_2910)">
<path d="M131.998 299.524C17.3172 296.62 30.9627 221.86 30.382 187.166C12.6719 195.585 -19.8451 224.183 -9.10287 271.362C4.54265 330.444 205.742 301.411 131.998 299.524Z" fill="#D23F31"/>
<path d="M80.6088 113.131C86.8509 113.422 92.9479 116.47 103.98 111.97C115.013 107.47 114.577 128.809 95.2705 129.39C71.3183 130.261 72.6247 112.841 80.6088 113.131Z" fill="#162947"/>
<mask id="mask1_597_2910" style="mask-type:alpha" maskUnits="userSpaceOnUse" x="75" y="111" width="37" height="19">
<path d="M80.6088 113.131C86.8509 113.421 92.9479 116.47 103.98 111.97C115.013 107.47 114.577 128.809 95.2705 129.39C71.3183 130.26 72.6247 112.841 80.6088 113.131Z" fill="#162947"/>
</mask>
<g mask="url(#mask1_597_2910)">
<path d="M102.964 119.373C100.932 119.808 98.8995 118.647 98.464 116.615L98.0285 115.163C97.593 113.131 98.7543 111.099 100.787 110.663C102.819 110.228 104.851 111.389 105.287 113.421L105.722 114.873C106.158 116.76 104.851 118.792 102.964 119.373Z" fill="#F5F2F5"/>
</g>
</g>
<path opacity="0.62" d="M133.304 240.876C162.918 216.489 144.917 182.52 144.192 157.116L175.692 213.44C157.256 225.199 124.014 248.715 133.304 240.876Z" fill="#CA3A2C"/>
<path d="M115.012 226.36L192.53 203.859C192.53 203.859 195.143 202.843 196.74 205.166C198.337 207.488 119.222 227.521 119.222 227.521L115.012 226.36Z" fill="#4AC15D"/>
<path d="M119.367 227.376C123.141 225.925 196.885 205.021 196.885 205.021L209.95 264.538L137.077 290.523L119.367 227.376Z" fill="#4AC15D"/>
<path d="M115.014 226.359C126.917 222.73 190.064 204.585 190.064 204.585L203.129 264.102L129.966 290.087L113.272 229.118C112.981 227.376 114.143 226.65 115.014 226.359Z" fill="#4AC15D"/>
<path d="M119.513 227.957C119.513 227.957 119.223 225.924 116.175 226.65C113.707 227.231 114.287 228.828 114.287 228.828L130.546 287.474L136.353 288.491L119.513 227.957Z" fill="#CDECD2"/>
<path d="M127.207 218.811L204.725 196.311C204.725 196.311 207.338 195.295 208.935 197.617C210.532 199.94 131.417 219.973 131.417 219.973L127.207 218.811Z" fill="#E8C71E"/>
<path d="M131.417 219.973C135.191 218.521 208.935 197.617 208.935 197.617L222 257.135L149.127 283.119L131.417 219.973Z" fill="#E8C71E"/>
<path d="M127.207 218.812C139.11 215.182 202.257 197.037 202.257 197.037L215.322 256.554L142.159 282.539L125.465 221.57C125.029 219.973 126.191 219.102 127.207 218.812Z" fill="#E8C71E"/>
<path d="M131.707 220.553C131.707 220.553 131.416 218.521 128.368 219.247C125.9 219.827 126.481 221.424 126.481 221.424L142.594 279.926L148.401 280.942L131.707 220.553Z" fill="#FFE5B4"/>
<path d="M147.239 129.97C147.239 129.97 203.128 209.666 194.128 246.973C194.128 246.973 214.741 276.442 189.482 283.41C164.224 290.523 170.466 276.587 172.208 269.474C173.95 262.361 174.821 260.619 172.208 259.022C169.45 257.425 166.837 266.135 163.788 266.135C156.675 266.425 159.578 255.683 174.385 247.409C174.385 247.409 176.418 219.101 138.82 153.197L147.239 129.97Z" fill="#E44D3E"/>
<defs>
<linearGradient id="paint0_linear_597_2910" x1="57.8516" y1="43.0685" x2="115.764" y2="301.793" gradientUnits="userSpaceOnUse">
<stop stop-color="#FF7163"/>
<stop offset="0.2167" stop-color="#E84F40"/>
<stop offset="1" stop-color="#DA4637"/>
</linearGradient>
<linearGradient id="paint1_linear_597_2910" x1="98.48" y1="0.0476654" x2="98.48" y2="68.3358" gradientUnits="userSpaceOnUse">
<stop stop-color="#4ED3F2"/>
<stop offset="1" stop-color="#40A6BD"/>
</linearGradient>
</defs>
</svg>
