<svg width="196" height="207" viewBox="0 0 196 207" fill="none" xmlns="http://www.w3.org/2000/svg">
<path d="M135.819 150.489C128.073 159.771 120.235 169.533 110.939 177.22C95.1045 190.311 77.9708 203.632 56.8499 204.704C48.8756 205.114 40.3544 204.339 33.3369 200.461C26.2739 196.561 20.259 191.247 15.611 184.633C13.2415 181.257 11.6238 176.33 10.9175 172.133C7.86447 153.978 23.836 139.175 39.7164 136.643C59.8574 133.427 83.211 166.659 54.8906 181.873C54.8906 181.873 75.3958 194.44 120.691 133.839L135.819 150.489Z" fill="url(#paint0_linear_597_2871)"/>
<path opacity="0.19" d="M67.1476 180.436C67.1476 180.436 23.9264 194.851 23.2884 166.705C22.8784 148.686 42.8827 139.677 52.9759 150.83C61.5655 160.319 55.4139 175.235 43.3155 173.114C34.2931 171.518 36.2069 160.045 42.0169 160.889" stroke="#36AC42" stroke-width="5" stroke-miterlimit="10" stroke-linecap="round" stroke-linejoin="round"/>
<path d="M81.843 200.439C82.9824 199.778 83.8483 198.774 84.3038 197.543C88.7924 185.522 96.8121 162.828 98.2935 150.603C100.344 133.451 96.8805 112.193 101.369 110.118C105.858 108.042 134.041 110.118 134.041 110.118C134.041 110.118 147.757 108.567 151.289 196.425C151.357 198.318 152.359 200.075 154 201.032C156.21 202.355 158.648 204.271 157.418 205.502C155.959 206.963 139.76 206.324 130.532 205.822C127.274 205.639 124.837 202.857 125.201 199.618C125.475 197.109 125.634 193.916 125.406 190.289C125.224 187.37 122.9 185.043 119.984 184.929C117.545 184.838 115.358 186.321 114.538 188.579L109.913 201.442C109.048 203.883 106.815 205.571 104.217 205.707C96.1056 206.21 79.1093 207.054 77.6512 205.48C76.3066 204.065 79.6558 201.693 81.843 200.439Z" fill="url(#paint1_linear_597_2871)"/>
<path d="M149.694 129.14C149.694 129.14 158.876 133.587 157.6 140.635C156.302 147.683 139.259 131.466 139.259 131.466L149.694 129.14Z" fill="#51C643"/>
<path d="M123.879 179.181C114.845 179.181 107.52 169.715 107.52 158.038C107.52 146.361 114.845 136.894 123.879 136.894C132.914 136.894 140.238 146.361 140.238 158.038C140.238 169.715 132.914 179.181 123.879 179.181Z" fill="#8FF460"/>
<path opacity="0.52" d="M137.436 176.513L135.203 182.739C135.203 182.739 112.67 167.595 104.559 170.469C95.6276 173.639 92.8022 173.068 92.8022 173.068L95.8779 162.349L100.594 130.166L103.192 150.967L137.436 176.513Z" fill="#2C9920" fill-opacity="0.61"/>
<path opacity="0.62" d="M148.464 121.157C150.058 110.323 138.576 101.679 127.412 100.036C116.247 98.3943 102.714 105.898 101.119 116.709" fill="#58D63A"/>
<path fill-rule="evenodd" clip-rule="evenodd" d="M51.4765 88.6443C50.6991 110.097 83.863 126.119 117.455 130.417C152.497 134.91 188.245 122.001 189.635 85.9861C190.755 57.3459 168.734 35.1549 148.392 22.7016C140.449 17.4388 102.972 -5.6758 68.948 2.53049C55.87 5.67802 69.0847 29.3075 69.0847 29.3075C69.0847 29.3075 56.6674 27.5056 52.7714 34.9184C47.85 44.3382 55.1181 51.5457 55.1181 51.5457C55.1181 51.5457 30.9216 56.153 49.6955 86.0319C50.277 86.957 50.8709 87.8271 51.4765 88.6443Z" fill="url(#paint2_linear_597_2871)"/>
<path d="M175.918 106.08C179.336 124.464 153.954 132.036 126.591 131.626C98.4072 131.216 76.9216 120.815 76.8081 106.947C76.6938 93.08 98.7717 81.63 126.135 81.4015C153.521 81.1512 173.275 91.8024 175.918 106.08Z" fill="#8FF460"/>
<path d="M156.78 52.4124C166.007 51.7509 172.364 56.8826 173.549 65.1167C174.915 74.5367 169.88 85.0052 161.313 84.8684C152.747 84.7316 142.175 82.0403 142.358 71.4343C142.54 60.829 146.162 53.1878 156.78 52.4124Z" fill="#F5F2F5"/>
<path d="M101.529 57.3389C110.915 56.6549 117.409 61.8775 118.616 70.2942C120.006 79.8962 115.04 90.0918 106.313 90.5706C98.2703 91.0042 86.6504 87.5373 86.8097 76.7486C86.9698 65.9607 90.7286 58.1145 101.529 57.3389Z" fill="#F5F2F5"/>
<path d="M102.112 86.5256C95.254 86.5256 89.6943 80.9604 89.6943 74.0949C89.6943 67.2301 95.254 61.6648 102.112 61.6648C108.969 61.6648 114.529 67.2301 114.529 74.0949C114.529 80.9604 108.969 86.5256 102.112 86.5256Z" fill="#162947"/>
<path d="M157.291 81.352C150.685 81.352 145.329 75.9912 145.329 69.3781C145.329 62.7644 150.685 57.4036 157.291 57.4036C163.897 57.4036 169.252 62.7644 169.252 69.3781C169.252 75.9912 163.897 81.352 157.291 81.352Z" fill="#162947"/>
<path d="M128.824 72.5068L134.703 72.3467C135.819 72.3242 136.685 71.3892 136.662 70.2716L136.639 69.1992C136.616 68.0816 135.683 67.2151 134.566 67.2376L128.687 67.3977C127.571 67.4202 126.705 68.3552 126.728 69.4728L126.751 70.5452C126.774 71.6628 127.708 72.5293 128.824 72.5068Z" fill="#17326D"/>
<path d="M161.61 97.436C162.681 97.5044 163.752 97.5503 164.845 97.5044C182.184 97.0031 195.877 82.474 195.376 65.1167C194.784 44.84 184.576 35.1236 163.16 34.5534C154.866 34.3253 147.21 37.3132 141.606 42.9469C135.545 49.014 132.241 57.7725 132.492 66.9415C132.994 83.2037 145.752 96.2726 161.61 97.436ZM166.03 39.7309C182.572 40.9397 189.908 48.7174 190.386 65.2761C190.819 79.8736 179.291 92.0759 164.731 92.5095C157.668 92.7147 150.947 90.1602 145.821 85.3021C140.695 80.444 137.733 73.8754 137.55 66.8273C137.322 59.0268 140.102 51.6369 145.206 46.5278C149.899 41.8293 156.073 39.4344 163.091 39.6169C164.071 39.6169 165.073 39.6625 166.03 39.7309Z" fill="#17326D"/>
<path d="M98.2935 100.447C98.7038 100.469 99.1142 100.493 99.5239 100.515C107.772 100.903 115.929 97.7554 121.875 91.8939C127.867 85.986 131.171 77.7977 130.943 69.4276C130.465 52.7545 116.954 39.8677 98.8181 38.8641C89.6356 38.3396 82.2308 40.7572 76.786 46.0488C70.8619 51.8193 67.7633 60.7599 68.0595 71.2291C68.5379 87.5372 80.6365 99.1465 98.2935 100.447ZM99.1368 43.9276C114.311 45.0452 125.543 55.7424 125.931 69.5869C126.135 76.5666 123.379 83.4088 118.367 88.3353C113.331 93.2851 106.724 95.8396 99.7749 95.5202C84.236 94.813 73.482 85.0052 73.0716 71.1381C72.7985 62.0833 75.373 54.4651 80.272 49.6981C84.6464 45.4329 90.7976 43.4714 98.5219 43.9276C98.7264 43.9048 98.9316 43.9276 99.1368 43.9276Z" fill="#17326D"/>
<path d="M138.735 181.485C145.319 173.798 157.053 174.368 157.053 174.368L177.718 126.539L155.458 135.708L138.735 181.485Z" fill="#0D1F3A"/>
<path d="M162.658 161.436C162.658 161.436 172.136 158.312 169.015 149.872C167.17 144.901 159.263 152.609 159.446 155.301C159.605 158.015 162.431 157.833 162.658 161.436Z" fill="#72E244"/>
<path d="M155.459 135.708C155.459 135.708 126.797 118.876 117.205 120.085L99.8657 163.489C99.8657 163.489 131.057 169.989 138.712 181.508L155.459 135.708Z" fill="#096796"/>
<path d="M94.4431 125.604L102.28 128.456L98.7265 146.428L98.3161 150.785L118.822 151.446C118.822 151.446 121.282 142.095 123.697 142.962C125.019 143.44 123.037 146.861 123.538 148.686C123.675 149.166 125.042 149.69 125.885 147.112C127.662 141.73 138.006 137.419 139.281 147.318C140.512 156.943 122.831 160.114 122.831 160.114C122.831 160.114 100.298 171.289 83.8258 168.393C67.3071 165.519 94.4431 125.604 94.4431 125.604Z" fill="#6DE63B"/>
<path d="M143.309 99.8709C133.051 100.683 133.051 100.683 125.878 97.8812C118.461 94.9769 118.297 114.858 130.313 116.219C145.25 117.904 148.254 99.4648 143.309 99.8709Z" fill="#000442"/>
<mask id="mask0_597_2871" style="mask-type:alpha" maskUnits="userSpaceOnUse" x="120" y="97" width="26" height="20">
<path d="M143.309 99.8707C133.052 100.683 133.052 100.683 125.879 97.8809C118.461 94.9767 118.298 114.858 130.313 116.219C145.25 117.904 148.255 99.4646 143.309 99.8707Z" fill="#000442"/>
</mask>
<g mask="url(#mask0_597_2871)">
<path d="M120.933 109.335C120.933 109.335 128.392 106.857 133.132 110.716C137.873 114.575 137.955 118.534 133.684 119.387C129.414 120.241 120.238 116.037 120.933 109.335Z" fill="#EFA0B7"/>
</g>
<path d="M74.9827 36.7084C74.9827 36.7084 66.7738 29.4044 53.0928 34.5781C56.7411 29.4044 63.8453 28.187 69.5101 29.4044C73.4625 30.926 74.9827 36.7084 74.9827 36.7084Z" fill="#55C943" fill-opacity="0.41"/>
<path d="M62.5177 53.4473C62.5177 53.4473 49.7487 45.8388 43.3643 61.6645C47.9246 56.4905 50.836 54.2393 55.2212 53.7516C58.2614 53.4134 62.5177 53.4473 62.5177 53.4473Z" fill="#55C943" fill-opacity="0.41"/>
<path fill-rule="evenodd" clip-rule="evenodd" d="M31.6976 48.9497C35.3035 46.3856 37.578 42.0999 37.3726 37.3461C37.0506 29.8928 30.7547 24.1111 23.3103 24.4323C15.866 24.7536 10.0922 31.0561 10.4142 38.5093C10.7041 45.2185 15.8344 50.5731 22.2857 51.3412C22.8816 52.0599 23.6152 53.0383 24.1345 54.0457C25.0248 55.7732 27.6807 55.2114 28.347 55.039L28.3507 55.0536C28.3507 55.0536 31.3612 54.4933 31.3155 52.2672C31.3057 52.0397 31.2959 51.8123 31.3113 51.5837C31.344 50.6895 31.4779 49.8078 31.6976 48.9497Z" fill="url(#paint3_linear_597_2871)"/>
<path d="M32.1653 54.3828L24.2664 55.939C23.2128 56.1363 22.1978 55.4711 22.0004 54.4162C21.8032 53.3614 22.4674 52.3452 23.521 52.1478L31.4198 50.5916C32.4735 50.3943 33.4885 51.0594 33.6858 52.1143C33.9083 53.1682 33.2189 54.1854 32.1653 54.3828Z" fill="#162947"/>
<path d="M30.633 61.6399L28.4763 62.0615C27.4227 62.259 26.4077 61.5941 26.2104 60.5392C26.0131 59.4844 26.6773 58.4684 27.7309 58.271L29.8875 57.8486C30.9411 57.6512 31.9562 58.3161 32.1534 59.3709C32.3497 60.401 31.6602 61.4178 30.633 61.6399Z" fill="#162947"/>
<path d="M32.9365 59.3624L25.5842 60.6929C25.3834 60.7267 25.176 60.609 25.142 60.408L23.6439 55.5859C23.6099 55.3849 23.7285 55.2024 23.9535 55.1421L32.3034 53.4906C32.5043 53.4566 32.7116 53.5742 32.7456 53.7753L33.245 58.8935C33.28 59.1198 33.1362 59.3031 32.9365 59.3624Z" fill="#162947"/>
<path d="M18.1333 10.5532L19.7167 20.8658" stroke="#FFEC02" stroke-width="4" stroke-miterlimit="10" stroke-linecap="round"/>
<path d="M2 21.7063L9.50879 26.9273" stroke="#FFEC02" stroke-width="4" stroke-miterlimit="10" stroke-linecap="round"/>
<path d="M35.7183 13.1112L31.6074 22.1503" stroke="#FFEC02" stroke-width="4" stroke-miterlimit="10" stroke-linecap="round"/>
<mask id="mask1_597_2871" style="mask-type:alpha" maskUnits="userSpaceOnUse" x="10" y="133" width="126" height="72">
<path d="M135.818 150.489C128.072 159.771 120.234 169.533 110.938 177.22C95.1035 190.312 77.9698 203.632 56.849 204.704C48.8746 205.114 40.3534 204.339 33.336 200.461C26.2729 196.562 20.258 191.247 15.61 184.633C13.2405 181.257 11.6229 176.33 10.9166 172.134C7.8635 153.978 23.8351 139.175 39.7154 136.643C59.8565 133.428 83.21 166.659 54.8896 181.873C54.8896 181.873 75.3948 194.44 120.69 133.839L135.818 150.489Z" fill="url(#paint4_linear_597_2871)"/>
</mask>
<g mask="url(#mask1_597_2871)">
</g>
<defs>
<linearGradient id="paint0_linear_597_2871" x1="96.2644" y1="176.704" x2="19.649" y2="184.904" gradientUnits="userSpaceOnUse">
<stop stop-color="#4DC243"/>
<stop offset="1" stop-color="#72E244"/>
</linearGradient>
<linearGradient id="paint1_linear_597_2871" x1="117.545" y1="109.195" x2="117.545" y2="214.441" gradientUnits="userSpaceOnUse">
<stop stop-color="#72E244"/>
<stop offset="0.772002" stop-color="#75EB45"/>
<stop offset="1" stop-color="#51C643"/>
</linearGradient>
<linearGradient id="paint2_linear_597_2871" x1="116.117" y1="0.785668" x2="116.117" y2="131.276" gradientUnits="userSpaceOnUse">
<stop stop-color="#9CF877"/>
<stop offset="0.503125" stop-color="#72E244"/>
<stop offset="1" stop-color="#6AD140"/>
</linearGradient>
<linearGradient id="paint3_linear_597_2871" x1="23.3106" y1="24.4323" x2="24.6453" y2="55.356" gradientUnits="userSpaceOnUse">
<stop stop-color="#FFEC01"/>
<stop offset="1" stop-color="#FFB800"/>
</linearGradient>
<linearGradient id="paint4_linear_597_2871" x1="96.2634" y1="176.704" x2="19.648" y2="184.904" gradientUnits="userSpaceOnUse">
<stop stop-color="#4DC243"/>
<stop offset="1" stop-color="#72E244"/>
</linearGradient>
</defs>
</svg>
