<svg width="224" height="214" viewBox="0 0 224 214" fill="none" xmlns="http://www.w3.org/2000/svg">
<path d="M85.3472 155.802C93.4232 162.928 95.7985 168.866 109.813 180.98C127.153 195.945 150.668 198.558 169.433 196.658C176.559 195.945 183.923 194.282 189.623 190.007C195.324 185.731 200.075 180.268 203.163 173.854C204.825 170.529 205.538 166.016 205.776 162.215C206.251 145.826 190.098 134.899 175.847 134.662C157.557 134.424 141.405 166.729 168.246 176.467C168.246 176.467 151.856 190.244 104.112 142.5L85.3472 155.802Z" fill="#58D63A"/>
<path opacity="0.19" d="M157.319 176.705C157.319 176.705 197.225 183.831 194.374 158.89C192.474 142.975 173.709 137.512 166.108 148.676C159.695 158.177 167.058 170.529 177.51 166.966C185.348 164.353 182.023 154.614 177.034 156.04" stroke="#45BC24" stroke-width="1.875" stroke-miterlimit="10" stroke-linecap="round" stroke-linejoin="round"/>
<path d="M96.5109 120.648L98.6487 148.676C74.4205 138.7 42.3537 123.498 31.4273 111.146C31.4273 111.146 10.9996 106.158 14.325 91.6689C16.7003 80.98 21.926 80.2674 26.4391 85.4931C30.9522 90.7187 33.3275 94.2817 34.5152 91.9064C36.1779 88.8185 30.9522 83.5928 34.2777 83.1177C37.128 82.6427 44.4915 87.1558 42.3537 100.22C42.5912 99.9825 59.2184 112.334 96.5109 120.648Z" fill="#58D63A"/>
<path d="M123.827 118.035L120.502 144.876C144.493 141.075 169.908 135.137 182.26 126.111C182.26 126.111 201.738 125.873 201.975 112.096C201.975 101.882 197.462 100.22 192.236 104.02C187.011 107.821 184.16 110.671 183.448 108.058C182.735 104.97 188.436 101.407 185.586 100.22C183.21 99.2696 175.609 101.645 174.659 113.759C174.659 113.997 159.457 118.272 123.827 118.035Z" fill="#72E244"/>
<path d="M87.0095 117.797C87.0095 117.797 82.9714 141.788 85.1092 155.09C85.1092 155.09 107.2 158.415 113.138 169.579C119.076 180.743 133.091 202.121 133.328 205.209C134.278 215.423 135.941 213.998 137.366 212.81C155.418 199.033 159.932 201.646 154.943 188.819C149.718 175.517 129.765 148.676 126.202 119.223C122.639 89.7687 87.0095 117.797 87.0095 117.797Z" fill="#72E244"/>
<path d="M82.0213 191.907C87.7221 199.745 95.3231 204.733 95.3231 204.733C95.5606 204.971 95.5606 204.971 95.5606 205.208L97.9359 212.572C98.411 213.997 100.786 214.472 101.974 213.285L118.601 196.657C119.076 196.182 119.076 195.232 118.601 194.757C114.563 190.957 94.6105 171.004 110.288 173.617C139.266 178.842 117.413 148.676 96.7483 146.063C72.5201 142.975 59.9309 161.503 82.0213 191.907Z" fill="#72E244"/>
<path d="M109.245 166.594C116.662 165.644 121.648 156.857 120.382 146.968C119.116 137.079 112.077 129.832 104.66 130.781C97.2426 131.731 92.2564 140.518 93.5226 150.407C94.7888 160.296 101.828 167.543 109.245 166.594Z" fill="#8FF460"/>
<path d="M197.699 62.2145C197.462 62.4521 202.213 47.2501 209.814 42.0244C210.764 41.3118 211.951 41.5493 212.664 42.2619L216.939 46.0624C218.127 47.2501 217.89 49.3878 216.227 49.8629C212.426 51.2881 206.013 54.6135 197.699 62.2145Z" fill="#EADC2D"/>
<path d="M210.289 73.141C210.051 73.3785 219.552 70.7656 223.353 66.2525C224.065 65.54 224.065 64.1148 223.353 63.4022L222.165 61.977C220.977 60.7893 219.077 61.0269 218.365 62.452C217.177 64.8274 214.802 68.6279 210.289 73.141Z" fill="#3ADDBE"/>
<path d="M198.649 84.3051C198.412 84.3051 204.825 82.4049 209.338 83.5925C210.526 83.8301 211.239 85.0177 211.001 86.2054C210.764 87.8681 208.863 88.5807 207.676 87.8681C205.538 86.918 202.925 85.4928 198.649 84.3051Z" fill="#AF4868"/>
<path d="M34.2778 40.1244C34.7529 40.1244 17.6506 26.8226 5.06144 26.8226C3.63625 26.8226 2.4486 27.7728 1.97354 29.1979L0.0732838 37.0365C-0.401779 39.1743 1.49847 41.312 3.87379 40.837C9.09948 39.4118 18.8383 37.9866 34.2778 40.1244Z" fill="#EADC2D"/>
<path d="M32.1402 53.4258C32.3778 53.4258 25.2518 52.7132 20.9763 54.6135C19.7886 55.0885 19.3136 56.5137 19.5511 57.7014C20.0261 59.3641 22.1639 59.8392 23.3516 58.6515C25.2518 57.2263 28.1022 55.3261 32.1402 53.4258Z" fill="#AF4868"/>
<path d="M30.2397 26.8224C30.4773 27.0599 28.8145 15.8959 24.3014 9.95764C23.1138 8.29492 20.7385 7.81986 19.0758 9.00751H18.8382C16.4629 10.4327 16.4629 13.7581 18.6007 15.4209C21.6886 17.5586 25.7266 21.1216 30.2397 26.8224Z" fill="#3ADDBE"/>
<path d="M91.7607 15.1835C91.7607 15.1835 140.455 -9.99478 174.659 4.49464C186.773 9.72033 171.096 30.8606 171.096 30.8606C171.096 30.8606 183.685 30.6231 186.536 38.4616C190.336 48.4379 182.023 54.6138 182.023 54.6138C182.023 54.6138 205.301 62.2148 182.973 89.2933C145.443 135.374 91.7607 15.1835 91.7607 15.1835Z" fill="#72E244"/>
<path opacity="0.62" d="M80.8339 111.621C80.5963 100.695 93.1855 93.5689 104.349 93.3314C115.513 93.0938 128.103 102.12 128.34 113.046" fill="#58D63A"/>
<path d="M144.255 4.96994C144.255 4.96994 122.64 3.06969 99.5991 11.6208C76.5586 20.172 47.3422 40.1246 44.4918 71.0037C41.4039 106.396 75.1334 123.498 110.526 123.498C157.319 123.498 206.251 101.408 166.82 62.4525C159.932 55.8017 152.094 40.3621 153.756 22.7848C155.181 5.20748 145.918 5.20748 144.255 4.96994Z" fill="#72E244"/>
<path d="M55.6554 92.3815C49.9546 109.959 74.1828 120.41 101.261 123.498C129.29 126.586 151.856 118.985 153.756 105.446C155.656 91.9064 135.228 77.892 108.15 74.3291C81.0712 70.7661 59.9309 78.8422 55.6554 92.3815Z" fill="#8FF460"/>
<path d="M104.112 69.1032L98.4114 68.1531C97.2237 67.9155 96.5111 66.9654 96.7486 65.7777L96.9862 64.8276C97.2237 63.64 98.1738 62.9274 99.3615 63.1649L105.062 64.115C106.25 64.3526 106.962 65.3027 106.725 66.4903L106.487 67.4405C106.487 68.3906 105.3 69.3407 104.112 69.1032Z" fill="#17326D"/>
<path d="M68.7196 89.531C67.7695 89.531 66.5819 89.2934 65.3942 89.2934C48.2919 86.6806 36.6529 70.5285 39.2658 53.4262C42.3537 33.4736 53.7552 25.16 74.8955 27.2978C83.2091 28.0104 90.335 32.0484 95.0856 38.2242C100.311 45.1126 102.449 54.1388 101.024 63.165C98.8861 79.0796 84.6342 90.4811 68.7196 89.531ZM71.57 32.0484C54.9428 31.0983 46.8668 37.9867 44.2539 54.1388C42.1161 68.6282 51.8549 81.93 66.3443 84.3053C73.2327 85.493 80.3587 83.5927 86.0594 79.5547C91.7602 75.5166 95.5607 69.3408 96.5108 62.2149C97.6985 54.6139 95.7982 46.7753 91.5227 41.0746C87.4846 35.8489 81.5463 32.761 74.6579 32.0484C73.4703 32.0484 72.5201 32.0484 71.57 32.0484Z" fill="#17326D"/>
<path d="M130.953 100.458C130.478 100.458 130.241 100.458 129.765 100.458C121.452 99.7452 113.851 95.7071 108.625 89.0562C103.4 82.4054 101.262 73.8542 102.449 65.7782C105.062 49.3885 120.027 38.2245 138.079 39.6497C147.343 40.3623 154.469 43.6878 159.219 49.626C164.445 56.0394 166.345 65.3031 164.683 75.517C162.07 91.6691 148.53 101.408 130.953 100.458ZM137.366 44.6379C122.164 43.9253 109.813 52.9515 107.675 66.7283C106.487 73.6167 108.388 80.7426 112.901 86.2059C117.176 91.6691 123.59 94.9945 130.478 95.7071C145.918 96.8948 157.794 88.5812 159.932 75.0419C161.357 66.0157 159.694 58.1772 155.419 52.9515C151.618 48.2008 145.68 45.588 138.079 44.8754C137.604 44.6379 137.366 44.6379 137.366 44.6379Z" fill="#17326D"/>
<path d="M135.466 59.8392C135.466 59.8392 122.402 60.7894 115.514 72.6659C115.514 72.6659 126.203 67.6778 137.129 71.7158" stroke="#162947" stroke-width="1.875" stroke-miterlimit="10" stroke-linecap="round" stroke-linejoin="round"/>
<path d="M69.6703 52.0012C69.6703 52.0012 82.022 56.0393 85.8225 69.341C85.8225 69.341 76.7963 61.9775 65.1572 63.1652" stroke="#162947" stroke-width="1.875" stroke-miterlimit="10" stroke-linecap="round" stroke-linejoin="round"/>
<path d="M113.138 107.346C116.701 114.947 113.138 123.735 107.437 126.586C101.737 129.436 91.5227 124.923 87.9597 117.322C84.3967 109.721 88.6723 101.883 94.373 99.0321C100.074 96.1818 109.575 99.7447 113.138 107.346Z" fill="#8FF460"/>
<path d="M88.1971 93.0938C96.5107 93.8064 99.1235 88.3432 102.449 88.8183C107.2 89.2933 113.85 105.921 105.062 110.196C95.0855 114.947 96.5107 124.686 89.1472 114.234C85.3467 108.296 71.5699 91.4311 88.1971 93.0938Z" fill="#162947"/>
<path d="M110.288 97.3694C110.288 97.3694 82.9717 111.146 95.5609 122.31C108.15 133.474 115.038 111.859 115.038 111.859L110.288 97.3694Z" fill="#EFA0B7"/>
</svg>
