<svg width="32" height="32" viewBox="0 0 32 32" fill="none" xmlns="http://www.w3.org/2000/svg">
<path fill-rule="evenodd" clip-rule="evenodd" d="M14.9994 3.00001C16.7579 2.9979 18.4985 3.35359 20.1153 4.04544C21.7322 4.73737 23.1915 5.75106 24.4042 7.02484L24.4218 7.04325L25.7583 8.59815C26.1184 9.01697 26.0707 9.64834 25.6519 10.0083C25.233 10.3684 24.6017 10.3207 24.2417 9.90187L22.9386 8.38594C21.9163 7.31711 20.6883 6.46608 19.3285 5.88416C17.961 5.29898 16.4887 4.99816 15.0012 5.00001L15.0006 5.00001H15C8.92728 5.00001 4 9.92729 4 16C4 22.0727 8.92725 27 14.9999 27M14.9994 3.00001C7.82238 3.00035 2 8.82293 2 16C2 23.1773 7.82271 29 15 29H15.0001C17.6887 28.9998 20.3111 28.1664 22.5066 26.6144C24.702 25.0624 26.3625 22.8682 27.2596 20.3337C27.4438 19.813 27.1712 19.2416 26.6505 19.0573C26.1299 18.873 25.5584 19.1457 25.3742 19.6664C24.6151 21.8111 23.2099 23.668 21.3521 24.9813C19.4943 26.2946 17.2751 26.9998 15 27" fill="#F77F73"/>
<path d="M29.0001 6.08888V13.0001C29.0001 13.2653 28.8947 13.5197 28.7072 13.7072C28.5196 13.8948 28.2653 14.0001 28.0001 14.0001H21.0888C20.1976 14.0001 19.7513 12.9233 20.3813 12.2933L27.2932 5.38138C27.9232 4.75013 29.0001 5.19763 29.0001 6.08888Z" fill="#F77F73"/>
</svg>
