<svg width="140" height="156" viewBox="0 0 140 156" fill="none" xmlns="http://www.w3.org/2000/svg">
<path d="M94.9146 113.209C89.0425 120.29 83.1705 127.544 76.0895 133.416C64.1727 143.26 51.047 153.45 35.1579 154.14C29.1132 154.486 22.723 153.795 17.3691 150.859C12.0152 147.923 7.5248 143.951 3.89795 138.942C2.17088 136.352 0.961929 132.725 0.271103 129.443C-1.97408 115.627 10.1154 104.401 22.0322 102.501C37.2304 100.083 55.0192 125.298 33.6036 136.697C33.6036 136.697 49.1472 146.196 83.5159 100.256L94.9146 113.209Z" fill="#58D63A"/>
<path opacity="0.19" d="M42.7563 136.007C42.7563 136.007 9.94201 146.887 9.42389 125.644C9.07848 112.001 24.2767 105.092 31.8758 113.555C38.4387 120.809 33.7756 132.035 24.6221 130.48C17.7138 129.271 19.2682 120.636 23.5859 121.154" stroke="#45BC24" stroke-width="2" stroke-miterlimit="10" stroke-linecap="round" stroke-linejoin="round"/>
<path d="M53.9827 151.033C54.8462 150.514 55.5371 149.824 55.8825 148.787C59.3366 139.634 65.3814 122.536 66.4176 113.21C67.972 100.257 65.3814 84.1949 68.6628 82.6405C71.9442 81.0862 93.3599 82.6405 93.3599 82.6405C93.3599 82.6405 103.722 81.4316 106.486 147.924C106.486 149.305 107.349 150.687 108.558 151.378C110.285 152.414 112.012 153.796 111.149 154.832C110.112 155.868 97.8503 155.523 90.7693 155.005C88.3514 154.832 86.4516 152.76 86.797 150.342C86.9697 148.442 87.1425 146.024 86.9697 143.261C86.797 141.015 85.07 139.288 82.8248 139.116C80.925 139.116 79.3706 140.152 78.6798 141.879L75.2257 151.551C74.5348 153.45 72.8078 154.659 70.908 154.832C64.6905 155.177 51.9102 155.868 50.7013 154.659C49.665 153.796 52.2556 152.069 53.9827 151.033Z" fill="#72E244"/>
<path d="M105.277 97.1479C105.277 97.1479 112.185 100.429 111.321 105.783C110.285 111.137 97.332 98.875 97.332 98.875L105.277 97.1479Z" fill="#73D844"/>
<path d="M85.7609 134.97C78.8933 134.97 73.326 127.779 73.326 118.908C73.326 110.038 78.8933 102.847 85.7609 102.847C92.6285 102.847 98.1958 110.038 98.1958 118.908C98.1958 127.779 92.6285 134.97 85.7609 134.97Z" fill="#8FF460"/>
<path opacity="0.19" d="M96.1245 132.898L94.3974 137.561C94.3974 137.561 77.2994 126.163 71.082 128.235C64.3464 130.653 62.1012 130.135 62.1012 130.135L64.3464 122.018L67.9733 97.666L69.873 113.382L96.1245 132.898Z" fill="url(#paint0_linear_669_1335)"/>
<path d="M105.449 17.3573C105.449 17.3573 73.153 -5.61274 44.1382 1.29554C34.2939 3.71344 44.3109 21.5023 44.3109 21.5023C44.3109 21.5023 34.8121 20.1206 31.8761 25.8199C28.0765 32.9009 33.6031 38.4275 33.6031 38.4275C33.6031 38.4275 15.2962 41.8817 29.4582 64.5063C53.6371 102.675 105.449 17.3573 105.449 17.3573Z" fill="#72E244"/>
<path opacity="0.62" d="M104.415 91.103C105.623 82.9857 96.9881 76.4229 88.5255 75.0412C80.0628 73.8323 69.8731 79.5316 68.6642 87.6488" fill="#58D63A"/>
<path d="M66.9365 4.57707C66.9365 4.57707 83.3437 5.2679 99.9236 13.9032C116.331 22.7113 136.537 40.6728 135.674 64.3337C134.638 91.6214 107.523 101.293 80.9258 98.0116C45.6936 93.5212 10.9795 71.9328 44.4846 46.0268C50.184 41.7091 57.4376 30.6558 58.1285 17.1847C58.6466 3.71353 65.7276 4.57707 66.9365 4.57707Z" fill="#72E244"/>
<path d="M125.139 79.705C127.729 93.6942 108.559 99.3936 87.6614 99.0482C66.2457 98.7027 50.0113 90.9309 50.0113 80.3958C50.0113 69.8607 66.5911 61.2253 87.4887 61.0526C108.214 60.7072 123.239 68.8244 125.139 79.705Z" fill="#8FF460"/>
<path d="M110.803 38.9457C117.712 38.4275 122.548 42.3998 123.584 48.6173C124.62 55.6982 120.82 63.6428 114.258 63.6428C107.695 63.4701 99.7502 61.5703 99.9229 53.4531C100.096 45.3358 102.686 39.6365 110.803 38.9457Z" fill="#F5F2F5"/>
<path d="M68.8363 42.745C75.9173 42.2268 80.9258 46.1991 81.7893 52.5893C82.8256 59.8429 79.026 67.6148 72.4631 67.9602C66.4184 68.3056 57.6103 65.715 57.6103 57.425C57.6103 49.1351 60.7191 43.2631 68.8363 42.745Z" fill="#F5F2F5"/>
<path d="M71.7726 67.9607C66.5265 67.9607 62.2737 63.7079 62.2737 58.4618C62.2737 53.2157 66.5265 48.9629 71.7726 48.9629C77.0187 48.9629 81.2715 53.2157 81.2715 58.4618C81.2715 63.7079 77.0187 67.9607 71.7726 67.9607Z" fill="#162947"/>
<path d="M112.704 63.8152C107.649 63.8152 103.551 59.7171 103.551 54.6618C103.551 49.6065 107.649 45.5083 112.704 45.5083C117.76 45.5083 121.858 49.6065 121.858 54.6618C121.858 59.7171 117.76 63.8152 112.704 63.8152Z" fill="#162947"/>
<path d="M89.5607 54.144L94.0511 53.9713C94.9146 53.9713 95.6055 53.2805 95.6055 52.4169V51.5534C95.6055 50.6899 94.9146 49.999 94.0511 49.999L89.5607 50.1717C88.6972 50.1717 88.0064 50.8626 88.0064 51.7261V52.5896C88.0064 53.6259 88.6972 54.3167 89.5607 54.144Z" fill="#17326D"/>
<path d="M114.43 73.1412C115.294 73.1412 115.985 73.1412 116.848 73.1412C129.974 72.7958 140.337 61.7426 139.991 48.6168C139.473 33.2459 131.874 25.8195 115.639 25.4741C109.422 25.3014 103.55 27.5466 99.2323 31.8643C94.5692 36.5274 92.1513 43.0902 92.324 49.9985C92.6694 62.2607 102.341 72.2777 114.43 73.1412ZM117.712 29.4464C130.32 30.3099 135.846 36.1819 136.192 48.7896C136.537 59.8428 127.729 68.9963 116.676 69.3417C111.322 69.5144 106.313 67.6146 102.341 63.8151C98.3687 60.1882 96.2962 55.1797 96.1235 49.8258C95.9508 43.9538 98.0233 38.2544 101.996 34.4549C105.622 30.828 110.286 29.101 115.467 29.2737C116.33 29.2737 117.021 29.2737 117.712 29.4464Z" fill="#17326D"/>
<path d="M66.4178 75.3863C66.7632 75.3863 67.1087 75.3863 67.2814 75.3863C73.4988 75.7317 79.7163 73.3138 84.2066 68.8234C88.697 64.333 91.2876 58.1156 91.1149 51.8981C90.7695 39.2905 80.5798 29.4462 66.7632 28.7554C59.855 28.41 54.1556 30.137 50.0107 34.282C45.5203 38.5997 43.1024 45.508 43.4478 53.2798C43.7932 65.542 52.9467 74.35 66.4178 75.3863ZM66.9359 32.5549C78.5073 33.4185 86.97 41.5357 87.3154 51.8981C87.4881 57.252 85.4156 62.4332 81.616 66.0601C77.8165 69.8596 72.808 71.7594 67.4541 71.414C55.71 70.8959 47.5928 63.4695 47.2473 52.9344C47.0746 46.0261 48.9744 40.3267 52.774 36.6999C56.0554 33.4185 60.7185 32.0368 66.5905 32.3822C66.7632 32.5549 66.9359 32.5549 66.9359 32.5549Z" fill="#17326D"/>
<path d="M96.9871 136.698C101.996 130.826 110.804 131.344 110.804 131.344L126.52 95.0752L109.595 101.983L96.9871 136.698Z" fill="#0D1F3A"/>
<path d="M115.121 121.499C115.121 121.499 122.375 119.081 119.957 112.691C118.576 108.892 112.531 114.764 112.704 116.836C112.876 118.909 114.949 118.736 115.121 121.499Z" fill="#72E244"/>
<path d="M109.768 102.156C109.768 102.156 88.007 89.3756 80.7533 90.2391L67.6275 123.053C67.6275 123.053 91.2884 127.889 97.1605 136.697L109.768 102.156Z" fill="#096796"/>
<path d="M63.4815 94.3848L69.3536 96.63L66.5903 110.274L66.2448 113.555L81.7885 114.073C81.7885 114.073 83.6883 106.992 85.4153 107.683C86.4516 108.029 84.8972 110.619 85.2426 112.001C85.4153 112.346 86.4516 112.692 86.9697 110.792C88.3513 106.647 96.1232 103.366 97.1594 110.965C98.0229 118.218 84.7245 120.636 84.7245 120.636C84.7245 120.636 67.6265 129.099 55.1916 126.854C42.9294 124.608 63.4815 94.3848 63.4815 94.3848Z" fill="#72E244"/>
<path d="M97.5054 77.2866C97.5054 77.2866 90.5971 82.1224 86.4521 75.5596" stroke="#162947" stroke-miterlimit="10" stroke-linecap="round"/>
<defs>
<linearGradient id="paint0_linear_669_1335" x1="96.0556" y1="117.769" x2="62.2223" y2="117.769" gradientUnits="userSpaceOnUse">
<stop offset="0.0902126" stop-color="#2C9920"/>
<stop offset="0.1093" stop-color="#379E24"/>
<stop offset="0.1651" stop-color="#52AA2C"/>
<stop offset="0.2293" stop-color="#68B533"/>
<stop offset="0.3042" stop-color="#79BC38"/>
<stop offset="0.3969" stop-color="#84C23C"/>
<stop offset="0.5269" stop-color="#8BC53E"/>
<stop offset="0.8878" stop-color="#8DC63F"/>
</linearGradient>
</defs>
</svg>
