<svg width="614" height="257" viewBox="0 0 614 257" fill="none" xmlns="http://www.w3.org/2000/svg">
<g clip-path="url(#clip0_814_1029)">
<g clip-path="url(#clip1_814_1029)">
<path d="M524.09 26.7C493.346 46.9363 492.247 67.9876 490.09 93.2C487.191 126.971 444.948 178.787 380.09 189.868C316.512 200.749 247.162 167.93 181.09 174.2C115.017 180.47 68.1453 206.01 41.5 262.5C104.445 252.97 196.559 272 269.056 272C380.09 272 422.5 280.5 505.313 285.5C521.966 283.078 582.93 291.5 614 291.5C614 276.193 613.528 197.597 614 189.868C614 130.827 614 117.51 614 60.2918C614 41.3404 614 24.1999 614 9.99762C576.851 -0.0541797 549.372 10.0797 524.09 26.7Z" fill="#46BB19"/>
</g>
<g clip-path="url(#clip2_814_1029)">
<path d="M88 262C88.7288 223.255 131.602 156.364 207 153.5C277.694 150.809 330.33 209.866 399.5 202C440.5 202 482.218 188.86 490.5 161.5C498.782 134.14 461.5 68.25 535 39C563.466 27.6718 599.767 27.3269 614 30.1501" stroke="#F1CA3D" stroke-width="3" stroke-miterlimit="10" stroke-linecap="round" stroke-linejoin="round" stroke-dasharray="15 15"/>
</g>
</g>
<defs>
<clipPath id="clip0_814_1029">
<rect width="614" height="257" fill="white"/>
</clipPath>
<clipPath id="clip1_814_1029">
<rect width="285" height="614" fill="white" transform="matrix(4.69811e-08 -1 -1 -4.06692e-08 614 285)"/>
</clipPath>
<clipPath id="clip2_814_1029">
<rect width="273" height="601" fill="white" transform="matrix(4.37114e-08 -1 -1 -4.37114e-08 614 299)"/>
</clipPath>
</defs>
</svg>
