<svg width="432" height="300" viewBox="0 0 432 300" fill="none" xmlns="http://www.w3.org/2000/svg">
<path d="M314.5 117C383.3 113.8 408 37 408 2.5L1 28.5V299.5C5.66666 295.5 35.5 286.5 55.5 242.5C81.2091 185.94 41 120.023 127.5 95.5C178.299 81.0981 228.5 121 314.5 117Z" fill="#46BB19"/>
<path d="M430.5 1.99998C429.771 40.7454 405.898 122.636 330.5 125.499C259.806 128.19 237.17 67.6336 168 75.5C127 75.5 96.5 95.9993 80.0001 125.499C63.5002 154.999 93.899 204.966 80.0001 231.5C69 252.5 48 268.5 2.00001 268.5" stroke="#F1CA3D" stroke-width="3" stroke-miterlimit="10" stroke-linecap="round" stroke-linejoin="round" stroke-dasharray="15 15"/>
</svg>
