<svg width="259" height="259" viewBox="0 0 259 259" fill="none" xmlns="http://www.w3.org/2000/svg">
<path d="M156.416 231.142C150.902 232.62 145.063 231.968 140.11 229.109L37.2045 169.502C32.2517 166.642 28.7677 161.912 27.29 156.397C25.8124 150.882 26.4643 145.043 29.3238 140.091L88.9306 37.185C94.8179 26.988 107.915 23.4786 118.112 29.3659L221.018 88.9727C225.971 91.8322 229.455 96.5629 230.932 102.078C232.41 107.592 231.696 113.201 228.837 118.154L169.46 220.998C166.6 225.951 161.931 229.665 156.416 231.142ZM77.1512 143.037L143.056 181.281L181.239 115.146L115.166 77.1932L77.1512 143.037Z" fill="#42C0FF"/>
</svg>
